solid OpenSCAD_Model
  facet normal -1 0 0
    outer loop
      vertex 0 35 -3
      vertex 0 0 -3
      vertex 0 35 0
    endloop
  endfacet
  facet normal -1 0 0
    outer loop
      vertex 0 122.5 -3
      vertex 0 121 14.3275
      vertex 0 122.5 14.3275
    endloop
  endfacet
  facet normal -1 0 0
    outer loop
      vertex 0 87.5 0
      vertex 0 122.5 -3
      vertex 0 87.5 -3
    endloop
  endfacet
  facet normal -1 0 0
    outer loop
      vertex 0 122.5 -3
      vertex 0 87.5 0
      vertex 0 121 14.3275
    endloop
  endfacet
  facet normal -1 -0 0
    outer loop
      vertex 0 121 14.3275
      vertex 0 87.5 0
      vertex 0 121 14.35
    endloop
  endfacet
  facet normal -1 0 0
    outer loop
      vertex 0 35 0
      vertex 0 121 14.35
      vertex 0 87.5 0
    endloop
  endfacet
  facet normal -1 0 0
    outer loop
      vertex 0 0 14.35
      vertex 0 35 0
      vertex 0 0 -3
    endloop
  endfacet
  facet normal -1 0 0
    outer loop
      vertex 0 35 0
      vertex 0 0 14.35
      vertex 0 121 14.35
    endloop
  endfacet
  facet normal -0 0 1
    outer loop
      vertex 3 119.5 8
      vertex 48.5 3 8
      vertex 48.5 119.5 8
    endloop
  endfacet
  facet normal 0 0 1
    outer loop
      vertex 48.5 3 8
      vertex 3 119.5 8
      vertex 3 3 8
    endloop
  endfacet
  facet normal 1 0 0
    outer loop
      vertex 51.5 121 14.35
      vertex 51.5 87.5 0
      vertex 51.5 121 14.3275
    endloop
  endfacet
  facet normal 1 0 0
    outer loop
      vertex 51.5 121 14.35
      vertex 51.5 35 0
      vertex 51.5 87.5 0
    endloop
  endfacet
  facet normal 1 -0 0
    outer loop
      vertex 51.5 0 14.35
      vertex 51.5 35 0
      vertex 51.5 121 14.35
    endloop
  endfacet
  facet normal 1 0 0
    outer loop
      vertex 51.5 0 -3
      vertex 51.5 35 0
      vertex 51.5 0 14.35
    endloop
  endfacet
  facet normal 1 0 0
    outer loop
      vertex 51.5 35 0
      vertex 51.5 0 -3
      vertex 51.5 35 -3
    endloop
  endfacet
  facet normal 1 -0 0
    outer loop
      vertex 51.5 121 14.3275
      vertex 51.5 122.5 -3
      vertex 51.5 122.5 14.3275
    endloop
  endfacet
  facet normal 1 -0 0
    outer loop
      vertex 51.5 87.5 0
      vertex 51.5 122.5 -3
      vertex 51.5 121 14.3275
    endloop
  endfacet
  facet normal 1 0 0
    outer loop
      vertex 51.5 122.5 -3
      vertex 51.5 87.5 0
      vertex 51.5 87.5 -3
    endloop
  endfacet
  facet normal 0 0 -1
    outer loop
      vertex 0 35 0
      vertex 51.5 87.5 0
      vertex 51.5 35 0
    endloop
  endfacet
  facet normal -0 0 -1
    outer loop
      vertex 51.5 87.5 0
      vertex 0 35 0
      vertex 0 87.5 0
    endloop
  endfacet
  facet normal 0 -1 0
    outer loop
      vertex 0 0 14.35
      vertex 3 0 14.3275
      vertex 3 0 14.35
    endloop
  endfacet
  facet normal 0 -1 0
    outer loop
      vertex 3 0 14.3275
      vertex 20.267 0 13.9185
      vertex 20.2509 0 14.3275
    endloop
  endfacet
  facet normal 0 -1 0
    outer loop
      vertex 0 0 -3
      vertex 3 0 14.3275
      vertex 0 0 14.35
    endloop
  endfacet
  facet normal 0 -1 0
    outer loop
      vertex 3 0 14.3275
      vertex 20.3177 0 13.4896
      vertex 20.267 0 13.9185
    endloop
  endfacet
  facet normal 0 -1 0
    outer loop
      vertex 3 0 14.3275
      vertex 20.402 0 13.066
      vertex 20.3177 0 13.4896
    endloop
  endfacet
  facet normal 0 -1 0
    outer loop
      vertex 3 0 14.3275
      vertex 20.5192 0 12.6504
      vertex 20.402 0 13.066
    endloop
  endfacet
  facet normal 0 -1 0
    outer loop
      vertex 3 0 14.3275
      vertex 20.6687 0 12.2452
      vertex 20.5192 0 12.6504
    endloop
  endfacet
  facet normal 0 -1 0
    outer loop
      vertex 3 0 14.3275
      vertex 20.8495 0 11.8531
      vertex 20.6687 0 12.2452
    endloop
  endfacet
  facet normal -0 -1 0
    outer loop
      vertex 21.3004 0 11.1172
      vertex 3 0 14.3275
      vertex 0 0 -3
    endloop
  endfacet
  facet normal 0 -1 0
    outer loop
      vertex 3 0 14.3275
      vertex 21.0605 0 11.4763
      vertex 20.8495 0 11.8531
    endloop
  endfacet
  facet normal 0 -1 0
    outer loop
      vertex 3 0 14.3275
      vertex 21.3004 0 11.1172
      vertex 21.0605 0 11.4763
    endloop
  endfacet
  facet normal 0 -1 -0
    outer loop
      vertex 21.3004 0 11.1172
      vertex 0 0 -3
      vertex 21.5678 0 10.778
    endloop
  endfacet
  facet normal 0 -1 -0
    outer loop
      vertex 21.5678 0 10.778
      vertex 0 0 -3
      vertex 21.8609 0 10.4609
    endloop
  endfacet
  facet normal 0 -1 -0
    outer loop
      vertex 21.8609 0 10.4609
      vertex 0 0 -3
      vertex 22.178 0 10.1678
    endloop
  endfacet
  facet normal 0 -1 -0
    outer loop
      vertex 22.178 0 10.1678
      vertex 0 0 -3
      vertex 22.5172 0 9.90041
    endloop
  endfacet
  facet normal 0 -1 -0
    outer loop
      vertex 22.5172 0 9.90041
      vertex 0 0 -3
      vertex 22.8763 0 9.66048
    endloop
  endfacet
  facet normal 0 -1 -0
    outer loop
      vertex 22.8763 0 9.66048
      vertex 0 0 -3
      vertex 23.2531 0 9.44946
    endloop
  endfacet
  facet normal 0 -1 -0
    outer loop
      vertex 23.2531 0 9.44946
      vertex 0 0 -3
      vertex 23.6452 0 9.26866
    endloop
  endfacet
  facet normal 0 -1 -0
    outer loop
      vertex 23.6452 0 9.26866
      vertex 0 0 -3
      vertex 24.0504 0 9.11919
    endloop
  endfacet
  facet normal 0 -1 -0
    outer loop
      vertex 25.3185 0 8.86695
      vertex 0 0 -3
      vertex 25.75 0 8.85
    endloop
  endfacet
  facet normal 0 -1 -0
    outer loop
      vertex 24.8896 0 8.91771
      vertex 0 0 -3
      vertex 25.3185 0 8.86695
    endloop
  endfacet
  facet normal 0 -1 -0
    outer loop
      vertex 24.466 0 9.00196
      vertex 0 0 -3
      vertex 24.8896 0 8.91771
    endloop
  endfacet
  facet normal 0 -1 -0
    outer loop
      vertex 24.0504 0 9.11919
      vertex 0 0 -3
      vertex 24.466 0 9.00196
    endloop
  endfacet
  facet normal 0 -1 -0
    outer loop
      vertex 31.2491 0 14.3275
      vertex 31.233 0 13.9185
      vertex 48.5 0 14.3275
    endloop
  endfacet
  facet normal 0 -1 0
    outer loop
      vertex 48.5 0 14.3275
      vertex 51.5 0 14.35
      vertex 48.5 0 14.35
    endloop
  endfacet
  facet normal 0 -1 0
    outer loop
      vertex 31.1823 0 13.4896
      vertex 48.5 0 14.3275
      vertex 31.233 0 13.9185
    endloop
  endfacet
  facet normal 0 -1 0
    outer loop
      vertex 31.098 0 13.066
      vertex 48.5 0 14.3275
      vertex 31.1823 0 13.4896
    endloop
  endfacet
  facet normal 0 -1 0
    outer loop
      vertex 30.9808 0 12.6504
      vertex 48.5 0 14.3275
      vertex 31.098 0 13.066
    endloop
  endfacet
  facet normal 0 -1 0
    outer loop
      vertex 30.8313 0 12.2452
      vertex 48.5 0 14.3275
      vertex 30.9808 0 12.6504
    endloop
  endfacet
  facet normal 0 -1 0
    outer loop
      vertex 30.6505 0 11.8531
      vertex 48.5 0 14.3275
      vertex 30.8313 0 12.2452
    endloop
  endfacet
  facet normal 0 -1 0
    outer loop
      vertex 30.4395 0 11.4763
      vertex 48.5 0 14.3275
      vertex 30.6505 0 11.8531
    endloop
  endfacet
  facet normal 0 -1 0
    outer loop
      vertex 30.1996 0 11.1172
      vertex 48.5 0 14.3275
      vertex 30.4395 0 11.4763
    endloop
  endfacet
  facet normal 0 -1 -0
    outer loop
      vertex 48.5 0 14.3275
      vertex 30.1996 0 11.1172
      vertex 51.5 0 -3
    endloop
  endfacet
  facet normal 0 -1 0
    outer loop
      vertex 51.5 0 -3
      vertex 30.1996 0 11.1172
      vertex 29.9322 0 10.778
    endloop
  endfacet
  facet normal 0 -1 0
    outer loop
      vertex 51.5 0 -3
      vertex 29.9322 0 10.778
      vertex 29.6391 0 10.4609
    endloop
  endfacet
  facet normal 0 -1 0
    outer loop
      vertex 51.5 0 -3
      vertex 29.6391 0 10.4609
      vertex 29.322 0 10.1678
    endloop
  endfacet
  facet normal 0 -1 0
    outer loop
      vertex 51.5 0 -3
      vertex 29.322 0 10.1678
      vertex 28.9828 0 9.90041
    endloop
  endfacet
  facet normal 0 -1 0
    outer loop
      vertex 51.5 0 -3
      vertex 28.9828 0 9.90041
      vertex 28.6237 0 9.66048
    endloop
  endfacet
  facet normal 0 -1 0
    outer loop
      vertex 51.5 0 -3
      vertex 28.6237 0 9.66048
      vertex 28.2469 0 9.44946
    endloop
  endfacet
  facet normal 0 -1 0
    outer loop
      vertex 51.5 0 -3
      vertex 28.2469 0 9.44946
      vertex 27.8548 0 9.26866
    endloop
  endfacet
  facet normal 0 -1 0
    outer loop
      vertex 51.5 0 -3
      vertex 27.8548 0 9.26866
      vertex 27.4496 0 9.11919
    endloop
  endfacet
  facet normal 0 -1 0
    outer loop
      vertex 51.5 0 -3
      vertex 27.4496 0 9.11919
      vertex 27.0339 0 9.00196
    endloop
  endfacet
  facet normal 0 -1 0
    outer loop
      vertex 51.5 0 -3
      vertex 25.75 0 8.85
      vertex 0 0 -3
    endloop
  endfacet
  facet normal 0 -1 0
    outer loop
      vertex 25.75 0 8.85
      vertex 51.5 0 -3
      vertex 26.1815 0 8.86695
    endloop
  endfacet
  facet normal 0 -1 0
    outer loop
      vertex 26.1815 0 8.86695
      vertex 51.5 0 -3
      vertex 26.6104 0 8.91771
    endloop
  endfacet
  facet normal 0 -1 0
    outer loop
      vertex 26.6104 0 8.91771
      vertex 51.5 0 -3
      vertex 27.0339 0 9.00196
    endloop
  endfacet
  facet normal 0 -1 0
    outer loop
      vertex 48.5 0 14.3275
      vertex 51.5 0 -3
      vertex 51.5 0 14.35
    endloop
  endfacet
  facet normal 0 1 -0
    outer loop
      vertex 3 121 14.3275
      vertex 0 121 14.35
      vertex 3 121 14.35
    endloop
  endfacet
  facet normal 0 1 0
    outer loop
      vertex 0 121 14.35
      vertex 3 121 14.3275
      vertex 0 121 14.3275
    endloop
  endfacet
  facet normal -0 0 1
    outer loop
      vertex 0 121 14.35
      vertex 3 0 14.35
      vertex 3 121 14.35
    endloop
  endfacet
  facet normal 0 0 1
    outer loop
      vertex 3 0 14.35
      vertex 0 121 14.35
      vertex 0 0 14.35
    endloop
  endfacet
  facet normal 1 0 0
    outer loop
      vertex 3 121 14.35
      vertex 3 119.5 14.3275
      vertex 3 121 14.3275
    endloop
  endfacet
  facet normal 1 0 0
    outer loop
      vertex 3 119.5 14.3275
      vertex 3 3 14.3275
      vertex 3 119.5 8
    endloop
  endfacet
  facet normal 1 0 0
    outer loop
      vertex 3 121 14.35
      vertex 3 3 14.3275
      vertex 3 119.5 14.3275
    endloop
  endfacet
  facet normal 1 -0 0
    outer loop
      vertex 3 0 14.35
      vertex 3 3 14.3275
      vertex 3 121 14.35
    endloop
  endfacet
  facet normal 1 0 0
    outer loop
      vertex 3 3 14.3275
      vertex 3 0 14.35
      vertex 3 0 14.3275
    endloop
  endfacet
  facet normal 1 0 0
    outer loop
      vertex 3 119.5 8
      vertex 3 3 14.3275
      vertex 3 3 8
    endloop
  endfacet
  facet normal -1 0 0
    outer loop
      vertex 48.5 119.5 8
      vertex 48.5 3 8
      vertex 48.5 119.5 14.3275
    endloop
  endfacet
  facet normal -1 0 0
    outer loop
      vertex 48.5 119.5 14.3275
      vertex 48.5 121 14.35
      vertex 48.5 121 14.3275
    endloop
  endfacet
  facet normal -1 0 0
    outer loop
      vertex 48.5 3 14.3275
      vertex 48.5 119.5 14.3275
      vertex 48.5 3 8
    endloop
  endfacet
  facet normal -1 0 0
    outer loop
      vertex 48.5 3 14.3275
      vertex 48.5 121 14.35
      vertex 48.5 119.5 14.3275
    endloop
  endfacet
  facet normal -1 0 0
    outer loop
      vertex 48.5 0 14.35
      vertex 48.5 3 14.3275
      vertex 48.5 0 14.3275
    endloop
  endfacet
  facet normal -1 0 0
    outer loop
      vertex 48.5 3 14.3275
      vertex 48.5 0 14.35
      vertex 48.5 121 14.35
    endloop
  endfacet
  facet normal -0 0 1
    outer loop
      vertex 48.5 121 14.35
      vertex 51.5 0 14.35
      vertex 51.5 121 14.35
    endloop
  endfacet
  facet normal 0 0 1
    outer loop
      vertex 51.5 0 14.35
      vertex 48.5 121 14.35
      vertex 48.5 0 14.35
    endloop
  endfacet
  facet normal 0 1 -0
    outer loop
      vertex 51.5 121 14.3275
      vertex 48.5 121 14.35
      vertex 51.5 121 14.35
    endloop
  endfacet
  facet normal 0 1 0
    outer loop
      vertex 48.5 121 14.35
      vertex 51.5 121 14.3275
      vertex 48.5 121 14.3275
    endloop
  endfacet
  facet normal 0 0 1
    outer loop
      vertex 51.5 122.5 14.3275
      vertex 48.5 121 14.3275
      vertex 51.5 121 14.3275
    endloop
  endfacet
  facet normal 0 0 1
    outer loop
      vertex 48.5 121 14.3275
      vertex 3 121 14.3275
      vertex 48.5 119.5 14.3275
    endloop
  endfacet
  facet normal 0 0 1
    outer loop
      vertex 51.5 122.5 14.3275
      vertex 3 121 14.3275
      vertex 48.5 121 14.3275
    endloop
  endfacet
  facet normal -0 0 1
    outer loop
      vertex 0 122.5 14.3275
      vertex 3 121 14.3275
      vertex 51.5 122.5 14.3275
    endloop
  endfacet
  facet normal 0 0 1
    outer loop
      vertex 3 121 14.3275
      vertex 0 122.5 14.3275
      vertex 0 121 14.3275
    endloop
  endfacet
  facet normal 0 0 1
    outer loop
      vertex 48.5 119.5 14.3275
      vertex 3 121 14.3275
      vertex 3 119.5 14.3275
    endloop
  endfacet
  facet normal 0 1 -0
    outer loop
      vertex 51.5 122.5 -3
      vertex 0 122.5 14.3275
      vertex 51.5 122.5 14.3275
    endloop
  endfacet
  facet normal 0 1 0
    outer loop
      vertex 0 122.5 14.3275
      vertex 51.5 122.5 -3
      vertex 0 122.5 -3
    endloop
  endfacet
  facet normal 0 -1 0
    outer loop
      vertex 3 119.5 8
      vertex 48.5 119.5 14.3275
      vertex 3 119.5 14.3275
    endloop
  endfacet
  facet normal 0 -1 -0
    outer loop
      vertex 48.5 119.5 14.3275
      vertex 3 119.5 8
      vertex 48.5 119.5 8
    endloop
  endfacet
  facet normal -0 0 1
    outer loop
      vertex 31.2491 3 14.3275
      vertex 48.5 0 14.3275
      vertex 48.5 3 14.3275
    endloop
  endfacet
  facet normal 0 0 1
    outer loop
      vertex 48.5 0 14.3275
      vertex 31.2491 3 14.3275
      vertex 31.2491 0 14.3275
    endloop
  endfacet
  facet normal -0 0 1
    outer loop
      vertex 3 3 14.3275
      vertex 20.2509 0 14.3275
      vertex 20.2509 3 14.3275
    endloop
  endfacet
  facet normal 0 0 1
    outer loop
      vertex 20.2509 0 14.3275
      vertex 3 3 14.3275
      vertex 3 0 14.3275
    endloop
  endfacet
  facet normal 0 1 0
    outer loop
      vertex 48.5 3 14.3275
      vertex 31.233 3 13.9185
      vertex 31.2491 3 14.3275
    endloop
  endfacet
  facet normal 0 1 0
    outer loop
      vertex 48.5 3 14.3275
      vertex 31.1823 3 13.4896
      vertex 31.233 3 13.9185
    endloop
  endfacet
  facet normal 0 1 0
    outer loop
      vertex 48.5 3 14.3275
      vertex 31.098 3 13.066
      vertex 31.1823 3 13.4896
    endloop
  endfacet
  facet normal 0 1 -0
    outer loop
      vertex 48.5 3 8
      vertex 31.098 3 13.066
      vertex 48.5 3 14.3275
    endloop
  endfacet
  facet normal 0 1 0
    outer loop
      vertex 31.098 3 13.066
      vertex 48.5 3 8
      vertex 30.9808 3 12.6504
    endloop
  endfacet
  facet normal 0 1 0
    outer loop
      vertex 30.9808 3 12.6504
      vertex 48.5 3 8
      vertex 30.8313 3 12.2452
    endloop
  endfacet
  facet normal 0 1 0
    outer loop
      vertex 30.8313 3 12.2452
      vertex 48.5 3 8
      vertex 30.6505 3 11.8531
    endloop
  endfacet
  facet normal 0 1 0
    outer loop
      vertex 30.6505 3 11.8531
      vertex 48.5 3 8
      vertex 30.4395 3 11.4763
    endloop
  endfacet
  facet normal 0 1 0
    outer loop
      vertex 30.4395 3 11.4763
      vertex 48.5 3 8
      vertex 30.1996 3 11.1172
    endloop
  endfacet
  facet normal 0 1 0
    outer loop
      vertex 30.1996 3 11.1172
      vertex 48.5 3 8
      vertex 29.9322 3 10.778
    endloop
  endfacet
  facet normal 0 1 0
    outer loop
      vertex 29.9322 3 10.778
      vertex 48.5 3 8
      vertex 29.6391 3 10.4609
    endloop
  endfacet
  facet normal 0 1 0
    outer loop
      vertex 29.6391 3 10.4609
      vertex 48.5 3 8
      vertex 29.322 3 10.1678
    endloop
  endfacet
  facet normal 0 1 0
    outer loop
      vertex 29.322 3 10.1678
      vertex 48.5 3 8
      vertex 28.9828 3 9.90041
    endloop
  endfacet
  facet normal 0 1 0
    outer loop
      vertex 28.9828 3 9.90041
      vertex 48.5 3 8
      vertex 28.6237 3 9.66048
    endloop
  endfacet
  facet normal 0 1 0
    outer loop
      vertex 28.6237 3 9.66048
      vertex 48.5 3 8
      vertex 28.2469 3 9.44946
    endloop
  endfacet
  facet normal 0 1 0
    outer loop
      vertex 28.2469 3 9.44946
      vertex 48.5 3 8
      vertex 27.8548 3 9.26866
    endloop
  endfacet
  facet normal 0 1 0
    outer loop
      vertex 27.8548 3 9.26866
      vertex 48.5 3 8
      vertex 27.4496 3 9.11919
    endloop
  endfacet
  facet normal 0 1 0
    outer loop
      vertex 26.1815 3 8.86695
      vertex 48.5 3 8
      vertex 25.75 3 8.85
    endloop
  endfacet
  facet normal 0 1 0
    outer loop
      vertex 26.6104 3 8.91771
      vertex 48.5 3 8
      vertex 26.1815 3 8.86695
    endloop
  endfacet
  facet normal 0 1 0
    outer loop
      vertex 27.0339 3 9.00196
      vertex 48.5 3 8
      vertex 26.6104 3 8.91771
    endloop
  endfacet
  facet normal 0 1 0
    outer loop
      vertex 27.4496 3 9.11919
      vertex 48.5 3 8
      vertex 27.0339 3 9.00196
    endloop
  endfacet
  facet normal 0 1 0
    outer loop
      vertex 20.267 3 13.9185
      vertex 3 3 14.3275
      vertex 20.2509 3 14.3275
    endloop
  endfacet
  facet normal 0 1 0
    outer loop
      vertex 20.3177 3 13.4896
      vertex 3 3 14.3275
      vertex 20.267 3 13.9185
    endloop
  endfacet
  facet normal 0 1 0
    outer loop
      vertex 20.402 3 13.066
      vertex 3 3 14.3275
      vertex 20.3177 3 13.4896
    endloop
  endfacet
  facet normal 0 1 0
    outer loop
      vertex 3 3 8
      vertex 20.402 3 13.066
      vertex 20.5192 3 12.6504
    endloop
  endfacet
  facet normal 0 1 0
    outer loop
      vertex 3 3 8
      vertex 20.5192 3 12.6504
      vertex 20.6687 3 12.2452
    endloop
  endfacet
  facet normal 0 1 0
    outer loop
      vertex 3 3 8
      vertex 20.6687 3 12.2452
      vertex 20.8495 3 11.8531
    endloop
  endfacet
  facet normal 0 1 0
    outer loop
      vertex 3 3 8
      vertex 20.8495 3 11.8531
      vertex 21.0605 3 11.4763
    endloop
  endfacet
  facet normal 0 1 0
    outer loop
      vertex 3 3 8
      vertex 21.0605 3 11.4763
      vertex 21.3004 3 11.1172
    endloop
  endfacet
  facet normal 0 1 0
    outer loop
      vertex 3 3 8
      vertex 21.3004 3 11.1172
      vertex 21.5678 3 10.778
    endloop
  endfacet
  facet normal 0 1 0
    outer loop
      vertex 3 3 8
      vertex 21.5678 3 10.778
      vertex 21.8609 3 10.4609
    endloop
  endfacet
  facet normal 0 1 0
    outer loop
      vertex 3 3 8
      vertex 21.8609 3 10.4609
      vertex 22.178 3 10.1678
    endloop
  endfacet
  facet normal 0 1 0
    outer loop
      vertex 3 3 8
      vertex 22.178 3 10.1678
      vertex 22.5172 3 9.90041
    endloop
  endfacet
  facet normal 0 1 0
    outer loop
      vertex 3 3 8
      vertex 22.5172 3 9.90041
      vertex 22.8763 3 9.66048
    endloop
  endfacet
  facet normal 0 1 0
    outer loop
      vertex 3 3 8
      vertex 22.8763 3 9.66048
      vertex 23.2531 3 9.44946
    endloop
  endfacet
  facet normal 0 1 0
    outer loop
      vertex 3 3 8
      vertex 23.2531 3 9.44946
      vertex 23.6452 3 9.26866
    endloop
  endfacet
  facet normal 0 1 0
    outer loop
      vertex 3 3 8
      vertex 23.6452 3 9.26866
      vertex 24.0504 3 9.11919
    endloop
  endfacet
  facet normal 0 1 0
    outer loop
      vertex 3 3 8
      vertex 24.0504 3 9.11919
      vertex 24.466 3 9.00196
    endloop
  endfacet
  facet normal 0 1 0
    outer loop
      vertex 20.402 3 13.066
      vertex 3 3 8
      vertex 3 3 14.3275
    endloop
  endfacet
  facet normal 0 1 0
    outer loop
      vertex 24.8896 3 8.91771
      vertex 3 3 8
      vertex 24.466 3 9.00196
    endloop
  endfacet
  facet normal 0 1 0
    outer loop
      vertex 25.3185 3 8.86695
      vertex 3 3 8
      vertex 24.8896 3 8.91771
    endloop
  endfacet
  facet normal 0 1 0
    outer loop
      vertex 25.75 3 8.85
      vertex 3 3 8
      vertex 25.3185 3 8.86695
    endloop
  endfacet
  facet normal 0 1 0
    outer loop
      vertex 3 3 8
      vertex 25.75 3 8.85
      vertex 48.5 3 8
    endloop
  endfacet
  facet normal 0 0 -1
    outer loop
      vertex 0 87.5 -3
      vertex 51.5 122.5 -3
      vertex 51.5 87.5 -3
    endloop
  endfacet
  facet normal -0 0 -1
    outer loop
      vertex 51.5 122.5 -3
      vertex 0 87.5 -3
      vertex 0 122.5 -3
    endloop
  endfacet
  facet normal 0 -1 0
    outer loop
      vertex 0 87.5 -3
      vertex 51.5 87.5 0
      vertex 0 87.5 0
    endloop
  endfacet
  facet normal 0 -1 -0
    outer loop
      vertex 51.5 87.5 0
      vertex 0 87.5 -3
      vertex 51.5 87.5 -3
    endloop
  endfacet
  facet normal 0 0 -1
    outer loop
      vertex 0 0 -3
      vertex 51.5 35 -3
      vertex 51.5 0 -3
    endloop
  endfacet
  facet normal -0 0 -1
    outer loop
      vertex 51.5 35 -3
      vertex 0 0 -3
      vertex 0 35 -3
    endloop
  endfacet
  facet normal 0 1 -0
    outer loop
      vertex 51.5 35 -3
      vertex 0 35 0
      vertex 51.5 35 0
    endloop
  endfacet
  facet normal 0 1 0
    outer loop
      vertex 0 35 0
      vertex 51.5 35 -3
      vertex 0 35 -3
    endloop
  endfacet
  facet normal -0.117539 0 0.993068
    outer loop
      vertex 26.1815 3 8.86695
      vertex 26.6104 0 8.91771
      vertex 26.6104 3 8.91771
    endloop
  endfacet
  facet normal -0.117539 0 0.993068
    outer loop
      vertex 26.6104 0 8.91771
      vertex 26.1815 3 8.86695
      vertex 26.1815 0 8.86695
    endloop
  endfacet
  facet normal -0.785317 0 0.619094
    outer loop
      vertex 29.9322 0 10.778
      vertex 30.1996 3 11.1172
      vertex 29.9322 3 10.778
    endloop
  endfacet
  facet normal -0.785317 0 0.619094
    outer loop
      vertex 30.1996 3 11.1172
      vertex 29.9322 0 10.778
      vertex 30.1996 0 11.1172
    endloop
  endfacet
  facet normal -0.962455 0 0.271441
    outer loop
      vertex 30.9808 0 12.6504
      vertex 31.098 3 13.066
      vertex 30.9808 3 12.6504
    endloop
  endfacet
  facet normal -0.962455 0 0.271441
    outer loop
      vertex 31.098 3 13.066
      vertex 30.9808 0 12.6504
      vertex 31.098 0 13.066
    endloop
  endfacet
  facet normal 0.619094 0 0.785317
    outer loop
      vertex 22.178 3 10.1678
      vertex 22.5172 0 9.90041
      vertex 22.5172 3 9.90041
    endloop
  endfacet
  facet normal 0.619094 0 0.785317
    outer loop
      vertex 22.5172 0 9.90041
      vertex 22.178 3 10.1678
      vertex 22.178 0 10.1678
    endloop
  endfacet
  facet normal 0.6788 0 0.734323
    outer loop
      vertex 21.8609 3 10.4609
      vertex 22.178 0 10.1678
      vertex 22.178 3 10.1678
    endloop
  endfacet
  facet normal 0.6788 0 0.734323
    outer loop
      vertex 22.178 0 10.1678
      vertex 21.8609 3 10.4609
      vertex 21.8609 0 10.4609
    endloop
  endfacet
  facet normal 0.908143 -0 0.41866
    outer loop
      vertex 20.6687 0 12.2452
      vertex 20.8495 3 11.8531
      vertex 20.6687 3 12.2452
    endloop
  endfacet
  facet normal 0.908143 0 0.41866
    outer loop
      vertex 20.8495 3 11.8531
      vertex 20.6687 0 12.2452
      vertex 20.8495 0 11.8531
    endloop
  endfacet
  facet normal 0.999229 -0 0.0392615
    outer loop
      vertex 20.2509 0 14.3275
      vertex 20.267 3 13.9185
      vertex 20.2509 3 14.3275
    endloop
  endfacet
  facet normal 0.999229 0 0.0392615
    outer loop
      vertex 20.267 3 13.9185
      vertex 20.2509 0 14.3275
      vertex 20.267 0 13.9185
    endloop
  endfacet
  facet normal -0.418659 0 0.908143
    outer loop
      vertex 27.8548 3 9.26866
      vertex 28.2469 0 9.44946
      vertex 28.2469 3 9.44946
    endloop
  endfacet
  facet normal -0.418659 0 0.908143
    outer loop
      vertex 28.2469 0 9.44946
      vertex 27.8548 3 9.26866
      vertex 27.8548 0 9.26866
    endloop
  endfacet
  facet normal -0.619094 0 0.785317
    outer loop
      vertex 28.9828 3 9.90041
      vertex 29.322 0 10.1678
      vertex 29.322 3 10.1678
    endloop
  endfacet
  facet normal -0.619094 0 0.785317
    outer loop
      vertex 29.322 0 10.1678
      vertex 28.9828 3 9.90041
      vertex 28.9828 0 9.90041
    endloop
  endfacet
  facet normal -0.999229 0 0.0392615
    outer loop
      vertex 31.233 0 13.9185
      vertex 31.2491 3 14.3275
      vertex 31.233 3 13.9185
    endloop
  endfacet
  facet normal -0.999229 0 0.0392615
    outer loop
      vertex 31.2491 3 14.3275
      vertex 31.233 0 13.9185
      vertex 31.2491 0 14.3275
    endloop
  endfacet
  facet normal 0.346118 0 0.938191
    outer loop
      vertex 23.6452 3 9.26866
      vertex 24.0504 0 9.11919
      vertex 24.0504 3 9.11919
    endloop
  endfacet
  facet normal 0.346118 0 0.938191
    outer loop
      vertex 24.0504 0 9.11919
      vertex 23.6452 3 9.26866
      vertex 23.6452 0 9.26866
    endloop
  endfacet
  facet normal 0.271442 0 0.962455
    outer loop
      vertex 24.0504 3 9.11919
      vertex 24.466 0 9.00196
      vertex 24.466 3 9.00196
    endloop
  endfacet
  facet normal 0.271442 0 0.962455
    outer loop
      vertex 24.466 0 9.00196
      vertex 24.0504 3 9.11919
      vertex 24.0504 0 9.11919
    endloop
  endfacet
  facet normal -0.195089 0 0.980786
    outer loop
      vertex 26.6104 3 8.91771
      vertex 27.0339 0 9.00196
      vertex 27.0339 3 9.00196
    endloop
  endfacet
  facet normal -0.195089 0 0.980786
    outer loop
      vertex 27.0339 0 9.00196
      vertex 26.6104 3 8.91771
      vertex 26.6104 0 8.91771
    endloop
  endfacet
  facet normal -0.271441 0 0.962455
    outer loop
      vertex 27.0339 3 9.00196
      vertex 27.4496 0 9.11919
      vertex 27.4496 3 9.11919
    endloop
  endfacet
  facet normal -0.271441 0 0.962455
    outer loop
      vertex 27.4496 0 9.11919
      vertex 27.0339 3 9.00196
      vertex 27.0339 0 9.00196
    endloop
  endfacet
  facet normal -0.6788 0 0.734323
    outer loop
      vertex 29.322 3 10.1678
      vertex 29.6391 0 10.4609
      vertex 29.6391 3 10.4609
    endloop
  endfacet
  facet normal -0.6788 0 0.734323
    outer loop
      vertex 29.6391 0 10.4609
      vertex 29.322 3 10.1678
      vertex 29.322 0 10.1678
    endloop
  endfacet
  facet normal -0.734324 0 0.678799
    outer loop
      vertex 29.6391 0 10.4609
      vertex 29.9322 3 10.778
      vertex 29.6391 3 10.4609
    endloop
  endfacet
  facet normal -0.734324 0 0.678799
    outer loop
      vertex 29.9322 3 10.778
      vertex 29.6391 0 10.4609
      vertex 29.9322 0 10.778
    endloop
  endfacet
  facet normal -0.488622 0 0.872495
    outer loop
      vertex 28.2469 3 9.44946
      vertex 28.6237 0 9.66048
      vertex 28.6237 3 9.66048
    endloop
  endfacet
  facet normal -0.488622 0 0.872495
    outer loop
      vertex 28.6237 0 9.66048
      vertex 28.2469 3 9.44946
      vertex 28.2469 0 9.44946
    endloop
  endfacet
  facet normal -0.555569 0 0.83147
    outer loop
      vertex 28.6237 3 9.66048
      vertex 28.9828 0 9.90041
      vertex 28.9828 3 9.90041
    endloop
  endfacet
  facet normal -0.555569 0 0.83147
    outer loop
      vertex 28.9828 0 9.90041
      vertex 28.6237 3 9.66048
      vertex 28.6237 0 9.66048
    endloop
  endfacet
  facet normal -0.831468 0 0.555573
    outer loop
      vertex 30.1996 0 11.1172
      vertex 30.4395 3 11.4763
      vertex 30.1996 3 11.1172
    endloop
  endfacet
  facet normal -0.831468 0 0.555573
    outer loop
      vertex 30.4395 3 11.4763
      vertex 30.1996 0 11.1172
      vertex 30.4395 0 11.4763
    endloop
  endfacet
  facet normal -0.938192 0 0.346116
    outer loop
      vertex 30.8313 0 12.2452
      vertex 30.9808 3 12.6504
      vertex 30.8313 3 12.2452
    endloop
  endfacet
  facet normal -0.938192 0 0.346116
    outer loop
      vertex 30.9808 3 12.6504
      vertex 30.8313 0 12.2452
      vertex 30.9808 0 12.6504
    endloop
  endfacet
  facet normal -0.980785 0 0.19509
    outer loop
      vertex 31.098 0 13.066
      vertex 31.1823 3 13.4896
      vertex 31.098 3 13.066
    endloop
  endfacet
  facet normal -0.980785 0 0.19509
    outer loop
      vertex 31.1823 3 13.4896
      vertex 31.098 0 13.066
      vertex 31.1823 0 13.4896
    endloop
  endfacet
  facet normal -0.993069 0 0.117535
    outer loop
      vertex 31.1823 0 13.4896
      vertex 31.233 3 13.9185
      vertex 31.1823 3 13.4896
    endloop
  endfacet
  facet normal -0.993069 0 0.117535
    outer loop
      vertex 31.233 3 13.9185
      vertex 31.1823 0 13.4896
      vertex 31.233 0 13.9185
    endloop
  endfacet
  facet normal 0.555571 0 0.831469
    outer loop
      vertex 22.5172 3 9.90041
      vertex 22.8763 0 9.66048
      vertex 22.8763 3 9.66048
    endloop
  endfacet
  facet normal 0.555571 0 0.831469
    outer loop
      vertex 22.8763 0 9.66048
      vertex 22.5172 3 9.90041
      vertex 22.5172 0 9.90041
    endloop
  endfacet
  facet normal 0.48862 0 0.872496
    outer loop
      vertex 22.8763 3 9.66048
      vertex 23.2531 0 9.44946
      vertex 23.2531 3 9.44946
    endloop
  endfacet
  facet normal 0.48862 0 0.872496
    outer loop
      vertex 23.2531 0 9.44946
      vertex 22.8763 3 9.66048
      vertex 22.8763 0 9.66048
    endloop
  endfacet
  facet normal 0.418659 0 0.908143
    outer loop
      vertex 23.2531 3 9.44946
      vertex 23.6452 0 9.26866
      vertex 23.6452 3 9.26866
    endloop
  endfacet
  facet normal 0.418659 0 0.908143
    outer loop
      vertex 23.6452 0 9.26866
      vertex 23.2531 3 9.44946
      vertex 23.2531 0 9.44946
    endloop
  endfacet
  facet normal 0.195088 0 0.980786
    outer loop
      vertex 24.466 3 9.00196
      vertex 24.8896 0 8.91771
      vertex 24.8896 3 8.91771
    endloop
  endfacet
  facet normal 0.195088 0 0.980786
    outer loop
      vertex 24.8896 0 8.91771
      vertex 24.466 3 9.00196
      vertex 24.466 0 9.00196
    endloop
  endfacet
  facet normal 0.0392592 0 0.999229
    outer loop
      vertex 25.3185 3 8.86695
      vertex 25.75 0 8.85
      vertex 25.75 3 8.85
    endloop
  endfacet
  facet normal 0.0392592 0 0.999229
    outer loop
      vertex 25.75 0 8.85
      vertex 25.3185 3 8.86695
      vertex 25.3185 0 8.86695
    endloop
  endfacet
  facet normal -0.0392593 0 0.999229
    outer loop
      vertex 25.75 3 8.85
      vertex 26.1815 0 8.86695
      vertex 26.1815 3 8.86695
    endloop
  endfacet
  facet normal -0.0392593 0 0.999229
    outer loop
      vertex 26.1815 0 8.86695
      vertex 25.75 3 8.85
      vertex 25.75 0 8.85
    endloop
  endfacet
  facet normal 0.734324 -0 0.678799
    outer loop
      vertex 21.5678 0 10.778
      vertex 21.8609 3 10.4609
      vertex 21.5678 3 10.778
    endloop
  endfacet
  facet normal 0.734324 0 0.678799
    outer loop
      vertex 21.8609 3 10.4609
      vertex 21.5678 0 10.778
      vertex 21.8609 0 10.4609
    endloop
  endfacet
  facet normal 0.872497 -0 0.488619
    outer loop
      vertex 20.8495 0 11.8531
      vertex 21.0605 3 11.4763
      vertex 20.8495 3 11.8531
    endloop
  endfacet
  facet normal 0.872497 0 0.488619
    outer loop
      vertex 21.0605 3 11.4763
      vertex 20.8495 0 11.8531
      vertex 21.0605 0 11.4763
    endloop
  endfacet
  facet normal 0.962456 -0 0.271437
    outer loop
      vertex 20.402 0 13.066
      vertex 20.5192 3 12.6504
      vertex 20.402 3 13.066
    endloop
  endfacet
  facet normal 0.962456 0 0.271437
    outer loop
      vertex 20.5192 3 12.6504
      vertex 20.402 0 13.066
      vertex 20.5192 0 12.6504
    endloop
  endfacet
  facet normal 0.993068 -0 0.117539
    outer loop
      vertex 20.267 0 13.9185
      vertex 20.3177 3 13.4896
      vertex 20.267 3 13.9185
    endloop
  endfacet
  facet normal 0.993068 0 0.117539
    outer loop
      vertex 20.3177 3 13.4896
      vertex 20.267 0 13.9185
      vertex 20.3177 0 13.4896
    endloop
  endfacet
  facet normal 0.980785 -0 0.19509
    outer loop
      vertex 20.3177 0 13.4896
      vertex 20.402 3 13.066
      vertex 20.3177 3 13.4896
    endloop
  endfacet
  facet normal 0.980785 0 0.19509
    outer loop
      vertex 20.402 3 13.066
      vertex 20.3177 0 13.4896
      vertex 20.402 0 13.066
    endloop
  endfacet
  facet normal -0.346118 0 0.938191
    outer loop
      vertex 27.4496 3 9.11919
      vertex 27.8548 0 9.26866
      vertex 27.8548 3 9.26866
    endloop
  endfacet
  facet normal -0.346118 0 0.938191
    outer loop
      vertex 27.8548 0 9.26866
      vertex 27.4496 3 9.11919
      vertex 27.4496 0 9.11919
    endloop
  endfacet
  facet normal -0.872497 0 0.488619
    outer loop
      vertex 30.4395 0 11.4763
      vertex 30.6505 3 11.8531
      vertex 30.4395 3 11.4763
    endloop
  endfacet
  facet normal -0.872497 0 0.488619
    outer loop
      vertex 30.6505 3 11.8531
      vertex 30.4395 0 11.4763
      vertex 30.6505 0 11.8531
    endloop
  endfacet
  facet normal -0.908143 0 0.41866
    outer loop
      vertex 30.6505 0 11.8531
      vertex 30.8313 3 12.2452
      vertex 30.6505 3 11.8531
    endloop
  endfacet
  facet normal -0.908143 0 0.41866
    outer loop
      vertex 30.8313 3 12.2452
      vertex 30.6505 0 11.8531
      vertex 30.8313 0 12.2452
    endloop
  endfacet
  facet normal 0.11754 0 0.993068
    outer loop
      vertex 24.8896 3 8.91771
      vertex 25.3185 0 8.86695
      vertex 25.3185 3 8.86695
    endloop
  endfacet
  facet normal 0.11754 0 0.993068
    outer loop
      vertex 25.3185 0 8.86695
      vertex 24.8896 3 8.91771
      vertex 24.8896 0 8.91771
    endloop
  endfacet
  facet normal 0.831468 -0 0.555573
    outer loop
      vertex 21.0605 0 11.4763
      vertex 21.3004 3 11.1172
      vertex 21.0605 3 11.4763
    endloop
  endfacet
  facet normal 0.831468 0 0.555573
    outer loop
      vertex 21.3004 3 11.1172
      vertex 21.0605 0 11.4763
      vertex 21.3004 0 11.1172
    endloop
  endfacet
  facet normal 0.785317 -0 0.619094
    outer loop
      vertex 21.3004 0 11.1172
      vertex 21.5678 3 10.778
      vertex 21.3004 3 11.1172
    endloop
  endfacet
  facet normal 0.785317 0 0.619094
    outer loop
      vertex 21.5678 3 10.778
      vertex 21.3004 0 11.1172
      vertex 21.5678 0 10.778
    endloop
  endfacet
  facet normal 0.93819 -0 0.34612
    outer loop
      vertex 20.5192 0 12.6504
      vertex 20.6687 3 12.2452
      vertex 20.5192 3 12.6504
    endloop
  endfacet
  facet normal 0.93819 0 0.34612
    outer loop
      vertex 20.6687 3 12.2452
      vertex 20.5192 0 12.6504
      vertex 20.6687 0 12.2452
    endloop
  endfacet
endsolid OpenSCAD_Model
