solid OpenSCAD_Model
  facet normal 0.62932 0.777146 -0
    outer loop
      vertex 3.34565 3.71572 -2.1
      vertex 2.93893 4.04508 2.1
      vertex 3.34565 3.71572 2.1
    endloop
  endfacet
  facet normal 0.62932 0.777146 0
    outer loop
      vertex 2.93893 4.04508 2.1
      vertex 3.34565 3.71572 -2.1
      vertex 2.93893 4.04508 -2.1
    endloop
  endfacet
  facet normal -0.258819 0.965926 0
    outer loop
      vertex -1.03956 4.89074 -2.1
      vertex -1.54508 4.75528 2.1
      vertex -1.03956 4.89074 2.1
    endloop
  endfacet
  facet normal -0.258819 0.965926 0
    outer loop
      vertex -1.54508 4.75528 2.1
      vertex -1.03956 4.89074 -2.1
      vertex -1.54508 4.75528 -2.1
    endloop
  endfacet
  facet normal -0.891006 0.453991 0
    outer loop
      vertex -4.56773 2.03368 -2.1
      vertex -4.33013 2.5 2.1
      vertex -4.33013 2.5 -2.1
    endloop
  endfacet
  facet normal -0.891006 0.453991 0
    outer loop
      vertex -4.33013 2.5 2.1
      vertex -4.56773 2.03368 -2.1
      vertex -4.56773 2.03368 2.1
    endloop
  endfacet
  facet normal 0.93358 -0.358368 0
    outer loop
      vertex 4.56773 -2.03368 2.1
      vertex 4.75528 -1.54508 -2.1
      vertex 4.75528 -1.54508 2.1
    endloop
  endfacet
  facet normal 0.93358 -0.358368 0
    outer loop
      vertex 4.75528 -1.54508 -2.1
      vertex 4.56773 -2.03368 2.1
      vertex 4.56773 -2.03368 -2.1
    endloop
  endfacet
  facet normal -0.45399 -0.891007 0
    outer loop
      vertex -2.5 -4.33013 -2.1
      vertex -2.03368 -4.56773 2.1
      vertex -2.5 -4.33013 2.1
    endloop
  endfacet
  facet normal -0.45399 -0.891007 -0
    outer loop
      vertex -2.03368 -4.56773 2.1
      vertex -2.5 -4.33013 -2.1
      vertex -2.03368 -4.56773 -2.1
    endloop
  endfacet
  facet normal 0.93358 0.358368 0
    outer loop
      vertex 4.75528 1.54508 2.1
      vertex 4.56773 2.03368 -2.1
      vertex 4.56773 2.03368 2.1
    endloop
  endfacet
  facet normal 0.93358 0.358368 0
    outer loop
      vertex 4.56773 2.03368 -2.1
      vertex 4.75528 1.54508 2.1
      vertex 4.75528 1.54508 -2.1
    endloop
  endfacet
  facet normal 0.891006 0.453991 0
    outer loop
      vertex 4.56773 2.03368 2.1
      vertex 4.33013 2.5 -2.1
      vertex 4.33013 2.5 2.1
    endloop
  endfacet
  facet normal 0.891006 0.453991 0
    outer loop
      vertex 4.33013 2.5 -2.1
      vertex 4.56773 2.03368 2.1
      vertex 4.56773 2.03368 -2.1
    endloop
  endfacet
  facet normal 0.358368 0.93358 -0
    outer loop
      vertex 2.03368 4.56773 -2.1
      vertex 1.54508 4.75528 2.1
      vertex 2.03368 4.56773 2.1
    endloop
  endfacet
  facet normal 0.358368 0.93358 0
    outer loop
      vertex 1.54508 4.75528 2.1
      vertex 2.03368 4.56773 -2.1
      vertex 1.54508 4.75528 -2.1
    endloop
  endfacet
  facet normal 0.258819 0.965926 -0
    outer loop
      vertex 1.54508 4.75528 -2.1
      vertex 1.03956 4.89074 2.1
      vertex 1.54508 4.75528 2.1
    endloop
  endfacet
  facet normal 0.258819 0.965926 0
    outer loop
      vertex 1.03956 4.89074 2.1
      vertex 1.54508 4.75528 -2.1
      vertex 1.03956 4.89074 -2.1
    endloop
  endfacet
  facet normal -0.987688 0.156434 0
    outer loop
      vertex -4.97261 0.522642 -2.1
      vertex -4.89074 1.03956 2.1
      vertex -4.89074 1.03956 -2.1
    endloop
  endfacet
  facet normal -0.987688 0.156434 0
    outer loop
      vertex -4.89074 1.03956 2.1
      vertex -4.97261 0.522642 -2.1
      vertex -4.97261 0.522642 2.1
    endloop
  endfacet
  facet normal -0.707107 0.707107 0
    outer loop
      vertex -3.71572 3.34565 -2.1
      vertex -3.34565 3.71572 2.1
      vertex -3.34565 3.71572 -2.1
    endloop
  endfacet
  facet normal -0.707107 0.707107 0
    outer loop
      vertex -3.34565 3.71572 2.1
      vertex -3.71572 3.34565 -2.1
      vertex -3.71572 3.34565 2.1
    endloop
  endfacet
  facet normal -0.156434 0.987688 0
    outer loop
      vertex -0.522642 4.97261 -2.1
      vertex -1.03956 4.89074 2.1
      vertex -0.522642 4.97261 2.1
    endloop
  endfacet
  facet normal -0.156434 0.987688 0
    outer loop
      vertex -1.03956 4.89074 2.1
      vertex -0.522642 4.97261 -2.1
      vertex -1.03956 4.89074 -2.1
    endloop
  endfacet
  facet normal 0.998629 -0.0523377 0
    outer loop
      vertex 4.97261 -0.522642 2.1
      vertex 5 0 -2.1
      vertex 5 0 2.1
    endloop
  endfacet
  facet normal 0.998629 -0.0523377 0
    outer loop
      vertex 5 0 -2.1
      vertex 4.97261 -0.522642 2.1
      vertex 4.97261 -0.522642 -2.1
    endloop
  endfacet
  facet normal 0.777146 -0.62932 0
    outer loop
      vertex 3.71572 -3.34565 2.1
      vertex 4.04508 -2.93893 -2.1
      vertex 4.04508 -2.93893 2.1
    endloop
  endfacet
  facet normal 0.777146 -0.62932 0
    outer loop
      vertex 4.04508 -2.93893 -2.1
      vertex 3.71572 -3.34565 2.1
      vertex 3.71572 -3.34565 -2.1
    endloop
  endfacet
  facet normal -0.156434 -0.987688 0
    outer loop
      vertex -1.03956 -4.89074 -2.1
      vertex -0.522642 -4.97261 2.1
      vertex -1.03956 -4.89074 2.1
    endloop
  endfacet
  facet normal -0.156434 -0.987688 -0
    outer loop
      vertex -0.522642 -4.97261 2.1
      vertex -1.03956 -4.89074 -2.1
      vertex -0.522642 -4.97261 -2.1
    endloop
  endfacet
  facet normal -0.707107 -0.707107 0
    outer loop
      vertex -3.34565 -3.71572 -2.1
      vertex -3.71572 -3.34565 2.1
      vertex -3.71572 -3.34565 -2.1
    endloop
  endfacet
  facet normal -0.707107 -0.707107 0
    outer loop
      vertex -3.71572 -3.34565 2.1
      vertex -3.34565 -3.71572 -2.1
      vertex -3.34565 -3.71572 2.1
    endloop
  endfacet
  facet normal 0 0 -1
    outer loop
      vertex 3.1 0 -2.1
      vertex 5 0 -2.1
      vertex 4.97261 -0.522642 -2.1
    endloop
  endfacet
  facet normal 0 0 -1
    outer loop
      vertex 3.08302 -0.324038 -2.1
      vertex 4.97261 -0.522642 -2.1
      vertex 4.89074 -1.03956 -2.1
    endloop
  endfacet
  facet normal 0 0 -1
    outer loop
      vertex 5 0 -2.1
      vertex 3.1 0 -2.1
      vertex 4.97261 0.522642 -2.1
    endloop
  endfacet
  facet normal 0 0 -1
    outer loop
      vertex 3.03226 -0.644526 -2.1
      vertex 4.89074 -1.03956 -2.1
      vertex 4.75528 -1.54508 -2.1
    endloop
  endfacet
  facet normal 0 0 -1
    outer loop
      vertex 3.08302 0.324038 -2.1
      vertex 4.97261 0.522642 -2.1
      vertex 3.1 0 -2.1
    endloop
  endfacet
  facet normal 0 0 -1
    outer loop
      vertex 2.94827 -0.957952 -2.1
      vertex 4.75528 -1.54508 -2.1
      vertex 4.56773 -2.03368 -2.1
    endloop
  endfacet
  facet normal -0 0 -1
    outer loop
      vertex 4.97261 0.522642 -2.1
      vertex 3.08302 0.324038 -2.1
      vertex 4.89074 1.03956 -2.1
    endloop
  endfacet
  facet normal 0 0 -1
    outer loop
      vertex 2.83199 -1.26088 -2.1
      vertex 4.56773 -2.03368 -2.1
      vertex 4.33013 -2.5 -2.1
    endloop
  endfacet
  facet normal 0 0 -1
    outer loop
      vertex 3.03226 0.644526 -2.1
      vertex 4.89074 1.03956 -2.1
      vertex 3.08302 0.324038 -2.1
    endloop
  endfacet
  facet normal 0 0 -1
    outer loop
      vertex 2.68468 -1.55 -2.1
      vertex 4.33013 -2.5 -2.1
      vertex 4.04508 -2.93893 -2.1
    endloop
  endfacet
  facet normal -0 0 -1
    outer loop
      vertex 4.89074 1.03956 -2.1
      vertex 3.03226 0.644526 -2.1
      vertex 4.75528 1.54508 -2.1
    endloop
  endfacet
  facet normal 0 0 -1
    outer loop
      vertex 2.50795 -1.82213 -2.1
      vertex 4.04508 -2.93893 -2.1
      vertex 3.71572 -3.34565 -2.1
    endloop
  endfacet
  facet normal 0 0 -1
    outer loop
      vertex 2.94827 0.957952 -2.1
      vertex 4.75528 1.54508 -2.1
      vertex 3.03226 0.644526 -2.1
    endloop
  endfacet
  facet normal 0 0 -1
    outer loop
      vertex 2.30375 -2.0743 -2.1
      vertex 3.71572 -3.34565 -2.1
      vertex 3.34565 -3.71572 -2.1
    endloop
  endfacet
  facet normal -0 0 -1
    outer loop
      vertex 4.75528 1.54508 -2.1
      vertex 2.94827 0.957952 -2.1
      vertex 4.56773 2.03368 -2.1
    endloop
  endfacet
  facet normal 0 0 -1
    outer loop
      vertex 2.83199 1.26088 -2.1
      vertex 4.56773 2.03368 -2.1
      vertex 2.94827 0.957952 -2.1
    endloop
  endfacet
  facet normal 0 0 -1
    outer loop
      vertex 4.97261 -0.522642 -2.1
      vertex 3.08302 -0.324038 -2.1
      vertex 3.1 0 -2.1
    endloop
  endfacet
  facet normal 0 0 -1
    outer loop
      vertex 4.89074 -1.03956 -2.1
      vertex 3.03226 -0.644526 -2.1
      vertex 3.08302 -0.324038 -2.1
    endloop
  endfacet
  facet normal 0 0 -1
    outer loop
      vertex 4.75528 -1.54508 -2.1
      vertex 2.94827 -0.957952 -2.1
      vertex 3.03226 -0.644526 -2.1
    endloop
  endfacet
  facet normal 0 0 -1
    outer loop
      vertex 2.0743 -2.30375 -2.1
      vertex 3.34565 -3.71572 -2.1
      vertex 2.93893 -4.04508 -2.1
    endloop
  endfacet
  facet normal 0 0 -1
    outer loop
      vertex 4.56773 -2.03368 -2.1
      vertex 2.83199 -1.26088 -2.1
      vertex 2.94827 -0.957952 -2.1
    endloop
  endfacet
  facet normal 0 0 -1
    outer loop
      vertex 4.33013 -2.5 -2.1
      vertex 2.68468 -1.55 -2.1
      vertex 2.83199 -1.26088 -2.1
    endloop
  endfacet
  facet normal 0 0 -1
    outer loop
      vertex 4.04508 -2.93893 -2.1
      vertex 2.50795 -1.82213 -2.1
      vertex 2.68468 -1.55 -2.1
    endloop
  endfacet
  facet normal 0 0 -1
    outer loop
      vertex 1.82213 -2.50795 -2.1
      vertex 2.93893 -4.04508 -2.1
      vertex 2.5 -4.33013 -2.1
    endloop
  endfacet
  facet normal 0 0 -1
    outer loop
      vertex 3.71572 -3.34565 -2.1
      vertex 2.30375 -2.0743 -2.1
      vertex 2.50795 -1.82213 -2.1
    endloop
  endfacet
  facet normal 0 0 -1
    outer loop
      vertex 3.34565 -3.71572 -2.1
      vertex 2.0743 -2.30375 -2.1
      vertex 2.30375 -2.0743 -2.1
    endloop
  endfacet
  facet normal 0 0 -1
    outer loop
      vertex 1.55 -2.68468 -2.1
      vertex 2.5 -4.33013 -2.1
      vertex 2.03368 -4.56773 -2.1
    endloop
  endfacet
  facet normal 0 0 -1
    outer loop
      vertex 2.93893 -4.04508 -2.1
      vertex 1.82213 -2.50795 -2.1
      vertex 2.0743 -2.30375 -2.1
    endloop
  endfacet
  facet normal 0 0 -1
    outer loop
      vertex 2.5 -4.33013 -2.1
      vertex 1.55 -2.68468 -2.1
      vertex 1.82213 -2.50795 -2.1
    endloop
  endfacet
  facet normal 0 0 -1
    outer loop
      vertex 1.26088 -2.83199 -2.1
      vertex 2.03368 -4.56773 -2.1
      vertex 1.54508 -4.75528 -2.1
    endloop
  endfacet
  facet normal 0 0 -1
    outer loop
      vertex 2.03368 -4.56773 -2.1
      vertex 1.26088 -2.83199 -2.1
      vertex 1.55 -2.68468 -2.1
    endloop
  endfacet
  facet normal 0 0 -1
    outer loop
      vertex 0.957952 -2.94827 -2.1
      vertex 1.54508 -4.75528 -2.1
      vertex 1.03956 -4.89074 -2.1
    endloop
  endfacet
  facet normal 0 0 -1
    outer loop
      vertex 1.54508 -4.75528 -2.1
      vertex 0.957952 -2.94827 -2.1
      vertex 1.26088 -2.83199 -2.1
    endloop
  endfacet
  facet normal 0 0 -1
    outer loop
      vertex 1.03956 -4.89074 -2.1
      vertex 0.644526 -3.03226 -2.1
      vertex 0.957952 -2.94827 -2.1
    endloop
  endfacet
  facet normal 0 0 -1
    outer loop
      vertex 0.522642 -4.97261 -2.1
      vertex 0.644526 -3.03226 -2.1
      vertex 1.03956 -4.89074 -2.1
    endloop
  endfacet
  facet normal 0 0 -1
    outer loop
      vertex 0.522642 -4.97261 -2.1
      vertex 0.324038 -3.08302 -2.1
      vertex 0.644526 -3.03226 -2.1
    endloop
  endfacet
  facet normal 0 0 -1
    outer loop
      vertex 0 -5 -2.1
      vertex 0.324038 -3.08302 -2.1
      vertex 0.522642 -4.97261 -2.1
    endloop
  endfacet
  facet normal 0 0 -1
    outer loop
      vertex 0 -5 -2.1
      vertex 0 -3.1 -2.1
      vertex 0.324038 -3.08302 -2.1
    endloop
  endfacet
  facet normal 0 0 -1
    outer loop
      vertex 0 -5 -2.1
      vertex -0.324038 -3.08302 -2.1
      vertex 0 -3.1 -2.1
    endloop
  endfacet
  facet normal 0 0 -1
    outer loop
      vertex -0.522642 -4.97261 -2.1
      vertex -0.324038 -3.08302 -2.1
      vertex 0 -5 -2.1
    endloop
  endfacet
  facet normal 0 0 -1
    outer loop
      vertex -0.522642 -4.97261 -2.1
      vertex -0.644526 -3.03226 -2.1
      vertex -0.324038 -3.08302 -2.1
    endloop
  endfacet
  facet normal 0 0 -1
    outer loop
      vertex -1.03956 -4.89074 -2.1
      vertex -0.644526 -3.03226 -2.1
      vertex -0.522642 -4.97261 -2.1
    endloop
  endfacet
  facet normal -0 0 -1
    outer loop
      vertex -0.644526 -3.03226 -2.1
      vertex -1.03956 -4.89074 -2.1
      vertex -0.957952 -2.94827 -2.1
    endloop
  endfacet
  facet normal 0 0 -1
    outer loop
      vertex -1.54508 -4.75528 -2.1
      vertex -0.957952 -2.94827 -2.1
      vertex -1.03956 -4.89074 -2.1
    endloop
  endfacet
  facet normal -0 0 -1
    outer loop
      vertex -0.957952 -2.94827 -2.1
      vertex -1.54508 -4.75528 -2.1
      vertex -1.26088 -2.83199 -2.1
    endloop
  endfacet
  facet normal 0 0 -1
    outer loop
      vertex -2.03368 -4.56773 -2.1
      vertex -1.26088 -2.83199 -2.1
      vertex -1.54508 -4.75528 -2.1
    endloop
  endfacet
  facet normal -0 0 -1
    outer loop
      vertex -1.26088 -2.83199 -2.1
      vertex -2.03368 -4.56773 -2.1
      vertex -1.55 -2.68468 -2.1
    endloop
  endfacet
  facet normal 0 0 -1
    outer loop
      vertex -2.5 -4.33013 -2.1
      vertex -1.55 -2.68468 -2.1
      vertex -2.03368 -4.56773 -2.1
    endloop
  endfacet
  facet normal -0 0 -1
    outer loop
      vertex -1.55 -2.68468 -2.1
      vertex -2.5 -4.33013 -2.1
      vertex -1.82213 -2.50795 -2.1
    endloop
  endfacet
  facet normal 0 0 -1
    outer loop
      vertex -2.93893 -4.04508 -2.1
      vertex -1.82213 -2.50795 -2.1
      vertex -2.5 -4.33013 -2.1
    endloop
  endfacet
  facet normal -0 0 -1
    outer loop
      vertex -1.82213 -2.50795 -2.1
      vertex -2.93893 -4.04508 -2.1
      vertex -2.0743 -2.30375 -2.1
    endloop
  endfacet
  facet normal 0 0 -1
    outer loop
      vertex -3.34565 -3.71572 -2.1
      vertex -2.0743 -2.30375 -2.1
      vertex -2.93893 -4.04508 -2.1
    endloop
  endfacet
  facet normal -0 0 -1
    outer loop
      vertex -2.0743 -2.30375 -2.1
      vertex -3.34565 -3.71572 -2.1
      vertex -2.30375 -2.0743 -2.1
    endloop
  endfacet
  facet normal 0 0 -1
    outer loop
      vertex -3.71572 -3.34565 -2.1
      vertex -2.30375 -2.0743 -2.1
      vertex -3.34565 -3.71572 -2.1
    endloop
  endfacet
  facet normal -0 0 -1
    outer loop
      vertex -2.30375 -2.0743 -2.1
      vertex -3.71572 -3.34565 -2.1
      vertex -2.50795 -1.82213 -2.1
    endloop
  endfacet
  facet normal 0 0 -1
    outer loop
      vertex -4.04508 -2.93893 -2.1
      vertex -2.50795 -1.82213 -2.1
      vertex -3.71572 -3.34565 -2.1
    endloop
  endfacet
  facet normal -0 0 -1
    outer loop
      vertex -2.50795 -1.82213 -2.1
      vertex -4.04508 -2.93893 -2.1
      vertex -2.68468 -1.55 -2.1
    endloop
  endfacet
  facet normal 0 0 -1
    outer loop
      vertex -4.33013 -2.5 -2.1
      vertex -2.68468 -1.55 -2.1
      vertex -4.04508 -2.93893 -2.1
    endloop
  endfacet
  facet normal -0 0 -1
    outer loop
      vertex -2.68468 -1.55 -2.1
      vertex -4.33013 -2.5 -2.1
      vertex -2.83199 -1.26088 -2.1
    endloop
  endfacet
  facet normal 0 0 -1
    outer loop
      vertex -4.56773 -2.03368 -2.1
      vertex -2.83199 -1.26088 -2.1
      vertex -4.33013 -2.5 -2.1
    endloop
  endfacet
  facet normal -0 0 -1
    outer loop
      vertex 4.56773 2.03368 -2.1
      vertex 2.83199 1.26088 -2.1
      vertex 4.33013 2.5 -2.1
    endloop
  endfacet
  facet normal 0 0 -1
    outer loop
      vertex 2.68468 1.55 -2.1
      vertex 4.33013 2.5 -2.1
      vertex 2.83199 1.26088 -2.1
    endloop
  endfacet
  facet normal -0 0 -1
    outer loop
      vertex 4.33013 2.5 -2.1
      vertex 2.68468 1.55 -2.1
      vertex 4.04508 2.93893 -2.1
    endloop
  endfacet
  facet normal 0 0 -1
    outer loop
      vertex 2.50795 1.82213 -2.1
      vertex 4.04508 2.93893 -2.1
      vertex 2.68468 1.55 -2.1
    endloop
  endfacet
  facet normal -0 0 -1
    outer loop
      vertex 4.04508 2.93893 -2.1
      vertex 2.50795 1.82213 -2.1
      vertex 3.71572 3.34565 -2.1
    endloop
  endfacet
  facet normal 0 0 -1
    outer loop
      vertex 2.30375 2.0743 -2.1
      vertex 3.71572 3.34565 -2.1
      vertex 2.50795 1.82213 -2.1
    endloop
  endfacet
  facet normal -0 0 -1
    outer loop
      vertex 3.71572 3.34565 -2.1
      vertex 2.30375 2.0743 -2.1
      vertex 3.34565 3.71572 -2.1
    endloop
  endfacet
  facet normal 0 0 -1
    outer loop
      vertex 2.0743 2.30375 -2.1
      vertex 3.34565 3.71572 -2.1
      vertex 2.30375 2.0743 -2.1
    endloop
  endfacet
  facet normal -0 0 -1
    outer loop
      vertex 3.34565 3.71572 -2.1
      vertex 2.0743 2.30375 -2.1
      vertex 2.93893 4.04508 -2.1
    endloop
  endfacet
  facet normal 0 0 -1
    outer loop
      vertex 1.82213 2.50795 -2.1
      vertex 2.93893 4.04508 -2.1
      vertex 2.0743 2.30375 -2.1
    endloop
  endfacet
  facet normal -0 0 -1
    outer loop
      vertex 2.93893 4.04508 -2.1
      vertex 1.82213 2.50795 -2.1
      vertex 2.5 4.33013 -2.1
    endloop
  endfacet
  facet normal 0 0 -1
    outer loop
      vertex 1.55 2.68468 -2.1
      vertex 2.5 4.33013 -2.1
      vertex 1.82213 2.50795 -2.1
    endloop
  endfacet
  facet normal -0 0 -1
    outer loop
      vertex 2.5 4.33013 -2.1
      vertex 1.55 2.68468 -2.1
      vertex 2.03368 4.56773 -2.1
    endloop
  endfacet
  facet normal 0 0 -1
    outer loop
      vertex 1.26088 2.83199 -2.1
      vertex 2.03368 4.56773 -2.1
      vertex 1.55 2.68468 -2.1
    endloop
  endfacet
  facet normal -0 0 -1
    outer loop
      vertex 2.03368 4.56773 -2.1
      vertex 1.26088 2.83199 -2.1
      vertex 1.54508 4.75528 -2.1
    endloop
  endfacet
  facet normal 0 0 -1
    outer loop
      vertex 0.957952 2.94827 -2.1
      vertex 1.54508 4.75528 -2.1
      vertex 1.26088 2.83199 -2.1
    endloop
  endfacet
  facet normal -0 0 -1
    outer loop
      vertex 1.54508 4.75528 -2.1
      vertex 0.957952 2.94827 -2.1
      vertex 1.03956 4.89074 -2.1
    endloop
  endfacet
  facet normal 0 0 -1
    outer loop
      vertex 0.644526 3.03226 -2.1
      vertex 1.03956 4.89074 -2.1
      vertex 0.957952 2.94827 -2.1
    endloop
  endfacet
  facet normal 0 0 -1
    outer loop
      vertex 0.644526 3.03226 -2.1
      vertex 0.522642 4.97261 -2.1
      vertex 1.03956 4.89074 -2.1
    endloop
  endfacet
  facet normal 0 0 -1
    outer loop
      vertex 0.324038 3.08302 -2.1
      vertex 0.522642 4.97261 -2.1
      vertex 0.644526 3.03226 -2.1
    endloop
  endfacet
  facet normal 0 0 -1
    outer loop
      vertex 0 3.1 -2.1
      vertex 0.522642 4.97261 -2.1
      vertex 0.324038 3.08302 -2.1
    endloop
  endfacet
  facet normal 0 0 -1
    outer loop
      vertex 0 3.1 -2.1
      vertex 0 5 -2.1
      vertex 0.522642 4.97261 -2.1
    endloop
  endfacet
  facet normal 0 0 -1
    outer loop
      vertex -0.324038 3.08302 -2.1
      vertex 0 5 -2.1
      vertex 0 3.1 -2.1
    endloop
  endfacet
  facet normal 0 0 -1
    outer loop
      vertex -0.324038 3.08302 -2.1
      vertex -0.522642 4.97261 -2.1
      vertex 0 5 -2.1
    endloop
  endfacet
  facet normal 0 0 -1
    outer loop
      vertex -0.644526 3.03226 -2.1
      vertex -0.522642 4.97261 -2.1
      vertex -0.324038 3.08302 -2.1
    endloop
  endfacet
  facet normal 0 0 -1
    outer loop
      vertex -1.03956 4.89074 -2.1
      vertex -0.644526 3.03226 -2.1
      vertex -0.957952 2.94827 -2.1
    endloop
  endfacet
  facet normal 0 0 -1
    outer loop
      vertex -0.644526 3.03226 -2.1
      vertex -1.03956 4.89074 -2.1
      vertex -0.522642 4.97261 -2.1
    endloop
  endfacet
  facet normal 0 0 -1
    outer loop
      vertex -1.54508 4.75528 -2.1
      vertex -0.957952 2.94827 -2.1
      vertex -1.26088 2.83199 -2.1
    endloop
  endfacet
  facet normal 0 0 -1
    outer loop
      vertex -0.957952 2.94827 -2.1
      vertex -1.54508 4.75528 -2.1
      vertex -1.03956 4.89074 -2.1
    endloop
  endfacet
  facet normal 0 0 -1
    outer loop
      vertex -2.03368 4.56773 -2.1
      vertex -1.26088 2.83199 -2.1
      vertex -1.55 2.68468 -2.1
    endloop
  endfacet
  facet normal 0 0 -1
    outer loop
      vertex -2.5 4.33013 -2.1
      vertex -1.55 2.68468 -2.1
      vertex -1.82213 2.50795 -2.1
    endloop
  endfacet
  facet normal 0 0 -1
    outer loop
      vertex -1.26088 2.83199 -2.1
      vertex -2.03368 4.56773 -2.1
      vertex -1.54508 4.75528 -2.1
    endloop
  endfacet
  facet normal 0 0 -1
    outer loop
      vertex -2.93893 4.04508 -2.1
      vertex -1.82213 2.50795 -2.1
      vertex -2.0743 2.30375 -2.1
    endloop
  endfacet
  facet normal 0 0 -1
    outer loop
      vertex -3.34565 3.71572 -2.1
      vertex -2.0743 2.30375 -2.1
      vertex -2.30375 2.0743 -2.1
    endloop
  endfacet
  facet normal 0 0 -1
    outer loop
      vertex -1.55 2.68468 -2.1
      vertex -2.5 4.33013 -2.1
      vertex -2.03368 4.56773 -2.1
    endloop
  endfacet
  facet normal 0 0 -1
    outer loop
      vertex -3.71572 3.34565 -2.1
      vertex -2.30375 2.0743 -2.1
      vertex -2.50795 1.82213 -2.1
    endloop
  endfacet
  facet normal 0 0 -1
    outer loop
      vertex -4.04508 2.93893 -2.1
      vertex -2.50795 1.82213 -2.1
      vertex -2.68468 1.55 -2.1
    endloop
  endfacet
  facet normal 0 0 -1
    outer loop
      vertex -4.33013 2.5 -2.1
      vertex -2.68468 1.55 -2.1
      vertex -2.83199 1.26088 -2.1
    endloop
  endfacet
  facet normal 0 0 -1
    outer loop
      vertex -1.82213 2.50795 -2.1
      vertex -2.93893 4.04508 -2.1
      vertex -2.5 4.33013 -2.1
    endloop
  endfacet
  facet normal 0 0 -1
    outer loop
      vertex -4.56773 2.03368 -2.1
      vertex -2.83199 1.26088 -2.1
      vertex -2.94827 0.957952 -2.1
    endloop
  endfacet
  facet normal 0 0 -1
    outer loop
      vertex -4.75528 1.54508 -2.1
      vertex -2.94827 0.957952 -2.1
      vertex -3.03226 0.644526 -2.1
    endloop
  endfacet
  facet normal 0 0 -1
    outer loop
      vertex -4.89074 1.03956 -2.1
      vertex -3.03226 0.644526 -2.1
      vertex -3.08302 0.324038 -2.1
    endloop
  endfacet
  facet normal 0 0 -1
    outer loop
      vertex -4.97261 0.522642 -2.1
      vertex -3.08302 0.324038 -2.1
      vertex -3.1 0 -2.1
    endloop
  endfacet
  facet normal -0 0 -1
    outer loop
      vertex -2.83199 -1.26088 -2.1
      vertex -4.56773 -2.03368 -2.1
      vertex -2.94827 -0.957952 -2.1
    endloop
  endfacet
  facet normal 0 0 -1
    outer loop
      vertex -2.0743 2.30375 -2.1
      vertex -3.34565 3.71572 -2.1
      vertex -2.93893 4.04508 -2.1
    endloop
  endfacet
  facet normal 0 0 -1
    outer loop
      vertex -4.75528 -1.54508 -2.1
      vertex -2.94827 -0.957952 -2.1
      vertex -4.56773 -2.03368 -2.1
    endloop
  endfacet
  facet normal 0 0 -1
    outer loop
      vertex -2.30375 2.0743 -2.1
      vertex -3.71572 3.34565 -2.1
      vertex -3.34565 3.71572 -2.1
    endloop
  endfacet
  facet normal -0 0 -1
    outer loop
      vertex -2.94827 -0.957952 -2.1
      vertex -4.75528 -1.54508 -2.1
      vertex -3.03226 -0.644526 -2.1
    endloop
  endfacet
  facet normal 0 0 -1
    outer loop
      vertex -2.50795 1.82213 -2.1
      vertex -4.04508 2.93893 -2.1
      vertex -3.71572 3.34565 -2.1
    endloop
  endfacet
  facet normal 0 0 -1
    outer loop
      vertex -4.89074 -1.03956 -2.1
      vertex -3.03226 -0.644526 -2.1
      vertex -4.75528 -1.54508 -2.1
    endloop
  endfacet
  facet normal 0 0 -1
    outer loop
      vertex -2.68468 1.55 -2.1
      vertex -4.33013 2.5 -2.1
      vertex -4.04508 2.93893 -2.1
    endloop
  endfacet
  facet normal -0 0 -1
    outer loop
      vertex -3.03226 -0.644526 -2.1
      vertex -4.89074 -1.03956 -2.1
      vertex -3.08302 -0.324038 -2.1
    endloop
  endfacet
  facet normal 0 0 -1
    outer loop
      vertex -2.83199 1.26088 -2.1
      vertex -4.56773 2.03368 -2.1
      vertex -4.33013 2.5 -2.1
    endloop
  endfacet
  facet normal 0 0 -1
    outer loop
      vertex -4.97261 -0.522642 -2.1
      vertex -3.08302 -0.324038 -2.1
      vertex -4.89074 -1.03956 -2.1
    endloop
  endfacet
  facet normal 0 0 -1
    outer loop
      vertex -2.94827 0.957952 -2.1
      vertex -4.75528 1.54508 -2.1
      vertex -4.56773 2.03368 -2.1
    endloop
  endfacet
  facet normal -0 0 -1
    outer loop
      vertex -3.08302 -0.324038 -2.1
      vertex -4.97261 -0.522642 -2.1
      vertex -3.1 0 -2.1
    endloop
  endfacet
  facet normal 0 0 -1
    outer loop
      vertex -3.03226 0.644526 -2.1
      vertex -4.89074 1.03956 -2.1
      vertex -4.75528 1.54508 -2.1
    endloop
  endfacet
  facet normal 0 0 -1
    outer loop
      vertex -5 0 -2.1
      vertex -3.1 0 -2.1
      vertex -4.97261 -0.522642 -2.1
    endloop
  endfacet
  facet normal 0 0 -1
    outer loop
      vertex -3.08302 0.324038 -2.1
      vertex -4.97261 0.522642 -2.1
      vertex -4.89074 1.03956 -2.1
    endloop
  endfacet
  facet normal 0 0 -1
    outer loop
      vertex -3.1 0 -2.1
      vertex -5 0 -2.1
      vertex -4.97261 0.522642 -2.1
    endloop
  endfacet
  facet normal 0.987688 0.156434 0
    outer loop
      vertex 4.97261 0.522642 2.1
      vertex 4.89074 1.03956 -2.1
      vertex 4.89074 1.03956 2.1
    endloop
  endfacet
  facet normal 0.987688 0.156434 0
    outer loop
      vertex 4.89074 1.03956 -2.1
      vertex 4.97261 0.522642 2.1
      vertex 4.97261 0.522642 -2.1
    endloop
  endfacet
  facet normal 0.965926 0.258819 0
    outer loop
      vertex 4.89074 1.03956 2.1
      vertex 4.75528 1.54508 -2.1
      vertex 4.75528 1.54508 2.1
    endloop
  endfacet
  facet normal 0.965926 0.258819 0
    outer loop
      vertex 4.75528 1.54508 -2.1
      vertex 4.89074 1.03956 2.1
      vertex 4.89074 1.03956 -2.1
    endloop
  endfacet
  facet normal 0.777146 0.62932 0
    outer loop
      vertex 4.04508 2.93893 2.1
      vertex 3.71572 3.34565 -2.1
      vertex 3.71572 3.34565 2.1
    endloop
  endfacet
  facet normal 0.777146 0.62932 0
    outer loop
      vertex 3.71572 3.34565 -2.1
      vertex 4.04508 2.93893 2.1
      vertex 4.04508 2.93893 -2.1
    endloop
  endfacet
  facet normal 0.838671 0.544638 0
    outer loop
      vertex 4.33013 2.5 2.1
      vertex 4.04508 2.93893 -2.1
      vertex 4.04508 2.93893 2.1
    endloop
  endfacet
  facet normal 0.838671 0.544638 0
    outer loop
      vertex 4.04508 2.93893 -2.1
      vertex 4.33013 2.5 2.1
      vertex 4.33013 2.5 -2.1
    endloop
  endfacet
  facet normal 0.707107 0.707107 0
    outer loop
      vertex 3.71572 3.34565 2.1
      vertex 3.34565 3.71572 -2.1
      vertex 3.34565 3.71572 2.1
    endloop
  endfacet
  facet normal 0.707107 0.707107 0
    outer loop
      vertex 3.34565 3.71572 -2.1
      vertex 3.71572 3.34565 2.1
      vertex 3.71572 3.34565 -2.1
    endloop
  endfacet
  facet normal 0.544639 0.83867 -0
    outer loop
      vertex 2.93893 4.04508 -2.1
      vertex 2.5 4.33013 2.1
      vertex 2.93893 4.04508 2.1
    endloop
  endfacet
  facet normal 0.544639 0.83867 0
    outer loop
      vertex 2.5 4.33013 2.1
      vertex 2.93893 4.04508 -2.1
      vertex 2.5 4.33013 -2.1
    endloop
  endfacet
  facet normal 0.0523377 0.998629 -0
    outer loop
      vertex 0.522642 4.97261 -2.1
      vertex 0 5 2.1
      vertex 0.522642 4.97261 2.1
    endloop
  endfacet
  facet normal 0.0523377 0.998629 0
    outer loop
      vertex 0 5 2.1
      vertex 0.522642 4.97261 -2.1
      vertex 0 5 -2.1
    endloop
  endfacet
  facet normal 0.45399 0.891007 -0
    outer loop
      vertex 2.5 4.33013 -2.1
      vertex 2.03368 4.56773 2.1
      vertex 2.5 4.33013 2.1
    endloop
  endfacet
  facet normal 0.45399 0.891007 0
    outer loop
      vertex 2.03368 4.56773 2.1
      vertex 2.5 4.33013 -2.1
      vertex 2.03368 4.56773 -2.1
    endloop
  endfacet
  facet normal -0.998629 0.0523377 0
    outer loop
      vertex -5 0 -2.1
      vertex -4.97261 0.522642 2.1
      vertex -4.97261 0.522642 -2.1
    endloop
  endfacet
  facet normal -0.998629 0.0523377 0
    outer loop
      vertex -4.97261 0.522642 2.1
      vertex -5 0 -2.1
      vertex -5 0 2.1
    endloop
  endfacet
  facet normal -0.93358 0.358368 0
    outer loop
      vertex -4.75528 1.54508 -2.1
      vertex -4.56773 2.03368 2.1
      vertex -4.56773 2.03368 -2.1
    endloop
  endfacet
  facet normal -0.93358 0.358368 0
    outer loop
      vertex -4.56773 2.03368 2.1
      vertex -4.75528 1.54508 -2.1
      vertex -4.75528 1.54508 2.1
    endloop
  endfacet
  facet normal -0.965926 0.258819 0
    outer loop
      vertex -4.89074 1.03956 -2.1
      vertex -4.75528 1.54508 2.1
      vertex -4.75528 1.54508 -2.1
    endloop
  endfacet
  facet normal -0.965926 0.258819 0
    outer loop
      vertex -4.75528 1.54508 2.1
      vertex -4.89074 1.03956 -2.1
      vertex -4.89074 1.03956 2.1
    endloop
  endfacet
  facet normal -0.838671 0.544638 0
    outer loop
      vertex -4.33013 2.5 -2.1
      vertex -4.04508 2.93893 2.1
      vertex -4.04508 2.93893 -2.1
    endloop
  endfacet
  facet normal -0.838671 0.544638 0
    outer loop
      vertex -4.04508 2.93893 2.1
      vertex -4.33013 2.5 -2.1
      vertex -4.33013 2.5 2.1
    endloop
  endfacet
  facet normal -0.777146 0.62932 0
    outer loop
      vertex -4.04508 2.93893 -2.1
      vertex -3.71572 3.34565 2.1
      vertex -3.71572 3.34565 -2.1
    endloop
  endfacet
  facet normal -0.777146 0.62932 0
    outer loop
      vertex -3.71572 3.34565 2.1
      vertex -4.04508 2.93893 -2.1
      vertex -4.04508 2.93893 2.1
    endloop
  endfacet
  facet normal -0.0523377 0.998629 0
    outer loop
      vertex 0 5 -2.1
      vertex -0.522642 4.97261 2.1
      vertex 0 5 2.1
    endloop
  endfacet
  facet normal -0.0523377 0.998629 0
    outer loop
      vertex -0.522642 4.97261 2.1
      vertex 0 5 -2.1
      vertex -0.522642 4.97261 -2.1
    endloop
  endfacet
  facet normal -0.453991 0.891006 0
    outer loop
      vertex -2.03368 4.56773 -2.1
      vertex -2.5 4.33013 2.1
      vertex -2.03368 4.56773 2.1
    endloop
  endfacet
  facet normal -0.453991 0.891006 0
    outer loop
      vertex -2.5 4.33013 2.1
      vertex -2.03368 4.56773 -2.1
      vertex -2.5 4.33013 -2.1
    endloop
  endfacet
  facet normal -0.544638 0.838671 0
    outer loop
      vertex -2.5 4.33013 -2.1
      vertex -2.93893 4.04508 2.1
      vertex -2.5 4.33013 2.1
    endloop
  endfacet
  facet normal -0.544638 0.838671 0
    outer loop
      vertex -2.93893 4.04508 2.1
      vertex -2.5 4.33013 -2.1
      vertex -2.93893 4.04508 -2.1
    endloop
  endfacet
  facet normal -0.358368 0.93358 0
    outer loop
      vertex -1.54508 4.75528 -2.1
      vertex -2.03368 4.56773 2.1
      vertex -1.54508 4.75528 2.1
    endloop
  endfacet
  facet normal -0.358368 0.93358 0
    outer loop
      vertex -2.03368 4.56773 2.1
      vertex -1.54508 4.75528 -2.1
      vertex -2.03368 4.56773 -2.1
    endloop
  endfacet
  facet normal -0.62932 0.777146 0
    outer loop
      vertex -2.93893 4.04508 -2.1
      vertex -3.34565 3.71572 2.1
      vertex -2.93893 4.04508 2.1
    endloop
  endfacet
  facet normal -0.62932 0.777146 0
    outer loop
      vertex -3.34565 3.71572 2.1
      vertex -2.93893 4.04508 -2.1
      vertex -3.34565 3.71572 -2.1
    endloop
  endfacet
  facet normal 0.998629 0.0523377 0
    outer loop
      vertex 5 0 2.1
      vertex 4.97261 0.522642 -2.1
      vertex 4.97261 0.522642 2.1
    endloop
  endfacet
  facet normal 0.998629 0.0523377 0
    outer loop
      vertex 4.97261 0.522642 -2.1
      vertex 5 0 2.1
      vertex 5 0 -2.1
    endloop
  endfacet
  facet normal 0.0523377 -0.998629 0
    outer loop
      vertex 0 -5 -2.1
      vertex 0.522642 -4.97261 2.1
      vertex 0 -5 2.1
    endloop
  endfacet
  facet normal 0.0523377 -0.998629 0
    outer loop
      vertex 0.522642 -4.97261 2.1
      vertex 0 -5 -2.1
      vertex 0.522642 -4.97261 -2.1
    endloop
  endfacet
  facet normal 0.156434 -0.987688 0
    outer loop
      vertex 0.522642 -4.97261 -2.1
      vertex 1.03956 -4.89074 2.1
      vertex 0.522642 -4.97261 2.1
    endloop
  endfacet
  facet normal 0.156434 -0.987688 0
    outer loop
      vertex 1.03956 -4.89074 2.1
      vertex 0.522642 -4.97261 -2.1
      vertex 1.03956 -4.89074 -2.1
    endloop
  endfacet
  facet normal 0.258819 -0.965926 0
    outer loop
      vertex 1.03956 -4.89074 -2.1
      vertex 1.54508 -4.75528 2.1
      vertex 1.03956 -4.89074 2.1
    endloop
  endfacet
  facet normal 0.258819 -0.965926 0
    outer loop
      vertex 1.54508 -4.75528 2.1
      vertex 1.03956 -4.89074 -2.1
      vertex 1.54508 -4.75528 -2.1
    endloop
  endfacet
  facet normal 0.62932 -0.777146 0
    outer loop
      vertex 2.93893 -4.04508 -2.1
      vertex 3.34565 -3.71572 2.1
      vertex 2.93893 -4.04508 2.1
    endloop
  endfacet
  facet normal 0.62932 -0.777146 0
    outer loop
      vertex 3.34565 -3.71572 2.1
      vertex 2.93893 -4.04508 -2.1
      vertex 3.34565 -3.71572 -2.1
    endloop
  endfacet
  facet normal 0.45399 -0.891007 0
    outer loop
      vertex 2.03368 -4.56773 -2.1
      vertex 2.5 -4.33013 2.1
      vertex 2.03368 -4.56773 2.1
    endloop
  endfacet
  facet normal 0.45399 -0.891007 0
    outer loop
      vertex 2.5 -4.33013 2.1
      vertex 2.03368 -4.56773 -2.1
      vertex 2.5 -4.33013 -2.1
    endloop
  endfacet
  facet normal 0.891006 -0.453991 0
    outer loop
      vertex 4.33013 -2.5 2.1
      vertex 4.56773 -2.03368 -2.1
      vertex 4.56773 -2.03368 2.1
    endloop
  endfacet
  facet normal 0.891006 -0.453991 0
    outer loop
      vertex 4.56773 -2.03368 -2.1
      vertex 4.33013 -2.5 2.1
      vertex 4.33013 -2.5 -2.1
    endloop
  endfacet
  facet normal -0.0523377 -0.998629 0
    outer loop
      vertex -0.522642 -4.97261 -2.1
      vertex 0 -5 2.1
      vertex -0.522642 -4.97261 2.1
    endloop
  endfacet
  facet normal -0.0523377 -0.998629 -0
    outer loop
      vertex 0 -5 2.1
      vertex -0.522642 -4.97261 -2.1
      vertex 0 -5 -2.1
    endloop
  endfacet
  facet normal -0.358368 -0.93358 0
    outer loop
      vertex -2.03368 -4.56773 -2.1
      vertex -1.54508 -4.75528 2.1
      vertex -2.03368 -4.56773 2.1
    endloop
  endfacet
  facet normal -0.358368 -0.93358 -0
    outer loop
      vertex -1.54508 -4.75528 2.1
      vertex -2.03368 -4.56773 -2.1
      vertex -1.54508 -4.75528 -2.1
    endloop
  endfacet
  facet normal -0.544639 -0.83867 0
    outer loop
      vertex -2.93893 -4.04508 -2.1
      vertex -2.5 -4.33013 2.1
      vertex -2.93893 -4.04508 2.1
    endloop
  endfacet
  facet normal -0.544639 -0.83867 -0
    outer loop
      vertex -2.5 -4.33013 2.1
      vertex -2.93893 -4.04508 -2.1
      vertex -2.5 -4.33013 -2.1
    endloop
  endfacet
  facet normal -0.965926 -0.258819 0
    outer loop
      vertex -4.75528 -1.54508 -2.1
      vertex -4.89074 -1.03956 2.1
      vertex -4.89074 -1.03956 -2.1
    endloop
  endfacet
  facet normal -0.965926 -0.258819 0
    outer loop
      vertex -4.89074 -1.03956 2.1
      vertex -4.75528 -1.54508 -2.1
      vertex -4.75528 -1.54508 2.1
    endloop
  endfacet
  facet normal -0.998629 -0.0523377 0
    outer loop
      vertex -4.97261 -0.522642 -2.1
      vertex -5 0 2.1
      vertex -5 0 -2.1
    endloop
  endfacet
  facet normal -0.998629 -0.0523377 0
    outer loop
      vertex -5 0 2.1
      vertex -4.97261 -0.522642 -2.1
      vertex -4.97261 -0.522642 2.1
    endloop
  endfacet
  facet normal -0.838671 -0.544638 0
    outer loop
      vertex -4.04508 -2.93893 -2.1
      vertex -4.33013 -2.5 2.1
      vertex -4.33013 -2.5 -2.1
    endloop
  endfacet
  facet normal -0.838671 -0.544638 0
    outer loop
      vertex -4.33013 -2.5 2.1
      vertex -4.04508 -2.93893 -2.1
      vertex -4.04508 -2.93893 2.1
    endloop
  endfacet
  facet normal -0.93358 -0.358368 0
    outer loop
      vertex -4.56773 -2.03368 -2.1
      vertex -4.75528 -1.54508 2.1
      vertex -4.75528 -1.54508 -2.1
    endloop
  endfacet
  facet normal -0.93358 -0.358368 0
    outer loop
      vertex -4.75528 -1.54508 2.1
      vertex -4.56773 -2.03368 -2.1
      vertex -4.56773 -2.03368 2.1
    endloop
  endfacet
  facet normal -0.777146 -0.62932 0
    outer loop
      vertex -3.71572 -3.34565 -2.1
      vertex -4.04508 -2.93893 2.1
      vertex -4.04508 -2.93893 -2.1
    endloop
  endfacet
  facet normal -0.777146 -0.62932 0
    outer loop
      vertex -4.04508 -2.93893 2.1
      vertex -3.71572 -3.34565 -2.1
      vertex -3.71572 -3.34565 2.1
    endloop
  endfacet
  facet normal 0.156434 0.987688 -0
    outer loop
      vertex 1.03956 4.89074 -2.1
      vertex 0.522642 4.97261 2.1
      vertex 1.03956 4.89074 2.1
    endloop
  endfacet
  facet normal 0.156434 0.987688 0
    outer loop
      vertex 0.522642 4.97261 2.1
      vertex 1.03956 4.89074 -2.1
      vertex 0.522642 4.97261 -2.1
    endloop
  endfacet
  facet normal 0 0 1
    outer loop
      vertex 3.1 0 2.1
      vertex 5 0 2.1
      vertex 4.97261 0.522642 2.1
    endloop
  endfacet
  facet normal 0 0 1
    outer loop
      vertex 3.08302 0.324038 2.1
      vertex 4.97261 0.522642 2.1
      vertex 4.89074 1.03956 2.1
    endloop
  endfacet
  facet normal 0 0 1
    outer loop
      vertex 5 0 2.1
      vertex 3.1 0 2.1
      vertex 4.97261 -0.522642 2.1
    endloop
  endfacet
  facet normal 0 0 1
    outer loop
      vertex 3.03226 0.644526 2.1
      vertex 4.89074 1.03956 2.1
      vertex 4.75528 1.54508 2.1
    endloop
  endfacet
  facet normal -0 0 1
    outer loop
      vertex 3.08302 -0.324038 2.1
      vertex 4.97261 -0.522642 2.1
      vertex 3.1 0 2.1
    endloop
  endfacet
  facet normal 0 0 1
    outer loop
      vertex 2.94827 0.957952 2.1
      vertex 4.75528 1.54508 2.1
      vertex 4.56773 2.03368 2.1
    endloop
  endfacet
  facet normal 0 0 1
    outer loop
      vertex 4.97261 -0.522642 2.1
      vertex 3.08302 -0.324038 2.1
      vertex 4.89074 -1.03956 2.1
    endloop
  endfacet
  facet normal 0 0 1
    outer loop
      vertex 2.83199 1.26088 2.1
      vertex 4.56773 2.03368 2.1
      vertex 4.33013 2.5 2.1
    endloop
  endfacet
  facet normal -0 0 1
    outer loop
      vertex 3.03226 -0.644526 2.1
      vertex 4.89074 -1.03956 2.1
      vertex 3.08302 -0.324038 2.1
    endloop
  endfacet
  facet normal 0 0 1
    outer loop
      vertex 2.68468 1.55 2.1
      vertex 4.33013 2.5 2.1
      vertex 4.04508 2.93893 2.1
    endloop
  endfacet
  facet normal 0 0 1
    outer loop
      vertex 4.89074 -1.03956 2.1
      vertex 3.03226 -0.644526 2.1
      vertex 4.75528 -1.54508 2.1
    endloop
  endfacet
  facet normal 0 0 1
    outer loop
      vertex 2.50795 1.82213 2.1
      vertex 4.04508 2.93893 2.1
      vertex 3.71572 3.34565 2.1
    endloop
  endfacet
  facet normal -0 0 1
    outer loop
      vertex 2.94827 -0.957952 2.1
      vertex 4.75528 -1.54508 2.1
      vertex 3.03226 -0.644526 2.1
    endloop
  endfacet
  facet normal 0 0 1
    outer loop
      vertex 2.30375 2.0743 2.1
      vertex 3.71572 3.34565 2.1
      vertex 3.34565 3.71572 2.1
    endloop
  endfacet
  facet normal 0 0 1
    outer loop
      vertex 4.75528 -1.54508 2.1
      vertex 2.94827 -0.957952 2.1
      vertex 4.56773 -2.03368 2.1
    endloop
  endfacet
  facet normal -0 0 1
    outer loop
      vertex 2.83199 -1.26088 2.1
      vertex 4.56773 -2.03368 2.1
      vertex 2.94827 -0.957952 2.1
    endloop
  endfacet
  facet normal 0 0 1
    outer loop
      vertex 4.97261 0.522642 2.1
      vertex 3.08302 0.324038 2.1
      vertex 3.1 0 2.1
    endloop
  endfacet
  facet normal 0 0 1
    outer loop
      vertex 4.89074 1.03956 2.1
      vertex 3.03226 0.644526 2.1
      vertex 3.08302 0.324038 2.1
    endloop
  endfacet
  facet normal 0 0 1
    outer loop
      vertex 4.75528 1.54508 2.1
      vertex 2.94827 0.957952 2.1
      vertex 3.03226 0.644526 2.1
    endloop
  endfacet
  facet normal 0 0 1
    outer loop
      vertex 2.0743 2.30375 2.1
      vertex 3.34565 3.71572 2.1
      vertex 2.93893 4.04508 2.1
    endloop
  endfacet
  facet normal 0 0 1
    outer loop
      vertex 4.56773 2.03368 2.1
      vertex 2.83199 1.26088 2.1
      vertex 2.94827 0.957952 2.1
    endloop
  endfacet
  facet normal 0 0 1
    outer loop
      vertex 4.33013 2.5 2.1
      vertex 2.68468 1.55 2.1
      vertex 2.83199 1.26088 2.1
    endloop
  endfacet
  facet normal 0 0 1
    outer loop
      vertex 4.04508 2.93893 2.1
      vertex 2.50795 1.82213 2.1
      vertex 2.68468 1.55 2.1
    endloop
  endfacet
  facet normal 0 0 1
    outer loop
      vertex 1.82213 2.50795 2.1
      vertex 2.93893 4.04508 2.1
      vertex 2.5 4.33013 2.1
    endloop
  endfacet
  facet normal 0 0 1
    outer loop
      vertex 3.71572 3.34565 2.1
      vertex 2.30375 2.0743 2.1
      vertex 2.50795 1.82213 2.1
    endloop
  endfacet
  facet normal 0 0 1
    outer loop
      vertex 3.34565 3.71572 2.1
      vertex 2.0743 2.30375 2.1
      vertex 2.30375 2.0743 2.1
    endloop
  endfacet
  facet normal 0 0 1
    outer loop
      vertex 1.55 2.68468 2.1
      vertex 2.5 4.33013 2.1
      vertex 2.03368 4.56773 2.1
    endloop
  endfacet
  facet normal 0 0 1
    outer loop
      vertex 2.93893 4.04508 2.1
      vertex 1.82213 2.50795 2.1
      vertex 2.0743 2.30375 2.1
    endloop
  endfacet
  facet normal 0 0 1
    outer loop
      vertex 2.5 4.33013 2.1
      vertex 1.55 2.68468 2.1
      vertex 1.82213 2.50795 2.1
    endloop
  endfacet
  facet normal 0 0 1
    outer loop
      vertex 1.26088 2.83199 2.1
      vertex 2.03368 4.56773 2.1
      vertex 1.54508 4.75528 2.1
    endloop
  endfacet
  facet normal 0 0 1
    outer loop
      vertex 2.03368 4.56773 2.1
      vertex 1.26088 2.83199 2.1
      vertex 1.55 2.68468 2.1
    endloop
  endfacet
  facet normal 0 0 1
    outer loop
      vertex 0.957952 2.94827 2.1
      vertex 1.54508 4.75528 2.1
      vertex 1.03956 4.89074 2.1
    endloop
  endfacet
  facet normal 0 0 1
    outer loop
      vertex 1.54508 4.75528 2.1
      vertex 0.957952 2.94827 2.1
      vertex 1.26088 2.83199 2.1
    endloop
  endfacet
  facet normal 0 0 1
    outer loop
      vertex 1.03956 4.89074 2.1
      vertex 0.644526 3.03226 2.1
      vertex 0.957952 2.94827 2.1
    endloop
  endfacet
  facet normal 0 0 1
    outer loop
      vertex 0.522642 4.97261 2.1
      vertex 0.644526 3.03226 2.1
      vertex 1.03956 4.89074 2.1
    endloop
  endfacet
  facet normal 0 0 1
    outer loop
      vertex 0.522642 4.97261 2.1
      vertex 0.324038 3.08302 2.1
      vertex 0.644526 3.03226 2.1
    endloop
  endfacet
  facet normal 0 0 1
    outer loop
      vertex 0 5 2.1
      vertex 0.324038 3.08302 2.1
      vertex 0.522642 4.97261 2.1
    endloop
  endfacet
  facet normal 0 0 1
    outer loop
      vertex 0 5 2.1
      vertex 0 3.1 2.1
      vertex 0.324038 3.08302 2.1
    endloop
  endfacet
  facet normal 0 0 1
    outer loop
      vertex 0 5 2.1
      vertex -0.324038 3.08302 2.1
      vertex 0 3.1 2.1
    endloop
  endfacet
  facet normal -0 0 1
    outer loop
      vertex -0.522642 4.97261 2.1
      vertex -0.324038 3.08302 2.1
      vertex 0 5 2.1
    endloop
  endfacet
  facet normal 0 0 1
    outer loop
      vertex -0.522642 4.97261 2.1
      vertex -0.644526 3.03226 2.1
      vertex -0.324038 3.08302 2.1
    endloop
  endfacet
  facet normal -0 0 1
    outer loop
      vertex -1.03956 4.89074 2.1
      vertex -0.644526 3.03226 2.1
      vertex -0.522642 4.97261 2.1
    endloop
  endfacet
  facet normal 0 0 1
    outer loop
      vertex -0.644526 3.03226 2.1
      vertex -1.03956 4.89074 2.1
      vertex -0.957952 2.94827 2.1
    endloop
  endfacet
  facet normal -0 0 1
    outer loop
      vertex -1.54508 4.75528 2.1
      vertex -0.957952 2.94827 2.1
      vertex -1.03956 4.89074 2.1
    endloop
  endfacet
  facet normal 0 0 1
    outer loop
      vertex -0.957952 2.94827 2.1
      vertex -1.54508 4.75528 2.1
      vertex -1.26088 2.83199 2.1
    endloop
  endfacet
  facet normal -0 0 1
    outer loop
      vertex -2.03368 4.56773 2.1
      vertex -1.26088 2.83199 2.1
      vertex -1.54508 4.75528 2.1
    endloop
  endfacet
  facet normal 0 0 1
    outer loop
      vertex -1.26088 2.83199 2.1
      vertex -2.03368 4.56773 2.1
      vertex -1.55 2.68468 2.1
    endloop
  endfacet
  facet normal -0 0 1
    outer loop
      vertex -2.5 4.33013 2.1
      vertex -1.55 2.68468 2.1
      vertex -2.03368 4.56773 2.1
    endloop
  endfacet
  facet normal 0 0 1
    outer loop
      vertex -1.55 2.68468 2.1
      vertex -2.5 4.33013 2.1
      vertex -1.82213 2.50795 2.1
    endloop
  endfacet
  facet normal -0 0 1
    outer loop
      vertex -2.93893 4.04508 2.1
      vertex -1.82213 2.50795 2.1
      vertex -2.5 4.33013 2.1
    endloop
  endfacet
  facet normal 0 0 1
    outer loop
      vertex -1.82213 2.50795 2.1
      vertex -2.93893 4.04508 2.1
      vertex -2.0743 2.30375 2.1
    endloop
  endfacet
  facet normal -0 0 1
    outer loop
      vertex -3.34565 3.71572 2.1
      vertex -2.0743 2.30375 2.1
      vertex -2.93893 4.04508 2.1
    endloop
  endfacet
  facet normal 0 0 1
    outer loop
      vertex -2.0743 2.30375 2.1
      vertex -3.34565 3.71572 2.1
      vertex -2.30375 2.0743 2.1
    endloop
  endfacet
  facet normal -0 0 1
    outer loop
      vertex -3.71572 3.34565 2.1
      vertex -2.30375 2.0743 2.1
      vertex -3.34565 3.71572 2.1
    endloop
  endfacet
  facet normal 0 0 1
    outer loop
      vertex -2.30375 2.0743 2.1
      vertex -3.71572 3.34565 2.1
      vertex -2.50795 1.82213 2.1
    endloop
  endfacet
  facet normal -0 0 1
    outer loop
      vertex -4.04508 2.93893 2.1
      vertex -2.50795 1.82213 2.1
      vertex -3.71572 3.34565 2.1
    endloop
  endfacet
  facet normal 0 0 1
    outer loop
      vertex -2.50795 1.82213 2.1
      vertex -4.04508 2.93893 2.1
      vertex -2.68468 1.55 2.1
    endloop
  endfacet
  facet normal -0 0 1
    outer loop
      vertex -4.33013 2.5 2.1
      vertex -2.68468 1.55 2.1
      vertex -4.04508 2.93893 2.1
    endloop
  endfacet
  facet normal 0 0 1
    outer loop
      vertex -2.68468 1.55 2.1
      vertex -4.33013 2.5 2.1
      vertex -2.83199 1.26088 2.1
    endloop
  endfacet
  facet normal -0 0 1
    outer loop
      vertex -4.56773 2.03368 2.1
      vertex -2.83199 1.26088 2.1
      vertex -4.33013 2.5 2.1
    endloop
  endfacet
  facet normal 0 0 1
    outer loop
      vertex 4.56773 -2.03368 2.1
      vertex 2.83199 -1.26088 2.1
      vertex 4.33013 -2.5 2.1
    endloop
  endfacet
  facet normal -0 0 1
    outer loop
      vertex 2.68468 -1.55 2.1
      vertex 4.33013 -2.5 2.1
      vertex 2.83199 -1.26088 2.1
    endloop
  endfacet
  facet normal 0 0 1
    outer loop
      vertex 4.33013 -2.5 2.1
      vertex 2.68468 -1.55 2.1
      vertex 4.04508 -2.93893 2.1
    endloop
  endfacet
  facet normal -0 0 1
    outer loop
      vertex 2.50795 -1.82213 2.1
      vertex 4.04508 -2.93893 2.1
      vertex 2.68468 -1.55 2.1
    endloop
  endfacet
  facet normal 0 0 1
    outer loop
      vertex 4.04508 -2.93893 2.1
      vertex 2.50795 -1.82213 2.1
      vertex 3.71572 -3.34565 2.1
    endloop
  endfacet
  facet normal -0 0 1
    outer loop
      vertex 2.30375 -2.0743 2.1
      vertex 3.71572 -3.34565 2.1
      vertex 2.50795 -1.82213 2.1
    endloop
  endfacet
  facet normal 0 0 1
    outer loop
      vertex 3.71572 -3.34565 2.1
      vertex 2.30375 -2.0743 2.1
      vertex 3.34565 -3.71572 2.1
    endloop
  endfacet
  facet normal -0 0 1
    outer loop
      vertex 2.0743 -2.30375 2.1
      vertex 3.34565 -3.71572 2.1
      vertex 2.30375 -2.0743 2.1
    endloop
  endfacet
  facet normal 0 0 1
    outer loop
      vertex 3.34565 -3.71572 2.1
      vertex 2.0743 -2.30375 2.1
      vertex 2.93893 -4.04508 2.1
    endloop
  endfacet
  facet normal -0 0 1
    outer loop
      vertex 1.82213 -2.50795 2.1
      vertex 2.93893 -4.04508 2.1
      vertex 2.0743 -2.30375 2.1
    endloop
  endfacet
  facet normal 0 0 1
    outer loop
      vertex 2.93893 -4.04508 2.1
      vertex 1.82213 -2.50795 2.1
      vertex 2.5 -4.33013 2.1
    endloop
  endfacet
  facet normal -0 0 1
    outer loop
      vertex 1.55 -2.68468 2.1
      vertex 2.5 -4.33013 2.1
      vertex 1.82213 -2.50795 2.1
    endloop
  endfacet
  facet normal 0 0 1
    outer loop
      vertex 2.5 -4.33013 2.1
      vertex 1.55 -2.68468 2.1
      vertex 2.03368 -4.56773 2.1
    endloop
  endfacet
  facet normal -0 0 1
    outer loop
      vertex 1.26088 -2.83199 2.1
      vertex 2.03368 -4.56773 2.1
      vertex 1.55 -2.68468 2.1
    endloop
  endfacet
  facet normal 0 0 1
    outer loop
      vertex 2.03368 -4.56773 2.1
      vertex 1.26088 -2.83199 2.1
      vertex 1.54508 -4.75528 2.1
    endloop
  endfacet
  facet normal -0 0 1
    outer loop
      vertex 0.957952 -2.94827 2.1
      vertex 1.54508 -4.75528 2.1
      vertex 1.26088 -2.83199 2.1
    endloop
  endfacet
  facet normal 0 0 1
    outer loop
      vertex 1.54508 -4.75528 2.1
      vertex 0.957952 -2.94827 2.1
      vertex 1.03956 -4.89074 2.1
    endloop
  endfacet
  facet normal -0 0 1
    outer loop
      vertex 0.644526 -3.03226 2.1
      vertex 1.03956 -4.89074 2.1
      vertex 0.957952 -2.94827 2.1
    endloop
  endfacet
  facet normal 0 0 1
    outer loop
      vertex 0.644526 -3.03226 2.1
      vertex 0.522642 -4.97261 2.1
      vertex 1.03956 -4.89074 2.1
    endloop
  endfacet
  facet normal -0 0 1
    outer loop
      vertex 0.324038 -3.08302 2.1
      vertex 0.522642 -4.97261 2.1
      vertex 0.644526 -3.03226 2.1
    endloop
  endfacet
  facet normal -0 0 1
    outer loop
      vertex 0 -3.1 2.1
      vertex 0.522642 -4.97261 2.1
      vertex 0.324038 -3.08302 2.1
    endloop
  endfacet
  facet normal 0 0 1
    outer loop
      vertex 0 -3.1 2.1
      vertex 0 -5 2.1
      vertex 0.522642 -4.97261 2.1
    endloop
  endfacet
  facet normal 0 0 1
    outer loop
      vertex -0.324038 -3.08302 2.1
      vertex 0 -5 2.1
      vertex 0 -3.1 2.1
    endloop
  endfacet
  facet normal 0 0 1
    outer loop
      vertex -0.324038 -3.08302 2.1
      vertex -0.522642 -4.97261 2.1
      vertex 0 -5 2.1
    endloop
  endfacet
  facet normal 0 0 1
    outer loop
      vertex -0.644526 -3.03226 2.1
      vertex -0.522642 -4.97261 2.1
      vertex -0.324038 -3.08302 2.1
    endloop
  endfacet
  facet normal 0 0 1
    outer loop
      vertex -1.03956 -4.89074 2.1
      vertex -0.644526 -3.03226 2.1
      vertex -0.957952 -2.94827 2.1
    endloop
  endfacet
  facet normal 0 0 1
    outer loop
      vertex -0.644526 -3.03226 2.1
      vertex -1.03956 -4.89074 2.1
      vertex -0.522642 -4.97261 2.1
    endloop
  endfacet
  facet normal 0 0 1
    outer loop
      vertex -1.54508 -4.75528 2.1
      vertex -0.957952 -2.94827 2.1
      vertex -1.26088 -2.83199 2.1
    endloop
  endfacet
  facet normal 0 0 1
    outer loop
      vertex -0.957952 -2.94827 2.1
      vertex -1.54508 -4.75528 2.1
      vertex -1.03956 -4.89074 2.1
    endloop
  endfacet
  facet normal 0 0 1
    outer loop
      vertex -2.03368 -4.56773 2.1
      vertex -1.26088 -2.83199 2.1
      vertex -1.55 -2.68468 2.1
    endloop
  endfacet
  facet normal 0 0 1
    outer loop
      vertex -2.5 -4.33013 2.1
      vertex -1.55 -2.68468 2.1
      vertex -1.82213 -2.50795 2.1
    endloop
  endfacet
  facet normal 0 0 1
    outer loop
      vertex -1.26088 -2.83199 2.1
      vertex -2.03368 -4.56773 2.1
      vertex -1.54508 -4.75528 2.1
    endloop
  endfacet
  facet normal 0 0 1
    outer loop
      vertex -2.93893 -4.04508 2.1
      vertex -1.82213 -2.50795 2.1
      vertex -2.0743 -2.30375 2.1
    endloop
  endfacet
  facet normal 0 0 1
    outer loop
      vertex -3.34565 -3.71572 2.1
      vertex -2.0743 -2.30375 2.1
      vertex -2.30375 -2.0743 2.1
    endloop
  endfacet
  facet normal 0 0 1
    outer loop
      vertex -1.55 -2.68468 2.1
      vertex -2.5 -4.33013 2.1
      vertex -2.03368 -4.56773 2.1
    endloop
  endfacet
  facet normal 0 0 1
    outer loop
      vertex -3.71572 -3.34565 2.1
      vertex -2.30375 -2.0743 2.1
      vertex -2.50795 -1.82213 2.1
    endloop
  endfacet
  facet normal 0 0 1
    outer loop
      vertex -4.04508 -2.93893 2.1
      vertex -2.50795 -1.82213 2.1
      vertex -2.68468 -1.55 2.1
    endloop
  endfacet
  facet normal 0 0 1
    outer loop
      vertex -4.33013 -2.5 2.1
      vertex -2.68468 -1.55 2.1
      vertex -2.83199 -1.26088 2.1
    endloop
  endfacet
  facet normal 0 0 1
    outer loop
      vertex -1.82213 -2.50795 2.1
      vertex -2.93893 -4.04508 2.1
      vertex -2.5 -4.33013 2.1
    endloop
  endfacet
  facet normal 0 0 1
    outer loop
      vertex -4.56773 -2.03368 2.1
      vertex -2.83199 -1.26088 2.1
      vertex -2.94827 -0.957952 2.1
    endloop
  endfacet
  facet normal 0 0 1
    outer loop
      vertex -4.75528 -1.54508 2.1
      vertex -2.94827 -0.957952 2.1
      vertex -3.03226 -0.644526 2.1
    endloop
  endfacet
  facet normal 0 0 1
    outer loop
      vertex -4.89074 -1.03956 2.1
      vertex -3.03226 -0.644526 2.1
      vertex -3.08302 -0.324038 2.1
    endloop
  endfacet
  facet normal 0 0 1
    outer loop
      vertex -4.97261 -0.522642 2.1
      vertex -3.08302 -0.324038 2.1
      vertex -3.1 0 2.1
    endloop
  endfacet
  facet normal 0 0 1
    outer loop
      vertex -2.83199 1.26088 2.1
      vertex -4.56773 2.03368 2.1
      vertex -2.94827 0.957952 2.1
    endloop
  endfacet
  facet normal 0 0 1
    outer loop
      vertex -2.0743 -2.30375 2.1
      vertex -3.34565 -3.71572 2.1
      vertex -2.93893 -4.04508 2.1
    endloop
  endfacet
  facet normal -0 0 1
    outer loop
      vertex -4.75528 1.54508 2.1
      vertex -2.94827 0.957952 2.1
      vertex -4.56773 2.03368 2.1
    endloop
  endfacet
  facet normal 0 0 1
    outer loop
      vertex -2.30375 -2.0743 2.1
      vertex -3.71572 -3.34565 2.1
      vertex -3.34565 -3.71572 2.1
    endloop
  endfacet
  facet normal 0 0 1
    outer loop
      vertex -2.94827 0.957952 2.1
      vertex -4.75528 1.54508 2.1
      vertex -3.03226 0.644526 2.1
    endloop
  endfacet
  facet normal 0 0 1
    outer loop
      vertex -2.50795 -1.82213 2.1
      vertex -4.04508 -2.93893 2.1
      vertex -3.71572 -3.34565 2.1
    endloop
  endfacet
  facet normal -0 0 1
    outer loop
      vertex -4.89074 1.03956 2.1
      vertex -3.03226 0.644526 2.1
      vertex -4.75528 1.54508 2.1
    endloop
  endfacet
  facet normal 0 0 1
    outer loop
      vertex -2.68468 -1.55 2.1
      vertex -4.33013 -2.5 2.1
      vertex -4.04508 -2.93893 2.1
    endloop
  endfacet
  facet normal 0 0 1
    outer loop
      vertex -3.03226 0.644526 2.1
      vertex -4.89074 1.03956 2.1
      vertex -3.08302 0.324038 2.1
    endloop
  endfacet
  facet normal 0 0 1
    outer loop
      vertex -2.83199 -1.26088 2.1
      vertex -4.56773 -2.03368 2.1
      vertex -4.33013 -2.5 2.1
    endloop
  endfacet
  facet normal -0 0 1
    outer loop
      vertex -4.97261 0.522642 2.1
      vertex -3.08302 0.324038 2.1
      vertex -4.89074 1.03956 2.1
    endloop
  endfacet
  facet normal 0 0 1
    outer loop
      vertex -2.94827 -0.957952 2.1
      vertex -4.75528 -1.54508 2.1
      vertex -4.56773 -2.03368 2.1
    endloop
  endfacet
  facet normal 0 0 1
    outer loop
      vertex -3.08302 0.324038 2.1
      vertex -4.97261 0.522642 2.1
      vertex -3.1 0 2.1
    endloop
  endfacet
  facet normal 0 0 1
    outer loop
      vertex -3.03226 -0.644526 2.1
      vertex -4.89074 -1.03956 2.1
      vertex -4.75528 -1.54508 2.1
    endloop
  endfacet
  facet normal 0 0 1
    outer loop
      vertex -5 0 2.1
      vertex -3.1 0 2.1
      vertex -4.97261 0.522642 2.1
    endloop
  endfacet
  facet normal 0 0 1
    outer loop
      vertex -3.08302 -0.324038 2.1
      vertex -4.97261 -0.522642 2.1
      vertex -4.89074 -1.03956 2.1
    endloop
  endfacet
  facet normal 0 0 1
    outer loop
      vertex -3.1 0 2.1
      vertex -5 0 2.1
      vertex -4.97261 -0.522642 2.1
    endloop
  endfacet
  facet normal 0.987688 -0.156434 0
    outer loop
      vertex 4.89074 -1.03956 2.1
      vertex 4.97261 -0.522642 -2.1
      vertex 4.97261 -0.522642 2.1
    endloop
  endfacet
  facet normal 0.987688 -0.156434 0
    outer loop
      vertex 4.97261 -0.522642 -2.1
      vertex 4.89074 -1.03956 2.1
      vertex 4.89074 -1.03956 -2.1
    endloop
  endfacet
  facet normal 0.965926 -0.258819 0
    outer loop
      vertex 4.75528 -1.54508 2.1
      vertex 4.89074 -1.03956 -2.1
      vertex 4.89074 -1.03956 2.1
    endloop
  endfacet
  facet normal 0.965926 -0.258819 0
    outer loop
      vertex 4.89074 -1.03956 -2.1
      vertex 4.75528 -1.54508 2.1
      vertex 4.75528 -1.54508 -2.1
    endloop
  endfacet
  facet normal 0.358368 -0.93358 0
    outer loop
      vertex 1.54508 -4.75528 -2.1
      vertex 2.03368 -4.56773 2.1
      vertex 1.54508 -4.75528 2.1
    endloop
  endfacet
  facet normal 0.358368 -0.93358 0
    outer loop
      vertex 2.03368 -4.56773 2.1
      vertex 1.54508 -4.75528 -2.1
      vertex 2.03368 -4.56773 -2.1
    endloop
  endfacet
  facet normal 0.707107 -0.707107 0
    outer loop
      vertex 3.34565 -3.71572 2.1
      vertex 3.71572 -3.34565 -2.1
      vertex 3.71572 -3.34565 2.1
    endloop
  endfacet
  facet normal 0.707107 -0.707107 0
    outer loop
      vertex 3.71572 -3.34565 -2.1
      vertex 3.34565 -3.71572 2.1
      vertex 3.34565 -3.71572 -2.1
    endloop
  endfacet
  facet normal 0.544639 -0.83867 0
    outer loop
      vertex 2.5 -4.33013 -2.1
      vertex 2.93893 -4.04508 2.1
      vertex 2.5 -4.33013 2.1
    endloop
  endfacet
  facet normal 0.544639 -0.83867 0
    outer loop
      vertex 2.93893 -4.04508 2.1
      vertex 2.5 -4.33013 -2.1
      vertex 2.93893 -4.04508 -2.1
    endloop
  endfacet
  facet normal 0.838671 -0.544638 0
    outer loop
      vertex 4.04508 -2.93893 2.1
      vertex 4.33013 -2.5 -2.1
      vertex 4.33013 -2.5 2.1
    endloop
  endfacet
  facet normal 0.838671 -0.544638 0
    outer loop
      vertex 4.33013 -2.5 -2.1
      vertex 4.04508 -2.93893 2.1
      vertex 4.04508 -2.93893 -2.1
    endloop
  endfacet
  facet normal -0.258819 -0.965926 0
    outer loop
      vertex -1.54508 -4.75528 -2.1
      vertex -1.03956 -4.89074 2.1
      vertex -1.54508 -4.75528 2.1
    endloop
  endfacet
  facet normal -0.258819 -0.965926 -0
    outer loop
      vertex -1.03956 -4.89074 2.1
      vertex -1.54508 -4.75528 -2.1
      vertex -1.03956 -4.89074 -2.1
    endloop
  endfacet
  facet normal -0.62932 -0.777146 0
    outer loop
      vertex -3.34565 -3.71572 -2.1
      vertex -2.93893 -4.04508 2.1
      vertex -3.34565 -3.71572 2.1
    endloop
  endfacet
  facet normal -0.62932 -0.777146 -0
    outer loop
      vertex -2.93893 -4.04508 2.1
      vertex -3.34565 -3.71572 -2.1
      vertex -2.93893 -4.04508 -2.1
    endloop
  endfacet
  facet normal -0.987688 -0.156434 0
    outer loop
      vertex -4.89074 -1.03956 -2.1
      vertex -4.97261 -0.522642 2.1
      vertex -4.97261 -0.522642 -2.1
    endloop
  endfacet
  facet normal -0.987688 -0.156434 0
    outer loop
      vertex -4.97261 -0.522642 2.1
      vertex -4.89074 -1.03956 -2.1
      vertex -4.89074 -1.03956 2.1
    endloop
  endfacet
  facet normal -0.891006 -0.453991 0
    outer loop
      vertex -4.33013 -2.5 -2.1
      vertex -4.56773 -2.03368 2.1
      vertex -4.56773 -2.03368 -2.1
    endloop
  endfacet
  facet normal -0.891006 -0.453991 0
    outer loop
      vertex -4.56773 -2.03368 2.1
      vertex -4.33013 -2.5 -2.1
      vertex -4.33013 -2.5 2.1
    endloop
  endfacet
  facet normal 0.358368 0.93358 -0
    outer loop
      vertex -0.957952 -2.94827 -2.1
      vertex -1.26088 -2.83199 2.1
      vertex -0.957952 -2.94827 2.1
    endloop
  endfacet
  facet normal 0.358368 0.93358 0
    outer loop
      vertex -1.26088 -2.83199 2.1
      vertex -0.957952 -2.94827 -2.1
      vertex -1.26088 -2.83199 -2.1
    endloop
  endfacet
  facet normal -0.544639 -0.838671 0
    outer loop
      vertex 1.55 2.68468 -2.1
      vertex 1.82213 2.50795 2.1
      vertex 1.55 2.68468 2.1
    endloop
  endfacet
  facet normal -0.544639 -0.838671 -0
    outer loop
      vertex 1.82213 2.50795 2.1
      vertex 1.55 2.68468 -2.1
      vertex 1.82213 2.50795 -2.1
    endloop
  endfacet
  facet normal 0.258819 -0.965926 0
    outer loop
      vertex -0.957952 2.94827 -2.1
      vertex -0.644526 3.03226 2.1
      vertex -0.957952 2.94827 2.1
    endloop
  endfacet
  facet normal 0.258819 -0.965926 0
    outer loop
      vertex -0.644526 3.03226 2.1
      vertex -0.957952 2.94827 -2.1
      vertex -0.644526 3.03226 -2.1
    endloop
  endfacet
  facet normal 0.891006 -0.453991 0
    outer loop
      vertex -2.83199 1.26088 2.1
      vertex -2.68468 1.55 -2.1
      vertex -2.68468 1.55 2.1
    endloop
  endfacet
  facet normal 0.891006 -0.453991 0
    outer loop
      vertex -2.68468 1.55 -2.1
      vertex -2.83199 1.26088 2.1
      vertex -2.83199 1.26088 -2.1
    endloop
  endfacet
  facet normal 0.93358 0.358368 0
    outer loop
      vertex -2.83199 -1.26088 2.1
      vertex -2.94827 -0.957952 -2.1
      vertex -2.94827 -0.957952 2.1
    endloop
  endfacet
  facet normal 0.93358 0.358368 0
    outer loop
      vertex -2.94827 -0.957952 -2.1
      vertex -2.83199 -1.26088 2.1
      vertex -2.83199 -1.26088 -2.1
    endloop
  endfacet
  facet normal -0.965926 -0.258819 0
    outer loop
      vertex 3.03226 0.644526 -2.1
      vertex 2.94827 0.957952 2.1
      vertex 2.94827 0.957952 -2.1
    endloop
  endfacet
  facet normal -0.965926 -0.258819 0
    outer loop
      vertex 2.94827 0.957952 2.1
      vertex 3.03226 0.644526 -2.1
      vertex 3.03226 0.644526 2.1
    endloop
  endfacet
  facet normal -0.93358 -0.358368 0
    outer loop
      vertex 2.94827 0.957952 -2.1
      vertex 2.83199 1.26088 2.1
      vertex 2.83199 1.26088 -2.1
    endloop
  endfacet
  facet normal -0.93358 -0.358368 0
    outer loop
      vertex 2.83199 1.26088 2.1
      vertex 2.94827 0.957952 -2.1
      vertex 2.94827 0.957952 2.1
    endloop
  endfacet
  facet normal -0.777146 -0.62932 0
    outer loop
      vertex 2.50795 1.82213 -2.1
      vertex 2.30375 2.0743 2.1
      vertex 2.30375 2.0743 -2.1
    endloop
  endfacet
  facet normal -0.777146 -0.62932 0
    outer loop
      vertex 2.30375 2.0743 2.1
      vertex 2.50795 1.82213 -2.1
      vertex 2.50795 1.82213 2.1
    endloop
  endfacet
  facet normal -0.453991 -0.891006 0
    outer loop
      vertex 1.26088 2.83199 -2.1
      vertex 1.55 2.68468 2.1
      vertex 1.26088 2.83199 2.1
    endloop
  endfacet
  facet normal -0.453991 -0.891006 -0
    outer loop
      vertex 1.55 2.68468 2.1
      vertex 1.26088 2.83199 -2.1
      vertex 1.55 2.68468 -2.1
    endloop
  endfacet
  facet normal -0.258819 -0.965926 0
    outer loop
      vertex 0.644526 3.03226 -2.1
      vertex 0.957952 2.94827 2.1
      vertex 0.644526 3.03226 2.1
    endloop
  endfacet
  facet normal -0.258819 -0.965926 -0
    outer loop
      vertex 0.957952 2.94827 2.1
      vertex 0.644526 3.03226 -2.1
      vertex 0.957952 2.94827 -2.1
    endloop
  endfacet
  facet normal 0.544639 -0.838671 0
    outer loop
      vertex -1.82213 2.50795 -2.1
      vertex -1.55 2.68468 2.1
      vertex -1.82213 2.50795 2.1
    endloop
  endfacet
  facet normal 0.544639 -0.838671 0
    outer loop
      vertex -1.55 2.68468 2.1
      vertex -1.82213 2.50795 -2.1
      vertex -1.55 2.68468 -2.1
    endloop
  endfacet
  facet normal -0.987688 0.156434 0
    outer loop
      vertex 3.03226 -0.644526 -2.1
      vertex 3.08302 -0.324038 2.1
      vertex 3.08302 -0.324038 -2.1
    endloop
  endfacet
  facet normal -0.987688 0.156434 0
    outer loop
      vertex 3.08302 -0.324038 2.1
      vertex 3.03226 -0.644526 -2.1
      vertex 3.03226 -0.644526 2.1
    endloop
  endfacet
  facet normal -0.93358 0.358368 0
    outer loop
      vertex 2.83199 -1.26088 -2.1
      vertex 2.94827 -0.957952 2.1
      vertex 2.94827 -0.957952 -2.1
    endloop
  endfacet
  facet normal -0.93358 0.358368 0
    outer loop
      vertex 2.94827 -0.957952 2.1
      vertex 2.83199 -1.26088 -2.1
      vertex 2.83199 -1.26088 2.1
    endloop
  endfacet
  facet normal -0.258819 0.965926 0
    outer loop
      vertex 0.957952 -2.94827 -2.1
      vertex 0.644526 -3.03226 2.1
      vertex 0.957952 -2.94827 2.1
    endloop
  endfacet
  facet normal -0.258819 0.965926 0
    outer loop
      vertex 0.644526 -3.03226 2.1
      vertex 0.957952 -2.94827 -2.1
      vertex 0.644526 -3.03226 -2.1
    endloop
  endfacet
  facet normal -0.707107 0.707107 0
    outer loop
      vertex 2.0743 -2.30375 -2.1
      vertex 2.30375 -2.0743 2.1
      vertex 2.30375 -2.0743 -2.1
    endloop
  endfacet
  facet normal -0.707107 0.707107 0
    outer loop
      vertex 2.30375 -2.0743 2.1
      vertex 2.0743 -2.30375 -2.1
      vertex 2.0743 -2.30375 2.1
    endloop
  endfacet
  facet normal -0.987688 -0.156434 0
    outer loop
      vertex 3.08302 0.324038 -2.1
      vertex 3.03226 0.644526 2.1
      vertex 3.03226 0.644526 -2.1
    endloop
  endfacet
  facet normal -0.987688 -0.156434 0
    outer loop
      vertex 3.03226 0.644526 2.1
      vertex 3.08302 0.324038 -2.1
      vertex 3.08302 0.324038 2.1
    endloop
  endfacet
  facet normal -0.891006 -0.453991 0
    outer loop
      vertex 2.83199 1.26088 -2.1
      vertex 2.68468 1.55 2.1
      vertex 2.68468 1.55 -2.1
    endloop
  endfacet
  facet normal -0.891006 -0.453991 0
    outer loop
      vertex 2.68468 1.55 2.1
      vertex 2.83199 1.26088 -2.1
      vertex 2.83199 1.26088 2.1
    endloop
  endfacet
  facet normal -0.838671 -0.544639 0
    outer loop
      vertex 2.68468 1.55 -2.1
      vertex 2.50795 1.82213 2.1
      vertex 2.50795 1.82213 -2.1
    endloop
  endfacet
  facet normal -0.838671 -0.544639 0
    outer loop
      vertex 2.50795 1.82213 2.1
      vertex 2.68468 1.55 -2.1
      vertex 2.68468 1.55 2.1
    endloop
  endfacet
  facet normal -0.707107 -0.707107 0
    outer loop
      vertex 2.30375 2.0743 -2.1
      vertex 2.0743 2.30375 2.1
      vertex 2.0743 2.30375 -2.1
    endloop
  endfacet
  facet normal -0.707107 -0.707107 0
    outer loop
      vertex 2.0743 2.30375 2.1
      vertex 2.30375 2.0743 -2.1
      vertex 2.30375 2.0743 2.1
    endloop
  endfacet
  facet normal -0.0523359 -0.99863 0
    outer loop
      vertex 0 3.1 -2.1
      vertex 0.324038 3.08302 2.1
      vertex 0 3.1 2.1
    endloop
  endfacet
  facet normal -0.0523359 -0.99863 -0
    outer loop
      vertex 0.324038 3.08302 2.1
      vertex 0 3.1 -2.1
      vertex 0.324038 3.08302 -2.1
    endloop
  endfacet
  facet normal -0.358368 -0.93358 0
    outer loop
      vertex 0.957952 2.94827 -2.1
      vertex 1.26088 2.83199 2.1
      vertex 0.957952 2.94827 2.1
    endloop
  endfacet
  facet normal -0.358368 -0.93358 -0
    outer loop
      vertex 1.26088 2.83199 2.1
      vertex 0.957952 2.94827 -2.1
      vertex 1.26088 2.83199 -2.1
    endloop
  endfacet
  facet normal 0.99863 -0.0523359 0
    outer loop
      vertex -3.1 0 2.1
      vertex -3.08302 0.324038 -2.1
      vertex -3.08302 0.324038 2.1
    endloop
  endfacet
  facet normal 0.99863 -0.0523359 0
    outer loop
      vertex -3.08302 0.324038 -2.1
      vertex -3.1 0 2.1
      vertex -3.1 0 -2.1
    endloop
  endfacet
  facet normal 0.965926 -0.258819 0
    outer loop
      vertex -3.03226 0.644526 2.1
      vertex -2.94827 0.957952 -2.1
      vertex -2.94827 0.957952 2.1
    endloop
  endfacet
  facet normal 0.965926 -0.258819 0
    outer loop
      vertex -2.94827 0.957952 -2.1
      vertex -3.03226 0.644526 2.1
      vertex -3.03226 0.644526 -2.1
    endloop
  endfacet
  facet normal 0.707107 -0.707107 0
    outer loop
      vertex -2.30375 2.0743 2.1
      vertex -2.0743 2.30375 -2.1
      vertex -2.0743 2.30375 2.1
    endloop
  endfacet
  facet normal 0.707107 -0.707107 0
    outer loop
      vertex -2.0743 2.30375 -2.1
      vertex -2.30375 2.0743 2.1
      vertex -2.30375 2.0743 -2.1
    endloop
  endfacet
  facet normal 0.838671 -0.544639 0
    outer loop
      vertex -2.68468 1.55 2.1
      vertex -2.50795 1.82213 -2.1
      vertex -2.50795 1.82213 2.1
    endloop
  endfacet
  facet normal 0.838671 -0.544639 0
    outer loop
      vertex -2.50795 1.82213 -2.1
      vertex -2.68468 1.55 2.1
      vertex -2.68468 1.55 -2.1
    endloop
  endfacet
  facet normal 0.777146 -0.62932 0
    outer loop
      vertex -2.50795 1.82213 2.1
      vertex -2.30375 2.0743 -2.1
      vertex -2.30375 2.0743 2.1
    endloop
  endfacet
  facet normal 0.777146 -0.62932 0
    outer loop
      vertex -2.30375 2.0743 -2.1
      vertex -2.50795 1.82213 2.1
      vertex -2.50795 1.82213 -2.1
    endloop
  endfacet
  facet normal 0.0523359 -0.99863 0
    outer loop
      vertex -0.324038 3.08302 -2.1
      vertex 0 3.1 2.1
      vertex -0.324038 3.08302 2.1
    endloop
  endfacet
  facet normal 0.0523359 -0.99863 0
    outer loop
      vertex 0 3.1 2.1
      vertex -0.324038 3.08302 -2.1
      vertex 0 3.1 -2.1
    endloop
  endfacet
  facet normal 0.156434 -0.987688 0
    outer loop
      vertex -0.644526 3.03226 -2.1
      vertex -0.324038 3.08302 2.1
      vertex -0.644526 3.03226 2.1
    endloop
  endfacet
  facet normal 0.156434 -0.987688 0
    outer loop
      vertex -0.324038 3.08302 2.1
      vertex -0.644526 3.03226 -2.1
      vertex -0.324038 3.08302 -2.1
    endloop
  endfacet
  facet normal 0.358368 -0.93358 0
    outer loop
      vertex -1.26088 2.83199 -2.1
      vertex -0.957952 2.94827 2.1
      vertex -1.26088 2.83199 2.1
    endloop
  endfacet
  facet normal 0.358368 -0.93358 0
    outer loop
      vertex -0.957952 2.94827 2.1
      vertex -1.26088 2.83199 -2.1
      vertex -0.957952 2.94827 -2.1
    endloop
  endfacet
  facet normal 0.453991 -0.891006 0
    outer loop
      vertex -1.55 2.68468 -2.1
      vertex -1.26088 2.83199 2.1
      vertex -1.55 2.68468 2.1
    endloop
  endfacet
  facet normal 0.453991 -0.891006 0
    outer loop
      vertex -1.26088 2.83199 2.1
      vertex -1.55 2.68468 -2.1
      vertex -1.26088 2.83199 -2.1
    endloop
  endfacet
  facet normal 0.62932 -0.777146 0
    outer loop
      vertex -2.0743 2.30375 -2.1
      vertex -1.82213 2.50795 2.1
      vertex -2.0743 2.30375 2.1
    endloop
  endfacet
  facet normal 0.62932 -0.777146 0
    outer loop
      vertex -1.82213 2.50795 2.1
      vertex -2.0743 2.30375 -2.1
      vertex -1.82213 2.50795 -2.1
    endloop
  endfacet
  facet normal -0.99863 -0.0523359 0
    outer loop
      vertex 3.1 0 -2.1
      vertex 3.08302 0.324038 2.1
      vertex 3.08302 0.324038 -2.1
    endloop
  endfacet
  facet normal -0.99863 -0.0523359 0
    outer loop
      vertex 3.08302 0.324038 2.1
      vertex 3.1 0 -2.1
      vertex 3.1 0 2.1
    endloop
  endfacet
  facet normal -0.0523359 0.99863 0
    outer loop
      vertex 0.324038 -3.08302 -2.1
      vertex 0 -3.1 2.1
      vertex 0.324038 -3.08302 2.1
    endloop
  endfacet
  facet normal -0.0523359 0.99863 0
    outer loop
      vertex 0 -3.1 2.1
      vertex 0.324038 -3.08302 -2.1
      vertex 0 -3.1 -2.1
    endloop
  endfacet
  facet normal -0.99863 0.0523359 0
    outer loop
      vertex 3.08302 -0.324038 -2.1
      vertex 3.1 0 2.1
      vertex 3.1 0 -2.1
    endloop
  endfacet
  facet normal -0.99863 0.0523359 0
    outer loop
      vertex 3.1 0 2.1
      vertex 3.08302 -0.324038 -2.1
      vertex 3.08302 -0.324038 2.1
    endloop
  endfacet
  facet normal -0.965926 0.258819 0
    outer loop
      vertex 2.94827 -0.957952 -2.1
      vertex 3.03226 -0.644526 2.1
      vertex 3.03226 -0.644526 -2.1
    endloop
  endfacet
  facet normal -0.965926 0.258819 0
    outer loop
      vertex 3.03226 -0.644526 2.1
      vertex 2.94827 -0.957952 -2.1
      vertex 2.94827 -0.957952 2.1
    endloop
  endfacet
  facet normal -0.156434 0.987688 0
    outer loop
      vertex 0.644526 -3.03226 -2.1
      vertex 0.324038 -3.08302 2.1
      vertex 0.644526 -3.03226 2.1
    endloop
  endfacet
  facet normal -0.156434 0.987688 0
    outer loop
      vertex 0.324038 -3.08302 2.1
      vertex 0.644526 -3.03226 -2.1
      vertex 0.324038 -3.08302 -2.1
    endloop
  endfacet
  facet normal -0.453991 0.891006 0
    outer loop
      vertex 1.55 -2.68468 -2.1
      vertex 1.26088 -2.83199 2.1
      vertex 1.55 -2.68468 2.1
    endloop
  endfacet
  facet normal -0.453991 0.891006 0
    outer loop
      vertex 1.26088 -2.83199 2.1
      vertex 1.55 -2.68468 -2.1
      vertex 1.26088 -2.83199 -2.1
    endloop
  endfacet
  facet normal -0.62932 0.777146 0
    outer loop
      vertex 2.0743 -2.30375 -2.1
      vertex 1.82213 -2.50795 2.1
      vertex 2.0743 -2.30375 2.1
    endloop
  endfacet
  facet normal -0.62932 0.777146 0
    outer loop
      vertex 1.82213 -2.50795 2.1
      vertex 2.0743 -2.30375 -2.1
      vertex 1.82213 -2.50795 -2.1
    endloop
  endfacet
  facet normal -0.777146 0.62932 0
    outer loop
      vertex 2.30375 -2.0743 -2.1
      vertex 2.50795 -1.82213 2.1
      vertex 2.50795 -1.82213 -2.1
    endloop
  endfacet
  facet normal -0.777146 0.62932 0
    outer loop
      vertex 2.50795 -1.82213 2.1
      vertex 2.30375 -2.0743 -2.1
      vertex 2.30375 -2.0743 2.1
    endloop
  endfacet
  facet normal -0.891006 0.453991 0
    outer loop
      vertex 2.68468 -1.55 -2.1
      vertex 2.83199 -1.26088 2.1
      vertex 2.83199 -1.26088 -2.1
    endloop
  endfacet
  facet normal -0.891006 0.453991 0
    outer loop
      vertex 2.83199 -1.26088 2.1
      vertex 2.68468 -1.55 -2.1
      vertex 2.68468 -1.55 2.1
    endloop
  endfacet
  facet normal -0.838671 0.544639 0
    outer loop
      vertex 2.50795 -1.82213 -2.1
      vertex 2.68468 -1.55 2.1
      vertex 2.68468 -1.55 -2.1
    endloop
  endfacet
  facet normal -0.838671 0.544639 0
    outer loop
      vertex 2.68468 -1.55 2.1
      vertex 2.50795 -1.82213 -2.1
      vertex 2.50795 -1.82213 2.1
    endloop
  endfacet
  facet normal 0.156434 0.987688 -0
    outer loop
      vertex -0.324038 -3.08302 -2.1
      vertex -0.644526 -3.03226 2.1
      vertex -0.324038 -3.08302 2.1
    endloop
  endfacet
  facet normal 0.156434 0.987688 0
    outer loop
      vertex -0.644526 -3.03226 2.1
      vertex -0.324038 -3.08302 -2.1
      vertex -0.644526 -3.03226 -2.1
    endloop
  endfacet
  facet normal 0.0523359 0.99863 -0
    outer loop
      vertex 0 -3.1 -2.1
      vertex -0.324038 -3.08302 2.1
      vertex 0 -3.1 2.1
    endloop
  endfacet
  facet normal 0.0523359 0.99863 0
    outer loop
      vertex -0.324038 -3.08302 2.1
      vertex 0 -3.1 -2.1
      vertex -0.324038 -3.08302 -2.1
    endloop
  endfacet
  facet normal 0.544639 0.838671 -0
    outer loop
      vertex -1.55 -2.68468 -2.1
      vertex -1.82213 -2.50795 2.1
      vertex -1.55 -2.68468 2.1
    endloop
  endfacet
  facet normal 0.544639 0.838671 0
    outer loop
      vertex -1.82213 -2.50795 2.1
      vertex -1.55 -2.68468 -2.1
      vertex -1.82213 -2.50795 -2.1
    endloop
  endfacet
  facet normal 0.707107 0.707107 0
    outer loop
      vertex -2.0743 -2.30375 2.1
      vertex -2.30375 -2.0743 -2.1
      vertex -2.30375 -2.0743 2.1
    endloop
  endfacet
  facet normal 0.707107 0.707107 0
    outer loop
      vertex -2.30375 -2.0743 -2.1
      vertex -2.0743 -2.30375 2.1
      vertex -2.0743 -2.30375 -2.1
    endloop
  endfacet
  facet normal 0.453991 0.891006 -0
    outer loop
      vertex -1.26088 -2.83199 -2.1
      vertex -1.55 -2.68468 2.1
      vertex -1.26088 -2.83199 2.1
    endloop
  endfacet
  facet normal 0.453991 0.891006 0
    outer loop
      vertex -1.55 -2.68468 2.1
      vertex -1.26088 -2.83199 -2.1
      vertex -1.55 -2.68468 -2.1
    endloop
  endfacet
  facet normal 0.965926 0.258819 0
    outer loop
      vertex -2.94827 -0.957952 2.1
      vertex -3.03226 -0.644526 -2.1
      vertex -3.03226 -0.644526 2.1
    endloop
  endfacet
  facet normal 0.965926 0.258819 0
    outer loop
      vertex -3.03226 -0.644526 -2.1
      vertex -2.94827 -0.957952 2.1
      vertex -2.94827 -0.957952 -2.1
    endloop
  endfacet
  facet normal 0.99863 0.0523359 0
    outer loop
      vertex -3.08302 -0.324038 2.1
      vertex -3.1 0 -2.1
      vertex -3.1 0 2.1
    endloop
  endfacet
  facet normal 0.99863 0.0523359 0
    outer loop
      vertex -3.1 0 -2.1
      vertex -3.08302 -0.324038 2.1
      vertex -3.08302 -0.324038 -2.1
    endloop
  endfacet
  facet normal 0.777146 0.62932 0
    outer loop
      vertex -2.30375 -2.0743 2.1
      vertex -2.50795 -1.82213 -2.1
      vertex -2.50795 -1.82213 2.1
    endloop
  endfacet
  facet normal 0.777146 0.62932 0
    outer loop
      vertex -2.50795 -1.82213 -2.1
      vertex -2.30375 -2.0743 2.1
      vertex -2.30375 -2.0743 -2.1
    endloop
  endfacet
  facet normal 0.838671 0.544639 0
    outer loop
      vertex -2.50795 -1.82213 2.1
      vertex -2.68468 -1.55 -2.1
      vertex -2.68468 -1.55 2.1
    endloop
  endfacet
  facet normal 0.838671 0.544639 0
    outer loop
      vertex -2.68468 -1.55 -2.1
      vertex -2.50795 -1.82213 2.1
      vertex -2.50795 -1.82213 -2.1
    endloop
  endfacet
  facet normal -0.62932 -0.777146 0
    outer loop
      vertex 1.82213 2.50795 -2.1
      vertex 2.0743 2.30375 2.1
      vertex 1.82213 2.50795 2.1
    endloop
  endfacet
  facet normal -0.62932 -0.777146 -0
    outer loop
      vertex 2.0743 2.30375 2.1
      vertex 1.82213 2.50795 -2.1
      vertex 2.0743 2.30375 -2.1
    endloop
  endfacet
  facet normal -0.156434 -0.987688 0
    outer loop
      vertex 0.324038 3.08302 -2.1
      vertex 0.644526 3.03226 2.1
      vertex 0.324038 3.08302 2.1
    endloop
  endfacet
  facet normal -0.156434 -0.987688 -0
    outer loop
      vertex 0.644526 3.03226 2.1
      vertex 0.324038 3.08302 -2.1
      vertex 0.644526 3.03226 -2.1
    endloop
  endfacet
  facet normal 0.987688 -0.156434 0
    outer loop
      vertex -3.08302 0.324038 2.1
      vertex -3.03226 0.644526 -2.1
      vertex -3.03226 0.644526 2.1
    endloop
  endfacet
  facet normal 0.987688 -0.156434 0
    outer loop
      vertex -3.03226 0.644526 -2.1
      vertex -3.08302 0.324038 2.1
      vertex -3.08302 0.324038 -2.1
    endloop
  endfacet
  facet normal 0.93358 -0.358368 0
    outer loop
      vertex -2.94827 0.957952 2.1
      vertex -2.83199 1.26088 -2.1
      vertex -2.83199 1.26088 2.1
    endloop
  endfacet
  facet normal 0.93358 -0.358368 0
    outer loop
      vertex -2.83199 1.26088 -2.1
      vertex -2.94827 0.957952 2.1
      vertex -2.94827 0.957952 -2.1
    endloop
  endfacet
  facet normal -0.358368 0.93358 0
    outer loop
      vertex 1.26088 -2.83199 -2.1
      vertex 0.957952 -2.94827 2.1
      vertex 1.26088 -2.83199 2.1
    endloop
  endfacet
  facet normal -0.358368 0.93358 0
    outer loop
      vertex 0.957952 -2.94827 2.1
      vertex 1.26088 -2.83199 -2.1
      vertex 0.957952 -2.94827 -2.1
    endloop
  endfacet
  facet normal -0.544639 0.838671 0
    outer loop
      vertex 1.82213 -2.50795 -2.1
      vertex 1.55 -2.68468 2.1
      vertex 1.82213 -2.50795 2.1
    endloop
  endfacet
  facet normal -0.544639 0.838671 0
    outer loop
      vertex 1.55 -2.68468 2.1
      vertex 1.82213 -2.50795 -2.1
      vertex 1.55 -2.68468 -2.1
    endloop
  endfacet
  facet normal 0.258819 0.965926 -0
    outer loop
      vertex -0.644526 -3.03226 -2.1
      vertex -0.957952 -2.94827 2.1
      vertex -0.644526 -3.03226 2.1
    endloop
  endfacet
  facet normal 0.258819 0.965926 0
    outer loop
      vertex -0.957952 -2.94827 2.1
      vertex -0.644526 -3.03226 -2.1
      vertex -0.957952 -2.94827 -2.1
    endloop
  endfacet
  facet normal 0.62932 0.777146 -0
    outer loop
      vertex -1.82213 -2.50795 -2.1
      vertex -2.0743 -2.30375 2.1
      vertex -1.82213 -2.50795 2.1
    endloop
  endfacet
  facet normal 0.62932 0.777146 0
    outer loop
      vertex -2.0743 -2.30375 2.1
      vertex -1.82213 -2.50795 -2.1
      vertex -2.0743 -2.30375 -2.1
    endloop
  endfacet
  facet normal 0.987688 0.156434 0
    outer loop
      vertex -3.03226 -0.644526 2.1
      vertex -3.08302 -0.324038 -2.1
      vertex -3.08302 -0.324038 2.1
    endloop
  endfacet
  facet normal 0.987688 0.156434 0
    outer loop
      vertex -3.08302 -0.324038 -2.1
      vertex -3.03226 -0.644526 2.1
      vertex -3.03226 -0.644526 -2.1
    endloop
  endfacet
  facet normal 0.891006 0.453991 0
    outer loop
      vertex -2.68468 -1.55 2.1
      vertex -2.83199 -1.26088 -2.1
      vertex -2.83199 -1.26088 2.1
    endloop
  endfacet
  facet normal 0.891006 0.453991 0
    outer loop
      vertex -2.83199 -1.26088 -2.1
      vertex -2.68468 -1.55 2.1
      vertex -2.68468 -1.55 -2.1
    endloop
  endfacet
endsolid OpenSCAD_Model
