solid OpenSCAD_Model
  facet normal 0.62932 0.777146 -0
    outer loop
      vertex 3.34565 3.71572 -2
      vertex 2.93893 4.04508 2
      vertex 3.34565 3.71572 2
    endloop
  endfacet
  facet normal 0.62932 0.777146 0
    outer loop
      vertex 2.93893 4.04508 2
      vertex 3.34565 3.71572 -2
      vertex 2.93893 4.04508 -2
    endloop
  endfacet
  facet normal -0.258819 0.965926 0
    outer loop
      vertex -1.03956 4.89074 -2
      vertex -1.54508 4.75528 2
      vertex -1.03956 4.89074 2
    endloop
  endfacet
  facet normal -0.258819 0.965926 0
    outer loop
      vertex -1.54508 4.75528 2
      vertex -1.03956 4.89074 -2
      vertex -1.54508 4.75528 -2
    endloop
  endfacet
  facet normal -0.891006 0.453991 0
    outer loop
      vertex -4.56773 2.03368 -2
      vertex -4.33013 2.5 2
      vertex -4.33013 2.5 -2
    endloop
  endfacet
  facet normal -0.891006 0.453991 0
    outer loop
      vertex -4.33013 2.5 2
      vertex -4.56773 2.03368 -2
      vertex -4.56773 2.03368 2
    endloop
  endfacet
  facet normal -0.45399 -0.891007 0
    outer loop
      vertex -2.5 -4.33013 -2
      vertex -2.03368 -4.56773 2
      vertex -2.5 -4.33013 2
    endloop
  endfacet
  facet normal -0.45399 -0.891007 -0
    outer loop
      vertex -2.03368 -4.56773 2
      vertex -2.5 -4.33013 -2
      vertex -2.03368 -4.56773 -2
    endloop
  endfacet
  facet normal 0.93358 0.358368 0
    outer loop
      vertex 4.75528 1.54508 2
      vertex 4.56773 2.03368 -2
      vertex 4.56773 2.03368 2
    endloop
  endfacet
  facet normal 0.93358 0.358368 0
    outer loop
      vertex 4.56773 2.03368 -2
      vertex 4.75528 1.54508 2
      vertex 4.75528 1.54508 -2
    endloop
  endfacet
  facet normal 0.891006 0.453991 0
    outer loop
      vertex 4.56773 2.03368 2
      vertex 4.33013 2.5 -2
      vertex 4.33013 2.5 2
    endloop
  endfacet
  facet normal 0.891006 0.453991 0
    outer loop
      vertex 4.33013 2.5 -2
      vertex 4.56773 2.03368 2
      vertex 4.56773 2.03368 -2
    endloop
  endfacet
  facet normal 0.358368 0.93358 -0
    outer loop
      vertex 2.03368 4.56773 -2
      vertex 1.54508 4.75528 2
      vertex 2.03368 4.56773 2
    endloop
  endfacet
  facet normal 0.358368 0.93358 0
    outer loop
      vertex 1.54508 4.75528 2
      vertex 2.03368 4.56773 -2
      vertex 1.54508 4.75528 -2
    endloop
  endfacet
  facet normal 0.258819 0.965926 -0
    outer loop
      vertex 1.54508 4.75528 -2
      vertex 1.03956 4.89074 2
      vertex 1.54508 4.75528 2
    endloop
  endfacet
  facet normal 0.258819 0.965926 0
    outer loop
      vertex 1.03956 4.89074 2
      vertex 1.54508 4.75528 -2
      vertex 1.03956 4.89074 -2
    endloop
  endfacet
  facet normal 0.156434 0.987688 -0
    outer loop
      vertex 1.03956 4.89074 -2
      vertex 0.522642 4.97261 2
      vertex 1.03956 4.89074 2
    endloop
  endfacet
  facet normal 0.156434 0.987688 0
    outer loop
      vertex 0.522642 4.97261 2
      vertex 1.03956 4.89074 -2
      vertex 0.522642 4.97261 -2
    endloop
  endfacet
  facet normal -0.987688 0.156434 0
    outer loop
      vertex -4.97261 0.522642 -2
      vertex -4.89074 1.03956 2
      vertex -4.89074 1.03956 -2
    endloop
  endfacet
  facet normal -0.987688 0.156434 0
    outer loop
      vertex -4.89074 1.03956 2
      vertex -4.97261 0.522642 -2
      vertex -4.97261 0.522642 2
    endloop
  endfacet
  facet normal -0.707107 0.707107 0
    outer loop
      vertex -3.71572 3.34565 -2
      vertex -3.34565 3.71572 2
      vertex -3.34565 3.71572 -2
    endloop
  endfacet
  facet normal -0.707107 0.707107 0
    outer loop
      vertex -3.34565 3.71572 2
      vertex -3.71572 3.34565 -2
      vertex -3.71572 3.34565 2
    endloop
  endfacet
  facet normal -0.156434 0.987688 0
    outer loop
      vertex -0.522642 4.97261 -2
      vertex -1.03956 4.89074 2
      vertex -0.522642 4.97261 2
    endloop
  endfacet
  facet normal -0.156434 0.987688 0
    outer loop
      vertex -1.03956 4.89074 2
      vertex -0.522642 4.97261 -2
      vertex -1.03956 4.89074 -2
    endloop
  endfacet
  facet normal 0.998629 -0.0523377 0
    outer loop
      vertex 4.97261 -0.522642 2
      vertex 5 0 -2
      vertex 5 0 2
    endloop
  endfacet
  facet normal 0.998629 -0.0523377 0
    outer loop
      vertex 5 0 -2
      vertex 4.97261 -0.522642 2
      vertex 4.97261 -0.522642 -2
    endloop
  endfacet
  facet normal 0.777146 -0.62932 0
    outer loop
      vertex 3.71572 -3.34565 2
      vertex 4.04508 -2.93893 -2
      vertex 4.04508 -2.93893 2
    endloop
  endfacet
  facet normal 0.777146 -0.62932 0
    outer loop
      vertex 4.04508 -2.93893 -2
      vertex 3.71572 -3.34565 2
      vertex 3.71572 -3.34565 -2
    endloop
  endfacet
  facet normal -0.156434 -0.987688 0
    outer loop
      vertex -1.03956 -4.89074 -2
      vertex -0.522642 -4.97261 2
      vertex -1.03956 -4.89074 2
    endloop
  endfacet
  facet normal -0.156434 -0.987688 -0
    outer loop
      vertex -0.522642 -4.97261 2
      vertex -1.03956 -4.89074 -2
      vertex -0.522642 -4.97261 -2
    endloop
  endfacet
  facet normal -0.707107 -0.707107 0
    outer loop
      vertex -3.34565 -3.71572 -2
      vertex -3.71572 -3.34565 2
      vertex -3.71572 -3.34565 -2
    endloop
  endfacet
  facet normal -0.707107 -0.707107 0
    outer loop
      vertex -3.71572 -3.34565 2
      vertex -3.34565 -3.71572 -2
      vertex -3.34565 -3.71572 2
    endloop
  endfacet
  facet normal 0 0 -1
    outer loop
      vertex 2.6 0 -2
      vertex 5 0 -2
      vertex 4.97261 -0.522642 -2
    endloop
  endfacet
  facet normal 0 0 -1
    outer loop
      vertex 2.58576 -0.271773 -2
      vertex 4.97261 -0.522642 -2
      vertex 4.89074 -1.03956 -2
    endloop
  endfacet
  facet normal 0 0 -1
    outer loop
      vertex 5 0 -2
      vertex 2.6 0 -2
      vertex 4.97261 0.522642 -2
    endloop
  endfacet
  facet normal 0 0 -1
    outer loop
      vertex 2.54318 -0.54057 -2
      vertex 4.89074 -1.03956 -2
      vertex 4.75528 -1.54508 -2
    endloop
  endfacet
  facet normal 0 0 -1
    outer loop
      vertex 2.58576 0.271773 -2
      vertex 4.97261 0.522642 -2
      vertex 2.6 0 -2
    endloop
  endfacet
  facet normal 0 0 -1
    outer loop
      vertex 2.47275 -0.803444 -2
      vertex 4.75528 -1.54508 -2
      vertex 4.56773 -2.03368 -2
    endloop
  endfacet
  facet normal -0 0 -1
    outer loop
      vertex 4.97261 0.522642 -2
      vertex 2.58576 0.271773 -2
      vertex 4.89074 1.03956 -2
    endloop
  endfacet
  facet normal 0 0 -1
    outer loop
      vertex 2.37522 -1.05752 -2
      vertex 4.56773 -2.03368 -2
      vertex 4.33013 -2.5 -2
    endloop
  endfacet
  facet normal 0 0 -1
    outer loop
      vertex 2.54318 0.54057 -2
      vertex 4.89074 1.03956 -2
      vertex 2.58576 0.271773 -2
    endloop
  endfacet
  facet normal 0 0 -1
    outer loop
      vertex 2.25167 -1.3 -2
      vertex 4.33013 -2.5 -2
      vertex 4.04508 -2.93893 -2
    endloop
  endfacet
  facet normal -0 0 -1
    outer loop
      vertex 4.89074 1.03956 -2
      vertex 2.54318 0.54057 -2
      vertex 4.75528 1.54508 -2
    endloop
  endfacet
  facet normal 0 0 -1
    outer loop
      vertex 2.10344 -1.52824 -2
      vertex 4.04508 -2.93893 -2
      vertex 3.71572 -3.34565 -2
    endloop
  endfacet
  facet normal 0 0 -1
    outer loop
      vertex 2.47275 0.803444 -2
      vertex 4.75528 1.54508 -2
      vertex 2.54318 0.54057 -2
    endloop
  endfacet
  facet normal 0 0 -1
    outer loop
      vertex 1.93218 -1.73974 -2
      vertex 3.71572 -3.34565 -2
      vertex 3.34565 -3.71572 -2
    endloop
  endfacet
  facet normal -0 0 -1
    outer loop
      vertex 4.75528 1.54508 -2
      vertex 2.47275 0.803444 -2
      vertex 4.56773 2.03368 -2
    endloop
  endfacet
  facet normal 0 0 -1
    outer loop
      vertex 1.73974 -1.93218 -2
      vertex 3.34565 -3.71572 -2
      vertex 2.93893 -4.04508 -2
    endloop
  endfacet
  facet normal 0 0 -1
    outer loop
      vertex 2.37522 1.05752 -2
      vertex 4.56773 2.03368 -2
      vertex 2.47275 0.803444 -2
    endloop
  endfacet
  facet normal -0 0 -1
    outer loop
      vertex 4.56773 2.03368 -2
      vertex 2.37522 1.05752 -2
      vertex 4.33013 2.5 -2
    endloop
  endfacet
  facet normal 0 0 -1
    outer loop
      vertex 4.97261 -0.522642 -2
      vertex 2.58576 -0.271773 -2
      vertex 2.6 0 -2
    endloop
  endfacet
  facet normal 0 0 -1
    outer loop
      vertex 4.89074 -1.03956 -2
      vertex 2.54318 -0.54057 -2
      vertex 2.58576 -0.271773 -2
    endloop
  endfacet
  facet normal 0 0 -1
    outer loop
      vertex 1.52824 -2.10344 -2
      vertex 2.93893 -4.04508 -2
      vertex 2.5 -4.33013 -2
    endloop
  endfacet
  facet normal 0 0 -1
    outer loop
      vertex 4.75528 -1.54508 -2
      vertex 2.47275 -0.803444 -2
      vertex 2.54318 -0.54057 -2
    endloop
  endfacet
  facet normal 0 0 -1
    outer loop
      vertex 4.56773 -2.03368 -2
      vertex 2.37522 -1.05752 -2
      vertex 2.47275 -0.803444 -2
    endloop
  endfacet
  facet normal 0 0 -1
    outer loop
      vertex 4.33013 -2.5 -2
      vertex 2.25167 -1.3 -2
      vertex 2.37522 -1.05752 -2
    endloop
  endfacet
  facet normal 0 0 -1
    outer loop
      vertex 4.04508 -2.93893 -2
      vertex 2.10344 -1.52824 -2
      vertex 2.25167 -1.3 -2
    endloop
  endfacet
  facet normal 0 0 -1
    outer loop
      vertex 1.3 -2.25167 -2
      vertex 2.5 -4.33013 -2
      vertex 2.03368 -4.56773 -2
    endloop
  endfacet
  facet normal 0 0 -1
    outer loop
      vertex 3.71572 -3.34565 -2
      vertex 1.93218 -1.73974 -2
      vertex 2.10344 -1.52824 -2
    endloop
  endfacet
  facet normal 0 0 -1
    outer loop
      vertex 3.34565 -3.71572 -2
      vertex 1.73974 -1.93218 -2
      vertex 1.93218 -1.73974 -2
    endloop
  endfacet
  facet normal 0 0 -1
    outer loop
      vertex 1.05752 -2.37522 -2
      vertex 2.03368 -4.56773 -2
      vertex 1.54508 -4.75528 -2
    endloop
  endfacet
  facet normal 0 0 -1
    outer loop
      vertex 2.93893 -4.04508 -2
      vertex 1.52824 -2.10344 -2
      vertex 1.73974 -1.93218 -2
    endloop
  endfacet
  facet normal 0 0 -1
    outer loop
      vertex 2.5 -4.33013 -2
      vertex 1.3 -2.25167 -2
      vertex 1.52824 -2.10344 -2
    endloop
  endfacet
  facet normal 0 0 -1
    outer loop
      vertex 2.03368 -4.56773 -2
      vertex 1.05752 -2.37522 -2
      vertex 1.3 -2.25167 -2
    endloop
  endfacet
  facet normal 0 0 -1
    outer loop
      vertex 0.803444 -2.47275 -2
      vertex 1.54508 -4.75528 -2
      vertex 1.03956 -4.89074 -2
    endloop
  endfacet
  facet normal 0 0 -1
    outer loop
      vertex 1.54508 -4.75528 -2
      vertex 0.803444 -2.47275 -2
      vertex 1.05752 -2.37522 -2
    endloop
  endfacet
  facet normal 0 0 -1
    outer loop
      vertex 1.03956 -4.89074 -2
      vertex 0.54057 -2.54318 -2
      vertex 0.803444 -2.47275 -2
    endloop
  endfacet
  facet normal 0 0 -1
    outer loop
      vertex 0.522642 -4.97261 -2
      vertex 0.54057 -2.54318 -2
      vertex 1.03956 -4.89074 -2
    endloop
  endfacet
  facet normal 0 0 -1
    outer loop
      vertex 0.522642 -4.97261 -2
      vertex 0.271773 -2.58576 -2
      vertex 0.54057 -2.54318 -2
    endloop
  endfacet
  facet normal 0 0 -1
    outer loop
      vertex 0 -5 -2
      vertex 0.271773 -2.58576 -2
      vertex 0.522642 -4.97261 -2
    endloop
  endfacet
  facet normal 0 0 -1
    outer loop
      vertex 0 -5 -2
      vertex 0 -2.6 -2
      vertex 0.271773 -2.58576 -2
    endloop
  endfacet
  facet normal 0 0 -1
    outer loop
      vertex 0 -5 -2
      vertex -0.271773 -2.58576 -2
      vertex 0 -2.6 -2
    endloop
  endfacet
  facet normal 0 0 -1
    outer loop
      vertex -0.522642 -4.97261 -2
      vertex -0.271773 -2.58576 -2
      vertex 0 -5 -2
    endloop
  endfacet
  facet normal 0 0 -1
    outer loop
      vertex -0.522642 -4.97261 -2
      vertex -0.54057 -2.54318 -2
      vertex -0.271773 -2.58576 -2
    endloop
  endfacet
  facet normal 0 0 -1
    outer loop
      vertex -1.03956 -4.89074 -2
      vertex -0.54057 -2.54318 -2
      vertex -0.522642 -4.97261 -2
    endloop
  endfacet
  facet normal -0 0 -1
    outer loop
      vertex -0.54057 -2.54318 -2
      vertex -1.03956 -4.89074 -2
      vertex -0.803444 -2.47275 -2
    endloop
  endfacet
  facet normal 0 0 -1
    outer loop
      vertex -1.54508 -4.75528 -2
      vertex -0.803444 -2.47275 -2
      vertex -1.03956 -4.89074 -2
    endloop
  endfacet
  facet normal -0 0 -1
    outer loop
      vertex -0.803444 -2.47275 -2
      vertex -1.54508 -4.75528 -2
      vertex -1.05752 -2.37522 -2
    endloop
  endfacet
  facet normal 0 0 -1
    outer loop
      vertex -2.03368 -4.56773 -2
      vertex -1.05752 -2.37522 -2
      vertex -1.54508 -4.75528 -2
    endloop
  endfacet
  facet normal -0 0 -1
    outer loop
      vertex -1.05752 -2.37522 -2
      vertex -2.03368 -4.56773 -2
      vertex -1.3 -2.25167 -2
    endloop
  endfacet
  facet normal 0 0 -1
    outer loop
      vertex -2.5 -4.33013 -2
      vertex -1.3 -2.25167 -2
      vertex -2.03368 -4.56773 -2
    endloop
  endfacet
  facet normal -0 0 -1
    outer loop
      vertex -1.3 -2.25167 -2
      vertex -2.5 -4.33013 -2
      vertex -1.52824 -2.10344 -2
    endloop
  endfacet
  facet normal 0 0 -1
    outer loop
      vertex -2.93893 -4.04508 -2
      vertex -1.52824 -2.10344 -2
      vertex -2.5 -4.33013 -2
    endloop
  endfacet
  facet normal -0 0 -1
    outer loop
      vertex -1.52824 -2.10344 -2
      vertex -2.93893 -4.04508 -2
      vertex -1.73974 -1.93218 -2
    endloop
  endfacet
  facet normal 0 0 -1
    outer loop
      vertex -3.34565 -3.71572 -2
      vertex -1.73974 -1.93218 -2
      vertex -2.93893 -4.04508 -2
    endloop
  endfacet
  facet normal -0 0 -1
    outer loop
      vertex -1.73974 -1.93218 -2
      vertex -3.34565 -3.71572 -2
      vertex -1.93218 -1.73974 -2
    endloop
  endfacet
  facet normal 0 0 -1
    outer loop
      vertex -3.71572 -3.34565 -2
      vertex -1.93218 -1.73974 -2
      vertex -3.34565 -3.71572 -2
    endloop
  endfacet
  facet normal -0 0 -1
    outer loop
      vertex -1.93218 -1.73974 -2
      vertex -3.71572 -3.34565 -2
      vertex -2.10344 -1.52824 -2
    endloop
  endfacet
  facet normal 0 0 -1
    outer loop
      vertex -4.04508 -2.93893 -2
      vertex -2.10344 -1.52824 -2
      vertex -3.71572 -3.34565 -2
    endloop
  endfacet
  facet normal -0 0 -1
    outer loop
      vertex -2.10344 -1.52824 -2
      vertex -4.04508 -2.93893 -2
      vertex -2.25167 -1.3 -2
    endloop
  endfacet
  facet normal 0 0 -1
    outer loop
      vertex -4.33013 -2.5 -2
      vertex -2.25167 -1.3 -2
      vertex -4.04508 -2.93893 -2
    endloop
  endfacet
  facet normal -0 0 -1
    outer loop
      vertex -2.25167 -1.3 -2
      vertex -4.33013 -2.5 -2
      vertex -2.37522 -1.05752 -2
    endloop
  endfacet
  facet normal 0 0 -1
    outer loop
      vertex 2.25167 1.3 -2
      vertex 4.33013 2.5 -2
      vertex 2.37522 1.05752 -2
    endloop
  endfacet
  facet normal -0 0 -1
    outer loop
      vertex 4.33013 2.5 -2
      vertex 2.25167 1.3 -2
      vertex 4.04508 2.93893 -2
    endloop
  endfacet
  facet normal 0 0 -1
    outer loop
      vertex 2.10344 1.52824 -2
      vertex 4.04508 2.93893 -2
      vertex 2.25167 1.3 -2
    endloop
  endfacet
  facet normal -0 0 -1
    outer loop
      vertex 4.04508 2.93893 -2
      vertex 2.10344 1.52824 -2
      vertex 3.71572 3.34565 -2
    endloop
  endfacet
  facet normal 0 0 -1
    outer loop
      vertex 1.93218 1.73974 -2
      vertex 3.71572 3.34565 -2
      vertex 2.10344 1.52824 -2
    endloop
  endfacet
  facet normal -0 0 -1
    outer loop
      vertex 3.71572 3.34565 -2
      vertex 1.93218 1.73974 -2
      vertex 3.34565 3.71572 -2
    endloop
  endfacet
  facet normal 0 0 -1
    outer loop
      vertex 1.73974 1.93218 -2
      vertex 3.34565 3.71572 -2
      vertex 1.93218 1.73974 -2
    endloop
  endfacet
  facet normal -0 0 -1
    outer loop
      vertex 3.34565 3.71572 -2
      vertex 1.73974 1.93218 -2
      vertex 2.93893 4.04508 -2
    endloop
  endfacet
  facet normal 0 0 -1
    outer loop
      vertex 1.52824 2.10344 -2
      vertex 2.93893 4.04508 -2
      vertex 1.73974 1.93218 -2
    endloop
  endfacet
  facet normal -0 0 -1
    outer loop
      vertex 2.93893 4.04508 -2
      vertex 1.52824 2.10344 -2
      vertex 2.5 4.33013 -2
    endloop
  endfacet
  facet normal 0 0 -1
    outer loop
      vertex 1.3 2.25167 -2
      vertex 2.5 4.33013 -2
      vertex 1.52824 2.10344 -2
    endloop
  endfacet
  facet normal -0 0 -1
    outer loop
      vertex 2.5 4.33013 -2
      vertex 1.3 2.25167 -2
      vertex 2.03368 4.56773 -2
    endloop
  endfacet
  facet normal 0 0 -1
    outer loop
      vertex 1.05752 2.37522 -2
      vertex 2.03368 4.56773 -2
      vertex 1.3 2.25167 -2
    endloop
  endfacet
  facet normal -0 0 -1
    outer loop
      vertex 2.03368 4.56773 -2
      vertex 1.05752 2.37522 -2
      vertex 1.54508 4.75528 -2
    endloop
  endfacet
  facet normal 0 0 -1
    outer loop
      vertex 0.803444 2.47275 -2
      vertex 1.54508 4.75528 -2
      vertex 1.05752 2.37522 -2
    endloop
  endfacet
  facet normal -0 0 -1
    outer loop
      vertex 1.54508 4.75528 -2
      vertex 0.803444 2.47275 -2
      vertex 1.03956 4.89074 -2
    endloop
  endfacet
  facet normal 0 0 -1
    outer loop
      vertex 0.54057 2.54318 -2
      vertex 1.03956 4.89074 -2
      vertex 0.803444 2.47275 -2
    endloop
  endfacet
  facet normal 0 0 -1
    outer loop
      vertex 0.54057 2.54318 -2
      vertex 0.522642 4.97261 -2
      vertex 1.03956 4.89074 -2
    endloop
  endfacet
  facet normal 0 0 -1
    outer loop
      vertex 0.271773 2.58576 -2
      vertex 0.522642 4.97261 -2
      vertex 0.54057 2.54318 -2
    endloop
  endfacet
  facet normal 0 0 -1
    outer loop
      vertex 0 2.6 -2
      vertex 0.522642 4.97261 -2
      vertex 0.271773 2.58576 -2
    endloop
  endfacet
  facet normal 0 0 -1
    outer loop
      vertex 0 2.6 -2
      vertex 0 5 -2
      vertex 0.522642 4.97261 -2
    endloop
  endfacet
  facet normal 0 0 -1
    outer loop
      vertex -0.271773 2.58576 -2
      vertex 0 5 -2
      vertex 0 2.6 -2
    endloop
  endfacet
  facet normal 0 0 -1
    outer loop
      vertex -0.271773 2.58576 -2
      vertex -0.522642 4.97261 -2
      vertex 0 5 -2
    endloop
  endfacet
  facet normal 0 0 -1
    outer loop
      vertex -0.54057 2.54318 -2
      vertex -0.522642 4.97261 -2
      vertex -0.271773 2.58576 -2
    endloop
  endfacet
  facet normal 0 0 -1
    outer loop
      vertex -1.03956 4.89074 -2
      vertex -0.54057 2.54318 -2
      vertex -0.803444 2.47275 -2
    endloop
  endfacet
  facet normal 0 0 -1
    outer loop
      vertex -0.54057 2.54318 -2
      vertex -1.03956 4.89074 -2
      vertex -0.522642 4.97261 -2
    endloop
  endfacet
  facet normal 0 0 -1
    outer loop
      vertex -1.54508 4.75528 -2
      vertex -0.803444 2.47275 -2
      vertex -1.05752 2.37522 -2
    endloop
  endfacet
  facet normal 0 0 -1
    outer loop
      vertex -2.03368 4.56773 -2
      vertex -1.05752 2.37522 -2
      vertex -1.3 2.25167 -2
    endloop
  endfacet
  facet normal 0 0 -1
    outer loop
      vertex -2.5 4.33013 -2
      vertex -1.3 2.25167 -2
      vertex -1.52824 2.10344 -2
    endloop
  endfacet
  facet normal 0 0 -1
    outer loop
      vertex -0.803444 2.47275 -2
      vertex -1.54508 4.75528 -2
      vertex -1.03956 4.89074 -2
    endloop
  endfacet
  facet normal 0 0 -1
    outer loop
      vertex -2.93893 4.04508 -2
      vertex -1.52824 2.10344 -2
      vertex -1.73974 1.93218 -2
    endloop
  endfacet
  facet normal 0 0 -1
    outer loop
      vertex -3.34565 3.71572 -2
      vertex -1.73974 1.93218 -2
      vertex -1.93218 1.73974 -2
    endloop
  endfacet
  facet normal 0 0 -1
    outer loop
      vertex -1.05752 2.37522 -2
      vertex -2.03368 4.56773 -2
      vertex -1.54508 4.75528 -2
    endloop
  endfacet
  facet normal 0 0 -1
    outer loop
      vertex -3.71572 3.34565 -2
      vertex -1.93218 1.73974 -2
      vertex -2.10344 1.52824 -2
    endloop
  endfacet
  facet normal 0 0 -1
    outer loop
      vertex -4.04508 2.93893 -2
      vertex -2.10344 1.52824 -2
      vertex -2.25167 1.3 -2
    endloop
  endfacet
  facet normal 0 0 -1
    outer loop
      vertex -4.33013 2.5 -2
      vertex -2.25167 1.3 -2
      vertex -2.37522 1.05752 -2
    endloop
  endfacet
  facet normal 0 0 -1
    outer loop
      vertex -4.56773 2.03368 -2
      vertex -2.37522 1.05752 -2
      vertex -2.47275 0.803444 -2
    endloop
  endfacet
  facet normal 0 0 -1
    outer loop
      vertex -1.3 2.25167 -2
      vertex -2.5 4.33013 -2
      vertex -2.03368 4.56773 -2
    endloop
  endfacet
  facet normal 0 0 -1
    outer loop
      vertex -4.75528 1.54508 -2
      vertex -2.47275 0.803444 -2
      vertex -2.54318 0.54057 -2
    endloop
  endfacet
  facet normal 0 0 -1
    outer loop
      vertex -4.89074 1.03956 -2
      vertex -2.54318 0.54057 -2
      vertex -2.58576 0.271773 -2
    endloop
  endfacet
  facet normal 0 0 -1
    outer loop
      vertex -4.97261 0.522642 -2
      vertex -2.58576 0.271773 -2
      vertex -2.6 0 -2
    endloop
  endfacet
  facet normal 0 0 -1
    outer loop
      vertex -4.56773 -2.03368 -2
      vertex -2.37522 -1.05752 -2
      vertex -4.33013 -2.5 -2
    endloop
  endfacet
  facet normal 0 0 -1
    outer loop
      vertex -1.52824 2.10344 -2
      vertex -2.93893 4.04508 -2
      vertex -2.5 4.33013 -2
    endloop
  endfacet
  facet normal -0 0 -1
    outer loop
      vertex -2.37522 -1.05752 -2
      vertex -4.56773 -2.03368 -2
      vertex -2.47275 -0.803444 -2
    endloop
  endfacet
  facet normal 0 0 -1
    outer loop
      vertex -1.73974 1.93218 -2
      vertex -3.34565 3.71572 -2
      vertex -2.93893 4.04508 -2
    endloop
  endfacet
  facet normal 0 0 -1
    outer loop
      vertex -4.75528 -1.54508 -2
      vertex -2.47275 -0.803444 -2
      vertex -4.56773 -2.03368 -2
    endloop
  endfacet
  facet normal 0 0 -1
    outer loop
      vertex -1.93218 1.73974 -2
      vertex -3.71572 3.34565 -2
      vertex -3.34565 3.71572 -2
    endloop
  endfacet
  facet normal -0 0 -1
    outer loop
      vertex -2.47275 -0.803444 -2
      vertex -4.75528 -1.54508 -2
      vertex -2.54318 -0.54057 -2
    endloop
  endfacet
  facet normal 0 0 -1
    outer loop
      vertex -2.10344 1.52824 -2
      vertex -4.04508 2.93893 -2
      vertex -3.71572 3.34565 -2
    endloop
  endfacet
  facet normal 0 0 -1
    outer loop
      vertex -4.89074 -1.03956 -2
      vertex -2.54318 -0.54057 -2
      vertex -4.75528 -1.54508 -2
    endloop
  endfacet
  facet normal 0 0 -1
    outer loop
      vertex -2.25167 1.3 -2
      vertex -4.33013 2.5 -2
      vertex -4.04508 2.93893 -2
    endloop
  endfacet
  facet normal -0 0 -1
    outer loop
      vertex -2.54318 -0.54057 -2
      vertex -4.89074 -1.03956 -2
      vertex -2.58576 -0.271773 -2
    endloop
  endfacet
  facet normal 0 0 -1
    outer loop
      vertex -2.37522 1.05752 -2
      vertex -4.56773 2.03368 -2
      vertex -4.33013 2.5 -2
    endloop
  endfacet
  facet normal 0 0 -1
    outer loop
      vertex -4.97261 -0.522642 -2
      vertex -2.58576 -0.271773 -2
      vertex -4.89074 -1.03956 -2
    endloop
  endfacet
  facet normal 0 0 -1
    outer loop
      vertex -2.47275 0.803444 -2
      vertex -4.75528 1.54508 -2
      vertex -4.56773 2.03368 -2
    endloop
  endfacet
  facet normal -0 0 -1
    outer loop
      vertex -2.58576 -0.271773 -2
      vertex -4.97261 -0.522642 -2
      vertex -2.6 0 -2
    endloop
  endfacet
  facet normal 0 0 -1
    outer loop
      vertex -2.54318 0.54057 -2
      vertex -4.89074 1.03956 -2
      vertex -4.75528 1.54508 -2
    endloop
  endfacet
  facet normal 0 0 -1
    outer loop
      vertex -5 0 -2
      vertex -2.6 0 -2
      vertex -4.97261 -0.522642 -2
    endloop
  endfacet
  facet normal 0 0 -1
    outer loop
      vertex -2.58576 0.271773 -2
      vertex -4.97261 0.522642 -2
      vertex -4.89074 1.03956 -2
    endloop
  endfacet
  facet normal 0 0 -1
    outer loop
      vertex -2.6 0 -2
      vertex -5 0 -2
      vertex -4.97261 0.522642 -2
    endloop
  endfacet
  facet normal 0.987688 0.156434 0
    outer loop
      vertex 4.97261 0.522642 2
      vertex 4.89074 1.03956 -2
      vertex 4.89074 1.03956 2
    endloop
  endfacet
  facet normal 0.987688 0.156434 0
    outer loop
      vertex 4.89074 1.03956 -2
      vertex 4.97261 0.522642 2
      vertex 4.97261 0.522642 -2
    endloop
  endfacet
  facet normal 0.965926 0.258819 0
    outer loop
      vertex 4.89074 1.03956 2
      vertex 4.75528 1.54508 -2
      vertex 4.75528 1.54508 2
    endloop
  endfacet
  facet normal 0.965926 0.258819 0
    outer loop
      vertex 4.75528 1.54508 -2
      vertex 4.89074 1.03956 2
      vertex 4.89074 1.03956 -2
    endloop
  endfacet
  facet normal 0.777146 0.62932 0
    outer loop
      vertex 4.04508 2.93893 2
      vertex 3.71572 3.34565 -2
      vertex 3.71572 3.34565 2
    endloop
  endfacet
  facet normal 0.777146 0.62932 0
    outer loop
      vertex 3.71572 3.34565 -2
      vertex 4.04508 2.93893 2
      vertex 4.04508 2.93893 -2
    endloop
  endfacet
  facet normal 0.838671 0.544638 0
    outer loop
      vertex 4.33013 2.5 2
      vertex 4.04508 2.93893 -2
      vertex 4.04508 2.93893 2
    endloop
  endfacet
  facet normal 0.838671 0.544638 0
    outer loop
      vertex 4.04508 2.93893 -2
      vertex 4.33013 2.5 2
      vertex 4.33013 2.5 -2
    endloop
  endfacet
  facet normal 0.707107 0.707107 0
    outer loop
      vertex 3.71572 3.34565 2
      vertex 3.34565 3.71572 -2
      vertex 3.34565 3.71572 2
    endloop
  endfacet
  facet normal 0.707107 0.707107 0
    outer loop
      vertex 3.34565 3.71572 -2
      vertex 3.71572 3.34565 2
      vertex 3.71572 3.34565 -2
    endloop
  endfacet
  facet normal 0.544639 0.83867 -0
    outer loop
      vertex 2.93893 4.04508 -2
      vertex 2.5 4.33013 2
      vertex 2.93893 4.04508 2
    endloop
  endfacet
  facet normal 0.544639 0.83867 0
    outer loop
      vertex 2.5 4.33013 2
      vertex 2.93893 4.04508 -2
      vertex 2.5 4.33013 -2
    endloop
  endfacet
  facet normal 0.0523377 0.998629 -0
    outer loop
      vertex 0.522642 4.97261 -2
      vertex 0 5 2
      vertex 0.522642 4.97261 2
    endloop
  endfacet
  facet normal 0.0523377 0.998629 0
    outer loop
      vertex 0 5 2
      vertex 0.522642 4.97261 -2
      vertex 0 5 -2
    endloop
  endfacet
  facet normal 0.45399 0.891007 -0
    outer loop
      vertex 2.5 4.33013 -2
      vertex 2.03368 4.56773 2
      vertex 2.5 4.33013 2
    endloop
  endfacet
  facet normal 0.45399 0.891007 0
    outer loop
      vertex 2.03368 4.56773 2
      vertex 2.5 4.33013 -2
      vertex 2.03368 4.56773 -2
    endloop
  endfacet
  facet normal -0.998629 0.0523377 0
    outer loop
      vertex -5 0 -2
      vertex -4.97261 0.522642 2
      vertex -4.97261 0.522642 -2
    endloop
  endfacet
  facet normal -0.998629 0.0523377 0
    outer loop
      vertex -4.97261 0.522642 2
      vertex -5 0 -2
      vertex -5 0 2
    endloop
  endfacet
  facet normal 0 0 1
    outer loop
      vertex 2.6 0 2
      vertex 5 0 2
      vertex 4.97261 0.522642 2
    endloop
  endfacet
  facet normal 0 0 1
    outer loop
      vertex 2.58576 0.271773 2
      vertex 4.97261 0.522642 2
      vertex 4.89074 1.03956 2
    endloop
  endfacet
  facet normal 0 0 1
    outer loop
      vertex 5 0 2
      vertex 2.6 0 2
      vertex 4.97261 -0.522642 2
    endloop
  endfacet
  facet normal 0 0 1
    outer loop
      vertex 2.54318 0.54057 2
      vertex 4.89074 1.03956 2
      vertex 4.75528 1.54508 2
    endloop
  endfacet
  facet normal -0 0 1
    outer loop
      vertex 2.58576 -0.271773 2
      vertex 4.97261 -0.522642 2
      vertex 2.6 0 2
    endloop
  endfacet
  facet normal 0 0 1
    outer loop
      vertex 2.47275 0.803444 2
      vertex 4.75528 1.54508 2
      vertex 4.56773 2.03368 2
    endloop
  endfacet
  facet normal 0 0 1
    outer loop
      vertex 4.97261 -0.522642 2
      vertex 2.58576 -0.271773 2
      vertex 4.89074 -1.03956 2
    endloop
  endfacet
  facet normal 0 0 1
    outer loop
      vertex 2.37522 1.05752 2
      vertex 4.56773 2.03368 2
      vertex 4.33013 2.5 2
    endloop
  endfacet
  facet normal -0 0 1
    outer loop
      vertex 2.54318 -0.54057 2
      vertex 4.89074 -1.03956 2
      vertex 2.58576 -0.271773 2
    endloop
  endfacet
  facet normal 0 0 1
    outer loop
      vertex 2.25167 1.3 2
      vertex 4.33013 2.5 2
      vertex 4.04508 2.93893 2
    endloop
  endfacet
  facet normal 0 0 1
    outer loop
      vertex 4.89074 -1.03956 2
      vertex 2.54318 -0.54057 2
      vertex 4.75528 -1.54508 2
    endloop
  endfacet
  facet normal 0 0 1
    outer loop
      vertex 2.10344 1.52824 2
      vertex 4.04508 2.93893 2
      vertex 3.71572 3.34565 2
    endloop
  endfacet
  facet normal -0 0 1
    outer loop
      vertex 2.47275 -0.803444 2
      vertex 4.75528 -1.54508 2
      vertex 2.54318 -0.54057 2
    endloop
  endfacet
  facet normal 0 0 1
    outer loop
      vertex 1.93218 1.73974 2
      vertex 3.71572 3.34565 2
      vertex 3.34565 3.71572 2
    endloop
  endfacet
  facet normal 0 0 1
    outer loop
      vertex 4.75528 -1.54508 2
      vertex 2.47275 -0.803444 2
      vertex 4.56773 -2.03368 2
    endloop
  endfacet
  facet normal 0 0 1
    outer loop
      vertex 1.73974 1.93218 2
      vertex 3.34565 3.71572 2
      vertex 2.93893 4.04508 2
    endloop
  endfacet
  facet normal -0 0 1
    outer loop
      vertex 2.37522 -1.05752 2
      vertex 4.56773 -2.03368 2
      vertex 2.47275 -0.803444 2
    endloop
  endfacet
  facet normal 0 0 1
    outer loop
      vertex 4.56773 -2.03368 2
      vertex 2.37522 -1.05752 2
      vertex 4.33013 -2.5 2
    endloop
  endfacet
  facet normal 0 0 1
    outer loop
      vertex 4.97261 0.522642 2
      vertex 2.58576 0.271773 2
      vertex 2.6 0 2
    endloop
  endfacet
  facet normal 0 0 1
    outer loop
      vertex 4.89074 1.03956 2
      vertex 2.54318 0.54057 2
      vertex 2.58576 0.271773 2
    endloop
  endfacet
  facet normal 0 0 1
    outer loop
      vertex 1.52824 2.10344 2
      vertex 2.93893 4.04508 2
      vertex 2.5 4.33013 2
    endloop
  endfacet
  facet normal 0 0 1
    outer loop
      vertex 4.75528 1.54508 2
      vertex 2.47275 0.803444 2
      vertex 2.54318 0.54057 2
    endloop
  endfacet
  facet normal 0 0 1
    outer loop
      vertex 4.56773 2.03368 2
      vertex 2.37522 1.05752 2
      vertex 2.47275 0.803444 2
    endloop
  endfacet
  facet normal 0 0 1
    outer loop
      vertex 4.33013 2.5 2
      vertex 2.25167 1.3 2
      vertex 2.37522 1.05752 2
    endloop
  endfacet
  facet normal 0 0 1
    outer loop
      vertex 4.04508 2.93893 2
      vertex 2.10344 1.52824 2
      vertex 2.25167 1.3 2
    endloop
  endfacet
  facet normal 0 0 1
    outer loop
      vertex 1.3 2.25167 2
      vertex 2.5 4.33013 2
      vertex 2.03368 4.56773 2
    endloop
  endfacet
  facet normal 0 0 1
    outer loop
      vertex 3.71572 3.34565 2
      vertex 1.93218 1.73974 2
      vertex 2.10344 1.52824 2
    endloop
  endfacet
  facet normal 0 0 1
    outer loop
      vertex 3.34565 3.71572 2
      vertex 1.73974 1.93218 2
      vertex 1.93218 1.73974 2
    endloop
  endfacet
  facet normal 0 0 1
    outer loop
      vertex 1.05752 2.37522 2
      vertex 2.03368 4.56773 2
      vertex 1.54508 4.75528 2
    endloop
  endfacet
  facet normal 0 0 1
    outer loop
      vertex 2.93893 4.04508 2
      vertex 1.52824 2.10344 2
      vertex 1.73974 1.93218 2
    endloop
  endfacet
  facet normal 0 0 1
    outer loop
      vertex 2.5 4.33013 2
      vertex 1.3 2.25167 2
      vertex 1.52824 2.10344 2
    endloop
  endfacet
  facet normal 0 0 1
    outer loop
      vertex 2.03368 4.56773 2
      vertex 1.05752 2.37522 2
      vertex 1.3 2.25167 2
    endloop
  endfacet
  facet normal 0 0 1
    outer loop
      vertex 0.803444 2.47275 2
      vertex 1.54508 4.75528 2
      vertex 1.03956 4.89074 2
    endloop
  endfacet
  facet normal 0 0 1
    outer loop
      vertex 1.54508 4.75528 2
      vertex 0.803444 2.47275 2
      vertex 1.05752 2.37522 2
    endloop
  endfacet
  facet normal 0 0 1
    outer loop
      vertex 1.03956 4.89074 2
      vertex 0.54057 2.54318 2
      vertex 0.803444 2.47275 2
    endloop
  endfacet
  facet normal 0 0 1
    outer loop
      vertex 0.522642 4.97261 2
      vertex 0.54057 2.54318 2
      vertex 1.03956 4.89074 2
    endloop
  endfacet
  facet normal 0 0 1
    outer loop
      vertex 0.522642 4.97261 2
      vertex 0.271773 2.58576 2
      vertex 0.54057 2.54318 2
    endloop
  endfacet
  facet normal 0 0 1
    outer loop
      vertex 0 5 2
      vertex 0.271773 2.58576 2
      vertex 0.522642 4.97261 2
    endloop
  endfacet
  facet normal 0 0 1
    outer loop
      vertex 0 5 2
      vertex 0 2.6 2
      vertex 0.271773 2.58576 2
    endloop
  endfacet
  facet normal 0 0 1
    outer loop
      vertex 0 5 2
      vertex -0.271773 2.58576 2
      vertex 0 2.6 2
    endloop
  endfacet
  facet normal -0 0 1
    outer loop
      vertex -0.522642 4.97261 2
      vertex -0.271773 2.58576 2
      vertex 0 5 2
    endloop
  endfacet
  facet normal 0 0 1
    outer loop
      vertex -0.522642 4.97261 2
      vertex -0.54057 2.54318 2
      vertex -0.271773 2.58576 2
    endloop
  endfacet
  facet normal -0 0 1
    outer loop
      vertex -1.03956 4.89074 2
      vertex -0.54057 2.54318 2
      vertex -0.522642 4.97261 2
    endloop
  endfacet
  facet normal 0 0 1
    outer loop
      vertex -0.54057 2.54318 2
      vertex -1.03956 4.89074 2
      vertex -0.803444 2.47275 2
    endloop
  endfacet
  facet normal -0 0 1
    outer loop
      vertex -1.54508 4.75528 2
      vertex -0.803444 2.47275 2
      vertex -1.03956 4.89074 2
    endloop
  endfacet
  facet normal 0 0 1
    outer loop
      vertex -0.803444 2.47275 2
      vertex -1.54508 4.75528 2
      vertex -1.05752 2.37522 2
    endloop
  endfacet
  facet normal -0 0 1
    outer loop
      vertex -2.03368 4.56773 2
      vertex -1.05752 2.37522 2
      vertex -1.54508 4.75528 2
    endloop
  endfacet
  facet normal 0 0 1
    outer loop
      vertex -1.05752 2.37522 2
      vertex -2.03368 4.56773 2
      vertex -1.3 2.25167 2
    endloop
  endfacet
  facet normal -0 0 1
    outer loop
      vertex -2.5 4.33013 2
      vertex -1.3 2.25167 2
      vertex -2.03368 4.56773 2
    endloop
  endfacet
  facet normal 0 0 1
    outer loop
      vertex -1.3 2.25167 2
      vertex -2.5 4.33013 2
      vertex -1.52824 2.10344 2
    endloop
  endfacet
  facet normal -0 0 1
    outer loop
      vertex -2.93893 4.04508 2
      vertex -1.52824 2.10344 2
      vertex -2.5 4.33013 2
    endloop
  endfacet
  facet normal 0 0 1
    outer loop
      vertex -1.52824 2.10344 2
      vertex -2.93893 4.04508 2
      vertex -1.73974 1.93218 2
    endloop
  endfacet
  facet normal -0 0 1
    outer loop
      vertex -3.34565 3.71572 2
      vertex -1.73974 1.93218 2
      vertex -2.93893 4.04508 2
    endloop
  endfacet
  facet normal 0 0 1
    outer loop
      vertex -1.73974 1.93218 2
      vertex -3.34565 3.71572 2
      vertex -1.93218 1.73974 2
    endloop
  endfacet
  facet normal -0 0 1
    outer loop
      vertex -3.71572 3.34565 2
      vertex -1.93218 1.73974 2
      vertex -3.34565 3.71572 2
    endloop
  endfacet
  facet normal 0 0 1
    outer loop
      vertex -1.93218 1.73974 2
      vertex -3.71572 3.34565 2
      vertex -2.10344 1.52824 2
    endloop
  endfacet
  facet normal -0 0 1
    outer loop
      vertex -4.04508 2.93893 2
      vertex -2.10344 1.52824 2
      vertex -3.71572 3.34565 2
    endloop
  endfacet
  facet normal 0 0 1
    outer loop
      vertex -2.10344 1.52824 2
      vertex -4.04508 2.93893 2
      vertex -2.25167 1.3 2
    endloop
  endfacet
  facet normal -0 0 1
    outer loop
      vertex -4.33013 2.5 2
      vertex -2.25167 1.3 2
      vertex -4.04508 2.93893 2
    endloop
  endfacet
  facet normal 0 0 1
    outer loop
      vertex -2.25167 1.3 2
      vertex -4.33013 2.5 2
      vertex -2.37522 1.05752 2
    endloop
  endfacet
  facet normal -0 0 1
    outer loop
      vertex 2.25167 -1.3 2
      vertex 4.33013 -2.5 2
      vertex 2.37522 -1.05752 2
    endloop
  endfacet
  facet normal 0 0 1
    outer loop
      vertex 4.33013 -2.5 2
      vertex 2.25167 -1.3 2
      vertex 4.04508 -2.93893 2
    endloop
  endfacet
  facet normal -0 0 1
    outer loop
      vertex 2.10344 -1.52824 2
      vertex 4.04508 -2.93893 2
      vertex 2.25167 -1.3 2
    endloop
  endfacet
  facet normal 0 0 1
    outer loop
      vertex 4.04508 -2.93893 2
      vertex 2.10344 -1.52824 2
      vertex 3.71572 -3.34565 2
    endloop
  endfacet
  facet normal -0 0 1
    outer loop
      vertex 1.93218 -1.73974 2
      vertex 3.71572 -3.34565 2
      vertex 2.10344 -1.52824 2
    endloop
  endfacet
  facet normal 0 0 1
    outer loop
      vertex 3.71572 -3.34565 2
      vertex 1.93218 -1.73974 2
      vertex 3.34565 -3.71572 2
    endloop
  endfacet
  facet normal -0 0 1
    outer loop
      vertex 1.73974 -1.93218 2
      vertex 3.34565 -3.71572 2
      vertex 1.93218 -1.73974 2
    endloop
  endfacet
  facet normal 0 0 1
    outer loop
      vertex 3.34565 -3.71572 2
      vertex 1.73974 -1.93218 2
      vertex 2.93893 -4.04508 2
    endloop
  endfacet
  facet normal -0 0 1
    outer loop
      vertex 1.52824 -2.10344 2
      vertex 2.93893 -4.04508 2
      vertex 1.73974 -1.93218 2
    endloop
  endfacet
  facet normal 0 0 1
    outer loop
      vertex 2.93893 -4.04508 2
      vertex 1.52824 -2.10344 2
      vertex 2.5 -4.33013 2
    endloop
  endfacet
  facet normal -0 0 1
    outer loop
      vertex 1.3 -2.25167 2
      vertex 2.5 -4.33013 2
      vertex 1.52824 -2.10344 2
    endloop
  endfacet
  facet normal 0 0 1
    outer loop
      vertex 2.5 -4.33013 2
      vertex 1.3 -2.25167 2
      vertex 2.03368 -4.56773 2
    endloop
  endfacet
  facet normal -0 0 1
    outer loop
      vertex 1.05752 -2.37522 2
      vertex 2.03368 -4.56773 2
      vertex 1.3 -2.25167 2
    endloop
  endfacet
  facet normal 0 0 1
    outer loop
      vertex 2.03368 -4.56773 2
      vertex 1.05752 -2.37522 2
      vertex 1.54508 -4.75528 2
    endloop
  endfacet
  facet normal -0 0 1
    outer loop
      vertex 0.803444 -2.47275 2
      vertex 1.54508 -4.75528 2
      vertex 1.05752 -2.37522 2
    endloop
  endfacet
  facet normal 0 0 1
    outer loop
      vertex 1.54508 -4.75528 2
      vertex 0.803444 -2.47275 2
      vertex 1.03956 -4.89074 2
    endloop
  endfacet
  facet normal -0 0 1
    outer loop
      vertex 0.54057 -2.54318 2
      vertex 1.03956 -4.89074 2
      vertex 0.803444 -2.47275 2
    endloop
  endfacet
  facet normal 0 0 1
    outer loop
      vertex 0.54057 -2.54318 2
      vertex 0.522642 -4.97261 2
      vertex 1.03956 -4.89074 2
    endloop
  endfacet
  facet normal -0 0 1
    outer loop
      vertex 0.271773 -2.58576 2
      vertex 0.522642 -4.97261 2
      vertex 0.54057 -2.54318 2
    endloop
  endfacet
  facet normal -0 0 1
    outer loop
      vertex 0 -2.6 2
      vertex 0.522642 -4.97261 2
      vertex 0.271773 -2.58576 2
    endloop
  endfacet
  facet normal 0 0 1
    outer loop
      vertex 0 -2.6 2
      vertex 0 -5 2
      vertex 0.522642 -4.97261 2
    endloop
  endfacet
  facet normal 0 0 1
    outer loop
      vertex -0.271773 -2.58576 2
      vertex 0 -5 2
      vertex 0 -2.6 2
    endloop
  endfacet
  facet normal 0 0 1
    outer loop
      vertex -0.271773 -2.58576 2
      vertex -0.522642 -4.97261 2
      vertex 0 -5 2
    endloop
  endfacet
  facet normal 0 0 1
    outer loop
      vertex -0.54057 -2.54318 2
      vertex -0.522642 -4.97261 2
      vertex -0.271773 -2.58576 2
    endloop
  endfacet
  facet normal 0 0 1
    outer loop
      vertex -1.03956 -4.89074 2
      vertex -0.54057 -2.54318 2
      vertex -0.803444 -2.47275 2
    endloop
  endfacet
  facet normal 0 0 1
    outer loop
      vertex -0.54057 -2.54318 2
      vertex -1.03956 -4.89074 2
      vertex -0.522642 -4.97261 2
    endloop
  endfacet
  facet normal 0 0 1
    outer loop
      vertex -1.54508 -4.75528 2
      vertex -0.803444 -2.47275 2
      vertex -1.05752 -2.37522 2
    endloop
  endfacet
  facet normal 0 0 1
    outer loop
      vertex -2.03368 -4.56773 2
      vertex -1.05752 -2.37522 2
      vertex -1.3 -2.25167 2
    endloop
  endfacet
  facet normal 0 0 1
    outer loop
      vertex -2.5 -4.33013 2
      vertex -1.3 -2.25167 2
      vertex -1.52824 -2.10344 2
    endloop
  endfacet
  facet normal 0 0 1
    outer loop
      vertex -0.803444 -2.47275 2
      vertex -1.54508 -4.75528 2
      vertex -1.03956 -4.89074 2
    endloop
  endfacet
  facet normal 0 0 1
    outer loop
      vertex -2.93893 -4.04508 2
      vertex -1.52824 -2.10344 2
      vertex -1.73974 -1.93218 2
    endloop
  endfacet
  facet normal 0 0 1
    outer loop
      vertex -3.34565 -3.71572 2
      vertex -1.73974 -1.93218 2
      vertex -1.93218 -1.73974 2
    endloop
  endfacet
  facet normal 0 0 1
    outer loop
      vertex -1.05752 -2.37522 2
      vertex -2.03368 -4.56773 2
      vertex -1.54508 -4.75528 2
    endloop
  endfacet
  facet normal 0 0 1
    outer loop
      vertex -3.71572 -3.34565 2
      vertex -1.93218 -1.73974 2
      vertex -2.10344 -1.52824 2
    endloop
  endfacet
  facet normal 0 0 1
    outer loop
      vertex -4.04508 -2.93893 2
      vertex -2.10344 -1.52824 2
      vertex -2.25167 -1.3 2
    endloop
  endfacet
  facet normal 0 0 1
    outer loop
      vertex -4.33013 -2.5 2
      vertex -2.25167 -1.3 2
      vertex -2.37522 -1.05752 2
    endloop
  endfacet
  facet normal 0 0 1
    outer loop
      vertex -4.56773 -2.03368 2
      vertex -2.37522 -1.05752 2
      vertex -2.47275 -0.803444 2
    endloop
  endfacet
  facet normal 0 0 1
    outer loop
      vertex -1.3 -2.25167 2
      vertex -2.5 -4.33013 2
      vertex -2.03368 -4.56773 2
    endloop
  endfacet
  facet normal 0 0 1
    outer loop
      vertex -4.75528 -1.54508 2
      vertex -2.47275 -0.803444 2
      vertex -2.54318 -0.54057 2
    endloop
  endfacet
  facet normal 0 0 1
    outer loop
      vertex -4.89074 -1.03956 2
      vertex -2.54318 -0.54057 2
      vertex -2.58576 -0.271773 2
    endloop
  endfacet
  facet normal 0 0 1
    outer loop
      vertex -4.97261 -0.522642 2
      vertex -2.58576 -0.271773 2
      vertex -2.6 0 2
    endloop
  endfacet
  facet normal -0 0 1
    outer loop
      vertex -4.56773 2.03368 2
      vertex -2.37522 1.05752 2
      vertex -4.33013 2.5 2
    endloop
  endfacet
  facet normal 0 0 1
    outer loop
      vertex -1.52824 -2.10344 2
      vertex -2.93893 -4.04508 2
      vertex -2.5 -4.33013 2
    endloop
  endfacet
  facet normal 0 0 1
    outer loop
      vertex -2.37522 1.05752 2
      vertex -4.56773 2.03368 2
      vertex -2.47275 0.803444 2
    endloop
  endfacet
  facet normal 0 0 1
    outer loop
      vertex -1.73974 -1.93218 2
      vertex -3.34565 -3.71572 2
      vertex -2.93893 -4.04508 2
    endloop
  endfacet
  facet normal -0 0 1
    outer loop
      vertex -4.75528 1.54508 2
      vertex -2.47275 0.803444 2
      vertex -4.56773 2.03368 2
    endloop
  endfacet
  facet normal 0 0 1
    outer loop
      vertex -1.93218 -1.73974 2
      vertex -3.71572 -3.34565 2
      vertex -3.34565 -3.71572 2
    endloop
  endfacet
  facet normal 0 0 1
    outer loop
      vertex -2.47275 0.803444 2
      vertex -4.75528 1.54508 2
      vertex -2.54318 0.54057 2
    endloop
  endfacet
  facet normal 0 0 1
    outer loop
      vertex -2.10344 -1.52824 2
      vertex -4.04508 -2.93893 2
      vertex -3.71572 -3.34565 2
    endloop
  endfacet
  facet normal -0 0 1
    outer loop
      vertex -4.89074 1.03956 2
      vertex -2.54318 0.54057 2
      vertex -4.75528 1.54508 2
    endloop
  endfacet
  facet normal 0 0 1
    outer loop
      vertex -2.25167 -1.3 2
      vertex -4.33013 -2.5 2
      vertex -4.04508 -2.93893 2
    endloop
  endfacet
  facet normal 0 0 1
    outer loop
      vertex -2.54318 0.54057 2
      vertex -4.89074 1.03956 2
      vertex -2.58576 0.271773 2
    endloop
  endfacet
  facet normal 0 0 1
    outer loop
      vertex -2.37522 -1.05752 2
      vertex -4.56773 -2.03368 2
      vertex -4.33013 -2.5 2
    endloop
  endfacet
  facet normal -0 0 1
    outer loop
      vertex -4.97261 0.522642 2
      vertex -2.58576 0.271773 2
      vertex -4.89074 1.03956 2
    endloop
  endfacet
  facet normal 0 0 1
    outer loop
      vertex -2.47275 -0.803444 2
      vertex -4.75528 -1.54508 2
      vertex -4.56773 -2.03368 2
    endloop
  endfacet
  facet normal 0 0 1
    outer loop
      vertex -2.58576 0.271773 2
      vertex -4.97261 0.522642 2
      vertex -2.6 0 2
    endloop
  endfacet
  facet normal 0 0 1
    outer loop
      vertex -2.54318 -0.54057 2
      vertex -4.89074 -1.03956 2
      vertex -4.75528 -1.54508 2
    endloop
  endfacet
  facet normal 0 0 1
    outer loop
      vertex -5 0 2
      vertex -2.6 0 2
      vertex -4.97261 0.522642 2
    endloop
  endfacet
  facet normal 0 0 1
    outer loop
      vertex -2.58576 -0.271773 2
      vertex -4.97261 -0.522642 2
      vertex -4.89074 -1.03956 2
    endloop
  endfacet
  facet normal 0 0 1
    outer loop
      vertex -2.6 0 2
      vertex -5 0 2
      vertex -4.97261 -0.522642 2
    endloop
  endfacet
  facet normal -0.93358 0.358368 0
    outer loop
      vertex -4.75528 1.54508 -2
      vertex -4.56773 2.03368 2
      vertex -4.56773 2.03368 -2
    endloop
  endfacet
  facet normal -0.93358 0.358368 0
    outer loop
      vertex -4.56773 2.03368 2
      vertex -4.75528 1.54508 -2
      vertex -4.75528 1.54508 2
    endloop
  endfacet
  facet normal -0.965926 0.258819 0
    outer loop
      vertex -4.89074 1.03956 -2
      vertex -4.75528 1.54508 2
      vertex -4.75528 1.54508 -2
    endloop
  endfacet
  facet normal -0.965926 0.258819 0
    outer loop
      vertex -4.75528 1.54508 2
      vertex -4.89074 1.03956 -2
      vertex -4.89074 1.03956 2
    endloop
  endfacet
  facet normal -0.838671 0.544638 0
    outer loop
      vertex -4.33013 2.5 -2
      vertex -4.04508 2.93893 2
      vertex -4.04508 2.93893 -2
    endloop
  endfacet
  facet normal -0.838671 0.544638 0
    outer loop
      vertex -4.04508 2.93893 2
      vertex -4.33013 2.5 -2
      vertex -4.33013 2.5 2
    endloop
  endfacet
  facet normal -0.777146 0.62932 0
    outer loop
      vertex -4.04508 2.93893 -2
      vertex -3.71572 3.34565 2
      vertex -3.71572 3.34565 -2
    endloop
  endfacet
  facet normal -0.777146 0.62932 0
    outer loop
      vertex -3.71572 3.34565 2
      vertex -4.04508 2.93893 -2
      vertex -4.04508 2.93893 2
    endloop
  endfacet
  facet normal -0.0523377 0.998629 0
    outer loop
      vertex 0 5 -2
      vertex -0.522642 4.97261 2
      vertex 0 5 2
    endloop
  endfacet
  facet normal -0.0523377 0.998629 0
    outer loop
      vertex -0.522642 4.97261 2
      vertex 0 5 -2
      vertex -0.522642 4.97261 -2
    endloop
  endfacet
  facet normal -0.453991 0.891006 0
    outer loop
      vertex -2.03368 4.56773 -2
      vertex -2.5 4.33013 2
      vertex -2.03368 4.56773 2
    endloop
  endfacet
  facet normal -0.453991 0.891006 0
    outer loop
      vertex -2.5 4.33013 2
      vertex -2.03368 4.56773 -2
      vertex -2.5 4.33013 -2
    endloop
  endfacet
  facet normal -0.544638 0.838671 0
    outer loop
      vertex -2.5 4.33013 -2
      vertex -2.93893 4.04508 2
      vertex -2.5 4.33013 2
    endloop
  endfacet
  facet normal -0.544638 0.838671 0
    outer loop
      vertex -2.93893 4.04508 2
      vertex -2.5 4.33013 -2
      vertex -2.93893 4.04508 -2
    endloop
  endfacet
  facet normal -0.358368 0.93358 0
    outer loop
      vertex -1.54508 4.75528 -2
      vertex -2.03368 4.56773 2
      vertex -1.54508 4.75528 2
    endloop
  endfacet
  facet normal -0.358368 0.93358 0
    outer loop
      vertex -2.03368 4.56773 2
      vertex -1.54508 4.75528 -2
      vertex -2.03368 4.56773 -2
    endloop
  endfacet
  facet normal -0.62932 0.777146 0
    outer loop
      vertex -2.93893 4.04508 -2
      vertex -3.34565 3.71572 2
      vertex -2.93893 4.04508 2
    endloop
  endfacet
  facet normal -0.62932 0.777146 0
    outer loop
      vertex -3.34565 3.71572 2
      vertex -2.93893 4.04508 -2
      vertex -3.34565 3.71572 -2
    endloop
  endfacet
  facet normal 0.998629 0.0523377 0
    outer loop
      vertex 5 0 2
      vertex 4.97261 0.522642 -2
      vertex 4.97261 0.522642 2
    endloop
  endfacet
  facet normal 0.998629 0.0523377 0
    outer loop
      vertex 4.97261 0.522642 -2
      vertex 5 0 2
      vertex 5 0 -2
    endloop
  endfacet
  facet normal 0.0523377 -0.998629 0
    outer loop
      vertex 0 -5 -2
      vertex 0.522642 -4.97261 2
      vertex 0 -5 2
    endloop
  endfacet
  facet normal 0.0523377 -0.998629 0
    outer loop
      vertex 0.522642 -4.97261 2
      vertex 0 -5 -2
      vertex 0.522642 -4.97261 -2
    endloop
  endfacet
  facet normal 0.258819 -0.965926 0
    outer loop
      vertex 1.03956 -4.89074 -2
      vertex 1.54508 -4.75528 2
      vertex 1.03956 -4.89074 2
    endloop
  endfacet
  facet normal 0.258819 -0.965926 0
    outer loop
      vertex 1.54508 -4.75528 2
      vertex 1.03956 -4.89074 -2
      vertex 1.54508 -4.75528 -2
    endloop
  endfacet
  facet normal 0.62932 -0.777146 0
    outer loop
      vertex 2.93893 -4.04508 -2
      vertex 3.34565 -3.71572 2
      vertex 2.93893 -4.04508 2
    endloop
  endfacet
  facet normal 0.62932 -0.777146 0
    outer loop
      vertex 3.34565 -3.71572 2
      vertex 2.93893 -4.04508 -2
      vertex 3.34565 -3.71572 -2
    endloop
  endfacet
  facet normal 0.45399 -0.891007 0
    outer loop
      vertex 2.03368 -4.56773 -2
      vertex 2.5 -4.33013 2
      vertex 2.03368 -4.56773 2
    endloop
  endfacet
  facet normal 0.45399 -0.891007 0
    outer loop
      vertex 2.5 -4.33013 2
      vertex 2.03368 -4.56773 -2
      vertex 2.5 -4.33013 -2
    endloop
  endfacet
  facet normal 0.891006 -0.453991 0
    outer loop
      vertex 4.33013 -2.5 2
      vertex 4.56773 -2.03368 -2
      vertex 4.56773 -2.03368 2
    endloop
  endfacet
  facet normal 0.891006 -0.453991 0
    outer loop
      vertex 4.56773 -2.03368 -2
      vertex 4.33013 -2.5 2
      vertex 4.33013 -2.5 -2
    endloop
  endfacet
  facet normal -0.0523377 -0.998629 0
    outer loop
      vertex -0.522642 -4.97261 -2
      vertex 0 -5 2
      vertex -0.522642 -4.97261 2
    endloop
  endfacet
  facet normal -0.0523377 -0.998629 -0
    outer loop
      vertex 0 -5 2
      vertex -0.522642 -4.97261 -2
      vertex 0 -5 -2
    endloop
  endfacet
  facet normal -0.358368 -0.93358 0
    outer loop
      vertex -2.03368 -4.56773 -2
      vertex -1.54508 -4.75528 2
      vertex -2.03368 -4.56773 2
    endloop
  endfacet
  facet normal -0.358368 -0.93358 -0
    outer loop
      vertex -1.54508 -4.75528 2
      vertex -2.03368 -4.56773 -2
      vertex -1.54508 -4.75528 -2
    endloop
  endfacet
  facet normal -0.544639 -0.83867 0
    outer loop
      vertex -2.93893 -4.04508 -2
      vertex -2.5 -4.33013 2
      vertex -2.93893 -4.04508 2
    endloop
  endfacet
  facet normal -0.544639 -0.83867 -0
    outer loop
      vertex -2.5 -4.33013 2
      vertex -2.93893 -4.04508 -2
      vertex -2.5 -4.33013 -2
    endloop
  endfacet
  facet normal -0.965926 -0.258819 0
    outer loop
      vertex -4.75528 -1.54508 -2
      vertex -4.89074 -1.03956 2
      vertex -4.89074 -1.03956 -2
    endloop
  endfacet
  facet normal -0.965926 -0.258819 0
    outer loop
      vertex -4.89074 -1.03956 2
      vertex -4.75528 -1.54508 -2
      vertex -4.75528 -1.54508 2
    endloop
  endfacet
  facet normal -0.998629 -0.0523377 0
    outer loop
      vertex -4.97261 -0.522642 -2
      vertex -5 0 2
      vertex -5 0 -2
    endloop
  endfacet
  facet normal -0.998629 -0.0523377 0
    outer loop
      vertex -5 0 2
      vertex -4.97261 -0.522642 -2
      vertex -4.97261 -0.522642 2
    endloop
  endfacet
  facet normal -0.838671 -0.544638 0
    outer loop
      vertex -4.04508 -2.93893 -2
      vertex -4.33013 -2.5 2
      vertex -4.33013 -2.5 -2
    endloop
  endfacet
  facet normal -0.838671 -0.544638 0
    outer loop
      vertex -4.33013 -2.5 2
      vertex -4.04508 -2.93893 -2
      vertex -4.04508 -2.93893 2
    endloop
  endfacet
  facet normal -0.891006 -0.453991 0
    outer loop
      vertex -4.33013 -2.5 -2
      vertex -4.56773 -2.03368 2
      vertex -4.56773 -2.03368 -2
    endloop
  endfacet
  facet normal -0.891006 -0.453991 0
    outer loop
      vertex -4.56773 -2.03368 2
      vertex -4.33013 -2.5 -2
      vertex -4.33013 -2.5 2
    endloop
  endfacet
  facet normal -0.93358 -0.358368 0
    outer loop
      vertex -4.56773 -2.03368 -2
      vertex -4.75528 -1.54508 2
      vertex -4.75528 -1.54508 -2
    endloop
  endfacet
  facet normal -0.93358 -0.358368 0
    outer loop
      vertex -4.75528 -1.54508 2
      vertex -4.56773 -2.03368 -2
      vertex -4.56773 -2.03368 2
    endloop
  endfacet
  facet normal -0.777146 -0.62932 0
    outer loop
      vertex -3.71572 -3.34565 -2
      vertex -4.04508 -2.93893 2
      vertex -4.04508 -2.93893 -2
    endloop
  endfacet
  facet normal -0.777146 -0.62932 0
    outer loop
      vertex -4.04508 -2.93893 2
      vertex -3.71572 -3.34565 -2
      vertex -3.71572 -3.34565 2
    endloop
  endfacet
  facet normal 0.987688 -0.156434 0
    outer loop
      vertex 4.89074 -1.03956 2
      vertex 4.97261 -0.522642 -2
      vertex 4.97261 -0.522642 2
    endloop
  endfacet
  facet normal 0.987688 -0.156434 0
    outer loop
      vertex 4.97261 -0.522642 -2
      vertex 4.89074 -1.03956 2
      vertex 4.89074 -1.03956 -2
    endloop
  endfacet
  facet normal 0.965926 -0.258819 0
    outer loop
      vertex 4.75528 -1.54508 2
      vertex 4.89074 -1.03956 -2
      vertex 4.89074 -1.03956 2
    endloop
  endfacet
  facet normal 0.965926 -0.258819 0
    outer loop
      vertex 4.89074 -1.03956 -2
      vertex 4.75528 -1.54508 2
      vertex 4.75528 -1.54508 -2
    endloop
  endfacet
  facet normal 0.156434 -0.987688 0
    outer loop
      vertex 0.522642 -4.97261 -2
      vertex 1.03956 -4.89074 2
      vertex 0.522642 -4.97261 2
    endloop
  endfacet
  facet normal 0.156434 -0.987688 0
    outer loop
      vertex 1.03956 -4.89074 2
      vertex 0.522642 -4.97261 -2
      vertex 1.03956 -4.89074 -2
    endloop
  endfacet
  facet normal 0.358368 -0.93358 0
    outer loop
      vertex 1.54508 -4.75528 -2
      vertex 2.03368 -4.56773 2
      vertex 1.54508 -4.75528 2
    endloop
  endfacet
  facet normal 0.358368 -0.93358 0
    outer loop
      vertex 2.03368 -4.56773 2
      vertex 1.54508 -4.75528 -2
      vertex 2.03368 -4.56773 -2
    endloop
  endfacet
  facet normal 0.707107 -0.707107 0
    outer loop
      vertex 3.34565 -3.71572 2
      vertex 3.71572 -3.34565 -2
      vertex 3.71572 -3.34565 2
    endloop
  endfacet
  facet normal 0.707107 -0.707107 0
    outer loop
      vertex 3.71572 -3.34565 -2
      vertex 3.34565 -3.71572 2
      vertex 3.34565 -3.71572 -2
    endloop
  endfacet
  facet normal 0.544639 -0.83867 0
    outer loop
      vertex 2.5 -4.33013 -2
      vertex 2.93893 -4.04508 2
      vertex 2.5 -4.33013 2
    endloop
  endfacet
  facet normal 0.544639 -0.83867 0
    outer loop
      vertex 2.93893 -4.04508 2
      vertex 2.5 -4.33013 -2
      vertex 2.93893 -4.04508 -2
    endloop
  endfacet
  facet normal 0.93358 -0.358368 0
    outer loop
      vertex 4.56773 -2.03368 2
      vertex 4.75528 -1.54508 -2
      vertex 4.75528 -1.54508 2
    endloop
  endfacet
  facet normal 0.93358 -0.358368 0
    outer loop
      vertex 4.75528 -1.54508 -2
      vertex 4.56773 -2.03368 2
      vertex 4.56773 -2.03368 -2
    endloop
  endfacet
  facet normal 0.838671 -0.544638 0
    outer loop
      vertex 4.04508 -2.93893 2
      vertex 4.33013 -2.5 -2
      vertex 4.33013 -2.5 2
    endloop
  endfacet
  facet normal 0.838671 -0.544638 0
    outer loop
      vertex 4.33013 -2.5 -2
      vertex 4.04508 -2.93893 2
      vertex 4.04508 -2.93893 -2
    endloop
  endfacet
  facet normal -0.258819 -0.965926 0
    outer loop
      vertex -1.54508 -4.75528 -2
      vertex -1.03956 -4.89074 2
      vertex -1.54508 -4.75528 2
    endloop
  endfacet
  facet normal -0.258819 -0.965926 -0
    outer loop
      vertex -1.03956 -4.89074 2
      vertex -1.54508 -4.75528 -2
      vertex -1.03956 -4.89074 -2
    endloop
  endfacet
  facet normal -0.62932 -0.777146 0
    outer loop
      vertex -3.34565 -3.71572 -2
      vertex -2.93893 -4.04508 2
      vertex -3.34565 -3.71572 2
    endloop
  endfacet
  facet normal -0.62932 -0.777146 -0
    outer loop
      vertex -2.93893 -4.04508 2
      vertex -3.34565 -3.71572 -2
      vertex -2.93893 -4.04508 -2
    endloop
  endfacet
  facet normal -0.987688 -0.156434 0
    outer loop
      vertex -4.89074 -1.03956 -2
      vertex -4.97261 -0.522642 2
      vertex -4.97261 -0.522642 -2
    endloop
  endfacet
  facet normal -0.987688 -0.156434 0
    outer loop
      vertex -4.97261 -0.522642 2
      vertex -4.89074 -1.03956 -2
      vertex -4.89074 -1.03956 2
    endloop
  endfacet
  facet normal -0.99863 -0.0523363 0
    outer loop
      vertex 2.6 0 -2
      vertex 2.58576 0.271773 2
      vertex 2.58576 0.271773 -2
    endloop
  endfacet
  facet normal -0.99863 -0.0523363 0
    outer loop
      vertex 2.58576 0.271773 2
      vertex 2.6 0 -2
      vertex 2.6 0 2
    endloop
  endfacet
  facet normal 0.99863 -0.0523363 0
    outer loop
      vertex -2.6 0 2
      vertex -2.58576 0.271773 -2
      vertex -2.58576 0.271773 2
    endloop
  endfacet
  facet normal 0.99863 -0.0523363 0
    outer loop
      vertex -2.58576 0.271773 -2
      vertex -2.6 0 2
      vertex -2.6 0 -2
    endloop
  endfacet
  facet normal -0.0523363 -0.99863 0
    outer loop
      vertex 0 2.6 -2
      vertex 0.271773 2.58576 2
      vertex 0 2.6 2
    endloop
  endfacet
  facet normal -0.0523363 -0.99863 -0
    outer loop
      vertex 0.271773 2.58576 2
      vertex 0 2.6 -2
      vertex 0.271773 2.58576 -2
    endloop
  endfacet
  facet normal 0.0523363 0.99863 -0
    outer loop
      vertex 0 -2.6 -2
      vertex -0.271773 -2.58576 2
      vertex 0 -2.6 2
    endloop
  endfacet
  facet normal 0.0523363 0.99863 0
    outer loop
      vertex -0.271773 -2.58576 2
      vertex 0 -2.6 -2
      vertex -0.271773 -2.58576 -2
    endloop
  endfacet
  facet normal 0.777145 0.629322 0
    outer loop
      vertex -1.93218 -1.73974 2
      vertex -2.10344 -1.52824 -2
      vertex -2.10344 -1.52824 2
    endloop
  endfacet
  facet normal 0.777145 0.629322 0
    outer loop
      vertex -2.10344 -1.52824 -2
      vertex -1.93218 -1.73974 2
      vertex -1.93218 -1.73974 -2
    endloop
  endfacet
  facet normal -0.707107 -0.707107 0
    outer loop
      vertex 1.93218 1.73974 -2
      vertex 1.73974 1.93218 2
      vertex 1.73974 1.93218 -2
    endloop
  endfacet
  facet normal -0.707107 -0.707107 0
    outer loop
      vertex 1.73974 1.93218 2
      vertex 1.93218 1.73974 -2
      vertex 1.93218 1.73974 2
    endloop
  endfacet
  facet normal 0.629322 -0.777145 0
    outer loop
      vertex -1.73974 1.93218 -2
      vertex -1.52824 2.10344 2
      vertex -1.73974 1.93218 2
    endloop
  endfacet
  facet normal 0.629322 -0.777145 0
    outer loop
      vertex -1.52824 2.10344 2
      vertex -1.73974 1.93218 -2
      vertex -1.52824 2.10344 -2
    endloop
  endfacet
  facet normal 0.258818 -0.965926 0
    outer loop
      vertex -0.803444 2.47275 -2
      vertex -0.54057 2.54318 2
      vertex -0.803444 2.47275 2
    endloop
  endfacet
  facet normal 0.258818 -0.965926 0
    outer loop
      vertex -0.54057 2.54318 2
      vertex -0.803444 2.47275 -2
      vertex -0.54057 2.54318 -2
    endloop
  endfacet
  facet normal -0.93358 -0.35837 0
    outer loop
      vertex 2.47275 0.803444 -2
      vertex 2.37522 1.05752 2
      vertex 2.37522 1.05752 -2
    endloop
  endfacet
  facet normal -0.93358 -0.35837 0
    outer loop
      vertex 2.37522 1.05752 2
      vertex 2.47275 0.803444 -2
      vertex 2.47275 0.803444 2
    endloop
  endfacet
  facet normal -0.35837 -0.93358 0
    outer loop
      vertex 0.803444 2.47275 -2
      vertex 1.05752 2.37522 2
      vertex 0.803444 2.47275 2
    endloop
  endfacet
  facet normal -0.35837 -0.93358 -0
    outer loop
      vertex 1.05752 2.37522 2
      vertex 0.803444 2.47275 -2
      vertex 1.05752 2.37522 -2
    endloop
  endfacet
  facet normal -0.258818 -0.965926 0
    outer loop
      vertex 0.54057 2.54318 -2
      vertex 0.803444 2.47275 2
      vertex 0.54057 2.54318 2
    endloop
  endfacet
  facet normal -0.258818 -0.965926 -0
    outer loop
      vertex 0.803444 2.47275 2
      vertex 0.54057 2.54318 -2
      vertex 0.803444 2.47275 -2
    endloop
  endfacet
  facet normal -0.544636 -0.838672 0
    outer loop
      vertex 1.3 2.25167 -2
      vertex 1.52824 2.10344 2
      vertex 1.3 2.25167 2
    endloop
  endfacet
  facet normal -0.544636 -0.838672 -0
    outer loop
      vertex 1.52824 2.10344 2
      vertex 1.3 2.25167 -2
      vertex 1.52824 2.10344 -2
    endloop
  endfacet
  facet normal 0.891006 -0.453992 0
    outer loop
      vertex -2.37522 1.05752 2
      vertex -2.25167 1.3 -2
      vertex -2.25167 1.3 2
    endloop
  endfacet
  facet normal 0.891006 -0.453992 0
    outer loop
      vertex -2.25167 1.3 -2
      vertex -2.37522 1.05752 2
      vertex -2.37522 1.05752 -2
    endloop
  endfacet
  facet normal 0.156433 -0.987688 0
    outer loop
      vertex -0.54057 2.54318 -2
      vertex -0.271773 2.58576 2
      vertex -0.54057 2.54318 2
    endloop
  endfacet
  facet normal 0.156433 -0.987688 0
    outer loop
      vertex -0.271773 2.58576 2
      vertex -0.54057 2.54318 -2
      vertex -0.271773 2.58576 -2
    endloop
  endfacet
  facet normal -0.965926 -0.258818 0
    outer loop
      vertex 2.54318 0.54057 -2
      vertex 2.47275 0.803444 2
      vertex 2.47275 0.803444 -2
    endloop
  endfacet
  facet normal -0.965926 -0.258818 0
    outer loop
      vertex 2.47275 0.803444 2
      vertex 2.54318 0.54057 -2
      vertex 2.54318 0.54057 2
    endloop
  endfacet
  facet normal -0.987688 -0.156433 0
    outer loop
      vertex 2.58576 0.271773 -2
      vertex 2.54318 0.54057 2
      vertex 2.54318 0.54057 -2
    endloop
  endfacet
  facet normal -0.987688 -0.156433 0
    outer loop
      vertex 2.54318 0.54057 2
      vertex 2.58576 0.271773 -2
      vertex 2.58576 0.271773 2
    endloop
  endfacet
  facet normal -0.838672 -0.544636 0
    outer loop
      vertex 2.25167 1.3 -2
      vertex 2.10344 1.52824 2
      vertex 2.10344 1.52824 -2
    endloop
  endfacet
  facet normal -0.838672 -0.544636 0
    outer loop
      vertex 2.10344 1.52824 2
      vertex 2.25167 1.3 -2
      vertex 2.25167 1.3 2
    endloop
  endfacet
  facet normal -0.777145 -0.629322 0
    outer loop
      vertex 2.10344 1.52824 -2
      vertex 1.93218 1.73974 2
      vertex 1.93218 1.73974 -2
    endloop
  endfacet
  facet normal -0.777145 -0.629322 0
    outer loop
      vertex 1.93218 1.73974 2
      vertex 2.10344 1.52824 -2
      vertex 2.10344 1.52824 2
    endloop
  endfacet
  facet normal -0.891006 -0.453992 0
    outer loop
      vertex 2.37522 1.05752 -2
      vertex 2.25167 1.3 2
      vertex 2.25167 1.3 -2
    endloop
  endfacet
  facet normal -0.891006 -0.453992 0
    outer loop
      vertex 2.25167 1.3 2
      vertex 2.37522 1.05752 -2
      vertex 2.37522 1.05752 2
    endloop
  endfacet
  facet normal -0.156433 -0.987688 0
    outer loop
      vertex 0.271773 2.58576 -2
      vertex 0.54057 2.54318 2
      vertex 0.271773 2.58576 2
    endloop
  endfacet
  facet normal -0.156433 -0.987688 -0
    outer loop
      vertex 0.54057 2.54318 2
      vertex 0.271773 2.58576 -2
      vertex 0.54057 2.54318 -2
    endloop
  endfacet
  facet normal -0.453992 -0.891006 0
    outer loop
      vertex 1.05752 2.37522 -2
      vertex 1.3 2.25167 2
      vertex 1.05752 2.37522 2
    endloop
  endfacet
  facet normal -0.453992 -0.891006 -0
    outer loop
      vertex 1.3 2.25167 2
      vertex 1.05752 2.37522 -2
      vertex 1.3 2.25167 -2
    endloop
  endfacet
  facet normal -0.629322 -0.777145 0
    outer loop
      vertex 1.52824 2.10344 -2
      vertex 1.73974 1.93218 2
      vertex 1.52824 2.10344 2
    endloop
  endfacet
  facet normal -0.629322 -0.777145 -0
    outer loop
      vertex 1.73974 1.93218 2
      vertex 1.52824 2.10344 -2
      vertex 1.73974 1.93218 -2
    endloop
  endfacet
  facet normal 0.965926 -0.258818 0
    outer loop
      vertex -2.54318 0.54057 2
      vertex -2.47275 0.803444 -2
      vertex -2.47275 0.803444 2
    endloop
  endfacet
  facet normal 0.965926 -0.258818 0
    outer loop
      vertex -2.47275 0.803444 -2
      vertex -2.54318 0.54057 2
      vertex -2.54318 0.54057 -2
    endloop
  endfacet
  facet normal 0.777145 -0.629322 0
    outer loop
      vertex -2.10344 1.52824 2
      vertex -1.93218 1.73974 -2
      vertex -1.93218 1.73974 2
    endloop
  endfacet
  facet normal 0.777145 -0.629322 0
    outer loop
      vertex -1.93218 1.73974 -2
      vertex -2.10344 1.52824 2
      vertex -2.10344 1.52824 -2
    endloop
  endfacet
  facet normal 0.707107 -0.707107 0
    outer loop
      vertex -1.93218 1.73974 2
      vertex -1.73974 1.93218 -2
      vertex -1.73974 1.93218 2
    endloop
  endfacet
  facet normal 0.707107 -0.707107 0
    outer loop
      vertex -1.73974 1.93218 -2
      vertex -1.93218 1.73974 2
      vertex -1.93218 1.73974 -2
    endloop
  endfacet
  facet normal 0.838672 -0.544636 0
    outer loop
      vertex -2.25167 1.3 2
      vertex -2.10344 1.52824 -2
      vertex -2.10344 1.52824 2
    endloop
  endfacet
  facet normal 0.838672 -0.544636 0
    outer loop
      vertex -2.10344 1.52824 -2
      vertex -2.25167 1.3 2
      vertex -2.25167 1.3 -2
    endloop
  endfacet
  facet normal 0.93358 -0.35837 0
    outer loop
      vertex -2.47275 0.803444 2
      vertex -2.37522 1.05752 -2
      vertex -2.37522 1.05752 2
    endloop
  endfacet
  facet normal 0.93358 -0.35837 0
    outer loop
      vertex -2.37522 1.05752 -2
      vertex -2.47275 0.803444 2
      vertex -2.47275 0.803444 -2
    endloop
  endfacet
  facet normal 0.987688 -0.156433 0
    outer loop
      vertex -2.58576 0.271773 2
      vertex -2.54318 0.54057 -2
      vertex -2.54318 0.54057 2
    endloop
  endfacet
  facet normal 0.987688 -0.156433 0
    outer loop
      vertex -2.54318 0.54057 -2
      vertex -2.58576 0.271773 2
      vertex -2.58576 0.271773 -2
    endloop
  endfacet
  facet normal 0.453992 -0.891006 0
    outer loop
      vertex -1.3 2.25167 -2
      vertex -1.05752 2.37522 2
      vertex -1.3 2.25167 2
    endloop
  endfacet
  facet normal 0.453992 -0.891006 0
    outer loop
      vertex -1.05752 2.37522 2
      vertex -1.3 2.25167 -2
      vertex -1.05752 2.37522 -2
    endloop
  endfacet
  facet normal 0.35837 -0.93358 0
    outer loop
      vertex -1.05752 2.37522 -2
      vertex -0.803444 2.47275 2
      vertex -1.05752 2.37522 2
    endloop
  endfacet
  facet normal 0.35837 -0.93358 0
    outer loop
      vertex -0.803444 2.47275 2
      vertex -1.05752 2.37522 -2
      vertex -0.803444 2.47275 -2
    endloop
  endfacet
  facet normal 0.544636 -0.838672 0
    outer loop
      vertex -1.52824 2.10344 -2
      vertex -1.3 2.25167 2
      vertex -1.52824 2.10344 2
    endloop
  endfacet
  facet normal 0.544636 -0.838672 0
    outer loop
      vertex -1.3 2.25167 2
      vertex -1.52824 2.10344 -2
      vertex -1.3 2.25167 -2
    endloop
  endfacet
  facet normal 0.0523363 -0.99863 0
    outer loop
      vertex -0.271773 2.58576 -2
      vertex 0 2.6 2
      vertex -0.271773 2.58576 2
    endloop
  endfacet
  facet normal 0.0523363 -0.99863 0
    outer loop
      vertex 0 2.6 2
      vertex -0.271773 2.58576 -2
      vertex 0 2.6 -2
    endloop
  endfacet
  facet normal -0.0523363 0.99863 0
    outer loop
      vertex 0.271773 -2.58576 -2
      vertex 0 -2.6 2
      vertex 0.271773 -2.58576 2
    endloop
  endfacet
  facet normal -0.0523363 0.99863 0
    outer loop
      vertex 0 -2.6 2
      vertex 0.271773 -2.58576 -2
      vertex 0 -2.6 -2
    endloop
  endfacet
  facet normal -0.258818 0.965926 0
    outer loop
      vertex 0.803444 -2.47275 -2
      vertex 0.54057 -2.54318 2
      vertex 0.803444 -2.47275 2
    endloop
  endfacet
  facet normal -0.258818 0.965926 0
    outer loop
      vertex 0.54057 -2.54318 2
      vertex 0.803444 -2.47275 -2
      vertex 0.54057 -2.54318 -2
    endloop
  endfacet
  facet normal -0.629322 0.777145 0
    outer loop
      vertex 1.73974 -1.93218 -2
      vertex 1.52824 -2.10344 2
      vertex 1.73974 -1.93218 2
    endloop
  endfacet
  facet normal -0.629322 0.777145 0
    outer loop
      vertex 1.52824 -2.10344 2
      vertex 1.73974 -1.93218 -2
      vertex 1.52824 -2.10344 -2
    endloop
  endfacet
  facet normal -0.453992 0.891006 0
    outer loop
      vertex 1.3 -2.25167 -2
      vertex 1.05752 -2.37522 2
      vertex 1.3 -2.25167 2
    endloop
  endfacet
  facet normal -0.453992 0.891006 0
    outer loop
      vertex 1.05752 -2.37522 2
      vertex 1.3 -2.25167 -2
      vertex 1.05752 -2.37522 -2
    endloop
  endfacet
  facet normal -0.777145 0.629322 0
    outer loop
      vertex 1.93218 -1.73974 -2
      vertex 2.10344 -1.52824 2
      vertex 2.10344 -1.52824 -2
    endloop
  endfacet
  facet normal -0.777145 0.629322 0
    outer loop
      vertex 2.10344 -1.52824 2
      vertex 1.93218 -1.73974 -2
      vertex 1.93218 -1.73974 2
    endloop
  endfacet
  facet normal -0.891006 0.453992 0
    outer loop
      vertex 2.25167 -1.3 -2
      vertex 2.37522 -1.05752 2
      vertex 2.37522 -1.05752 -2
    endloop
  endfacet
  facet normal -0.891006 0.453992 0
    outer loop
      vertex 2.37522 -1.05752 2
      vertex 2.25167 -1.3 -2
      vertex 2.25167 -1.3 2
    endloop
  endfacet
  facet normal 0.707107 0.707107 0
    outer loop
      vertex -1.73974 -1.93218 2
      vertex -1.93218 -1.73974 -2
      vertex -1.93218 -1.73974 2
    endloop
  endfacet
  facet normal 0.707107 0.707107 0
    outer loop
      vertex -1.93218 -1.73974 -2
      vertex -1.73974 -1.93218 2
      vertex -1.73974 -1.93218 -2
    endloop
  endfacet
  facet normal 0.544636 0.838672 -0
    outer loop
      vertex -1.3 -2.25167 -2
      vertex -1.52824 -2.10344 2
      vertex -1.3 -2.25167 2
    endloop
  endfacet
  facet normal 0.544636 0.838672 0
    outer loop
      vertex -1.52824 -2.10344 2
      vertex -1.3 -2.25167 -2
      vertex -1.52824 -2.10344 -2
    endloop
  endfacet
  facet normal 0.35837 0.93358 -0
    outer loop
      vertex -0.803444 -2.47275 -2
      vertex -1.05752 -2.37522 2
      vertex -0.803444 -2.47275 2
    endloop
  endfacet
  facet normal 0.35837 0.93358 0
    outer loop
      vertex -1.05752 -2.37522 2
      vertex -0.803444 -2.47275 -2
      vertex -1.05752 -2.37522 -2
    endloop
  endfacet
  facet normal 0.156433 0.987688 -0
    outer loop
      vertex -0.271773 -2.58576 -2
      vertex -0.54057 -2.54318 2
      vertex -0.271773 -2.58576 2
    endloop
  endfacet
  facet normal 0.156433 0.987688 0
    outer loop
      vertex -0.54057 -2.54318 2
      vertex -0.271773 -2.58576 -2
      vertex -0.54057 -2.54318 -2
    endloop
  endfacet
  facet normal 0.93358 0.35837 0
    outer loop
      vertex -2.37522 -1.05752 2
      vertex -2.47275 -0.803444 -2
      vertex -2.47275 -0.803444 2
    endloop
  endfacet
  facet normal 0.93358 0.35837 0
    outer loop
      vertex -2.47275 -0.803444 -2
      vertex -2.37522 -1.05752 2
      vertex -2.37522 -1.05752 -2
    endloop
  endfacet
  facet normal 0.838672 0.544636 0
    outer loop
      vertex -2.10344 -1.52824 2
      vertex -2.25167 -1.3 -2
      vertex -2.25167 -1.3 2
    endloop
  endfacet
  facet normal 0.838672 0.544636 0
    outer loop
      vertex -2.25167 -1.3 -2
      vertex -2.10344 -1.52824 2
      vertex -2.10344 -1.52824 -2
    endloop
  endfacet
  facet normal 0.965926 0.258818 0
    outer loop
      vertex -2.47275 -0.803444 2
      vertex -2.54318 -0.54057 -2
      vertex -2.54318 -0.54057 2
    endloop
  endfacet
  facet normal 0.965926 0.258818 0
    outer loop
      vertex -2.54318 -0.54057 -2
      vertex -2.47275 -0.803444 2
      vertex -2.47275 -0.803444 -2
    endloop
  endfacet
  facet normal 0.99863 0.0523363 0
    outer loop
      vertex -2.58576 -0.271773 2
      vertex -2.6 0 -2
      vertex -2.6 0 2
    endloop
  endfacet
  facet normal 0.99863 0.0523363 0
    outer loop
      vertex -2.6 0 -2
      vertex -2.58576 -0.271773 2
      vertex -2.58576 -0.271773 -2
    endloop
  endfacet
  facet normal -0.156433 0.987688 0
    outer loop
      vertex 0.54057 -2.54318 -2
      vertex 0.271773 -2.58576 2
      vertex 0.54057 -2.54318 2
    endloop
  endfacet
  facet normal -0.156433 0.987688 0
    outer loop
      vertex 0.271773 -2.58576 2
      vertex 0.54057 -2.54318 -2
      vertex 0.271773 -2.58576 -2
    endloop
  endfacet
  facet normal -0.35837 0.93358 0
    outer loop
      vertex 1.05752 -2.37522 -2
      vertex 0.803444 -2.47275 2
      vertex 1.05752 -2.37522 2
    endloop
  endfacet
  facet normal -0.35837 0.93358 0
    outer loop
      vertex 0.803444 -2.47275 2
      vertex 1.05752 -2.37522 -2
      vertex 0.803444 -2.47275 -2
    endloop
  endfacet
  facet normal -0.707107 0.707107 0
    outer loop
      vertex 1.73974 -1.93218 -2
      vertex 1.93218 -1.73974 2
      vertex 1.93218 -1.73974 -2
    endloop
  endfacet
  facet normal -0.707107 0.707107 0
    outer loop
      vertex 1.93218 -1.73974 2
      vertex 1.73974 -1.93218 -2
      vertex 1.73974 -1.93218 2
    endloop
  endfacet
  facet normal -0.544636 0.838672 0
    outer loop
      vertex 1.52824 -2.10344 -2
      vertex 1.3 -2.25167 2
      vertex 1.52824 -2.10344 2
    endloop
  endfacet
  facet normal -0.544636 0.838672 0
    outer loop
      vertex 1.3 -2.25167 2
      vertex 1.52824 -2.10344 -2
      vertex 1.3 -2.25167 -2
    endloop
  endfacet
  facet normal -0.838672 0.544636 0
    outer loop
      vertex 2.10344 -1.52824 -2
      vertex 2.25167 -1.3 2
      vertex 2.25167 -1.3 -2
    endloop
  endfacet
  facet normal -0.838672 0.544636 0
    outer loop
      vertex 2.25167 -1.3 2
      vertex 2.10344 -1.52824 -2
      vertex 2.10344 -1.52824 2
    endloop
  endfacet
  facet normal -0.93358 0.35837 0
    outer loop
      vertex 2.37522 -1.05752 -2
      vertex 2.47275 -0.803444 2
      vertex 2.47275 -0.803444 -2
    endloop
  endfacet
  facet normal -0.93358 0.35837 0
    outer loop
      vertex 2.47275 -0.803444 2
      vertex 2.37522 -1.05752 -2
      vertex 2.37522 -1.05752 2
    endloop
  endfacet
  facet normal -0.987688 0.156433 0
    outer loop
      vertex 2.54318 -0.54057 -2
      vertex 2.58576 -0.271773 2
      vertex 2.58576 -0.271773 -2
    endloop
  endfacet
  facet normal -0.987688 0.156433 0
    outer loop
      vertex 2.58576 -0.271773 2
      vertex 2.54318 -0.54057 -2
      vertex 2.54318 -0.54057 2
    endloop
  endfacet
  facet normal -0.965926 0.258818 0
    outer loop
      vertex 2.47275 -0.803444 -2
      vertex 2.54318 -0.54057 2
      vertex 2.54318 -0.54057 -2
    endloop
  endfacet
  facet normal -0.965926 0.258818 0
    outer loop
      vertex 2.54318 -0.54057 2
      vertex 2.47275 -0.803444 -2
      vertex 2.47275 -0.803444 2
    endloop
  endfacet
  facet normal -0.99863 0.0523363 0
    outer loop
      vertex 2.58576 -0.271773 -2
      vertex 2.6 0 2
      vertex 2.6 0 -2
    endloop
  endfacet
  facet normal -0.99863 0.0523363 0
    outer loop
      vertex 2.6 0 2
      vertex 2.58576 -0.271773 -2
      vertex 2.58576 -0.271773 2
    endloop
  endfacet
  facet normal 0.629322 0.777145 -0
    outer loop
      vertex -1.52824 -2.10344 -2
      vertex -1.73974 -1.93218 2
      vertex -1.52824 -2.10344 2
    endloop
  endfacet
  facet normal 0.629322 0.777145 0
    outer loop
      vertex -1.73974 -1.93218 2
      vertex -1.52824 -2.10344 -2
      vertex -1.73974 -1.93218 -2
    endloop
  endfacet
  facet normal 0.453992 0.891006 -0
    outer loop
      vertex -1.05752 -2.37522 -2
      vertex -1.3 -2.25167 2
      vertex -1.05752 -2.37522 2
    endloop
  endfacet
  facet normal 0.453992 0.891006 0
    outer loop
      vertex -1.3 -2.25167 2
      vertex -1.05752 -2.37522 -2
      vertex -1.3 -2.25167 -2
    endloop
  endfacet
  facet normal 0.258818 0.965926 -0
    outer loop
      vertex -0.54057 -2.54318 -2
      vertex -0.803444 -2.47275 2
      vertex -0.54057 -2.54318 2
    endloop
  endfacet
  facet normal 0.258818 0.965926 0
    outer loop
      vertex -0.803444 -2.47275 2
      vertex -0.54057 -2.54318 -2
      vertex -0.803444 -2.47275 -2
    endloop
  endfacet
  facet normal 0.891006 0.453992 0
    outer loop
      vertex -2.25167 -1.3 2
      vertex -2.37522 -1.05752 -2
      vertex -2.37522 -1.05752 2
    endloop
  endfacet
  facet normal 0.891006 0.453992 0
    outer loop
      vertex -2.37522 -1.05752 -2
      vertex -2.25167 -1.3 2
      vertex -2.25167 -1.3 -2
    endloop
  endfacet
  facet normal 0.987688 0.156433 0
    outer loop
      vertex -2.54318 -0.54057 2
      vertex -2.58576 -0.271773 -2
      vertex -2.58576 -0.271773 2
    endloop
  endfacet
  facet normal 0.987688 0.156433 0
    outer loop
      vertex -2.58576 -0.271773 -2
      vertex -2.54318 -0.54057 2
      vertex -2.54318 -0.54057 -2
    endloop
  endfacet
endsolid OpenSCAD_Model
